<?xml version="1.0" standalone="no"?>
<!DOCTYPE svg PUBLIC "-//W3C//DTD SVG 1.1//EN" "http://www.w3.org/Graphics/SVG/1.1/DTD/svg11.dtd" >
<svg xmlns="http://www.w3.org/2000/svg" xmlns:xlink="http://www.w3.org/1999/xlink" version="1.1">
<metadata>
Created by FontForge 20141024 at Mon May  4 09:14:16 2015
 By System Administrator
Copyright (c)  M. Klein    3.05
</metadata>
<defs>
<font id="Nilland-SmallCaps" horiz-adv-x="552" >
  <font-face 
    font-family="Nilland-SmallCaps"
    font-weight="400"
    font-variant="small-caps"
    font-stretch="normal"
    units-per-em="1000"
    panose-1="2 0 0 3 6 0 0 2 0 4"
    ascent="800"
    descent="-200"
    x-height="473"
    cap-height="715"
    bbox="-84 -224 1001 917"
    underline-thickness="50"
    underline-position="-75"
    unicode-range="U+0005-E05D"
  />
<missing-glyph horiz-adv-x="500" 
 />
    <glyph glyph-name=".notdef" horiz-adv-x="500" 
 />
    <glyph glyph-name="breve" horiz-adv-x="333" 
d="M311 669h-42q-16 -36 -44 -54q-26 -17 -58 -17t-59 18q-26 17 -44 53h-42q20 -56 59 -86q40 -32 86 -32q45 0 86 32q40 31 58 86z" />
    <glyph glyph-name="dotaccent" horiz-adv-x="333" 
d="M199 580v64h-64v-64h64z" />
    <glyph glyph-name="ring" horiz-adv-x="333" 
d="M258 612q0 38 -27 65t-65 27t-65 -27q-26 -28 -26 -65q0 -38 27 -65q25 -27 64 -27q38 0 65 27t27 65zM228 612q0 -26 -18 -44t-44 -18t-44 18q-17 19 -17 44q0 26 18 44q16 18 43 18q26 0 44 -18t18 -44z" />
    <glyph glyph-name="hungarumlaut" unicode="&#xa;" horiz-adv-x="333" 
d="M396 691h-57l-100 -155h38zM281 691h-56l-100 -155h38z" />
    <glyph glyph-name="ogonek" horiz-adv-x="333" 
d="M253 -156v42q-11 -4 -19.5 -6.5t-15.5 -4.5q-6 -1 -13.5 -1.5t-15.5 -0.5q-23 0 -43 14q-18 13 -18 42q0 20 12 40q5 10 11.5 17.5t13.5 13.5h-41q-16 -13 -30 -34q-14 -22 -14 -46q0 -44 33 -69q31 -25 77 -25q19 0 34 5q12 3 29 13z" />
    <glyph glyph-name="caron" horiz-adv-x="333" 
d="M314 686h-35l-113 -104l-112 104h-35l118 -145h58z" />
    <glyph glyph-name="dotlessi" unicode="&#xd;" horiz-adv-x="250" 
d="M241 0v45h-81v428h-135v-45h83v-383h-83v-45h216z" />
    <glyph glyph-name="fraction" horiz-adv-x="344" 
d="M430 679h-35l-479 -679h35z" />
    <glyph glyph-name="fi" horiz-adv-x="542" 
d="M475 650q0 16 -12 28t-28 12t-28 -12t-12 -29q0 -16 12 -28t28 -12t28 12t12 29zM529 0v45h-71v428h-223h-14h-70v95q0 38 17 58q16 19 47 19q25 0 42 -15q16 -14 23 -42l46 7q-6 37 -35 66q-27 29 -75 29q-52 0 -85 -36q-32 -37 -32 -96v-85h-73v-45h73v-383h-76v-45
h197v45h-69v383h70h14h171v-383h-74v-45h197z" />
    <glyph glyph-name="fl" horiz-adv-x="542" 
d="M529 0v45h-72v634h-190q-20 11 -50 11q-53 0 -86 -36q-32 -37 -32 -96v-85h-76v-45h76v-383h-76v-45h197v45h-69v383h77v45h-77v95q0 38 17 58q16 19 47 19q24 0 41 -15q16 -14 24 -42l46 7q-2 11 -5.5 21t-8.5 18h93v-589h-73v-45h197z" />
    <glyph glyph-name="Lslash" horiz-adv-x="510" 
d="M499 0v243h-56v-202h-279v280l138 101v41l-138 -101v208h92v42h-240v-42h92v-250l-109 -79v-41l109 79v-238h-93v-42z" />
    <glyph glyph-name="lslash" horiz-adv-x="240" 
d="M256 434v39l-110 -90v296h-138v-45h86v-293l-109 -89v-39l109 89v-257h-85v-45h222v45h-85v299z" />
    <glyph glyph-name="Zcaron" 
d="M425 801h-36l-113 -94l-112 94h-36l119 -132h58zM522 -1v159h-48v-117h-379l417 530v41h-464v-42h46h348l-416 -529v-42h496z" />
    <glyph glyph-name="zcaron" horiz-adv-x="479" 
d="M387 686h-35l-113 -104l-112 104h-35l118 -145h58zM436 429v44h-367v-45h41h268l-333 -383v-45h390v173h-42v-128h-291z" />
    <glyph glyph-name="space" unicode=" " horiz-adv-x="250" 
 />
    <glyph glyph-name="exclam" unicode="!" horiz-adv-x="250" 
d="M152 612h-54l1 -193l12 -258h28l12 256zM154 -1v50h-58v-50h58z" />
    <glyph glyph-name="quotedbl" unicode="&#x22;" horiz-adv-x="281" 
d="M247 585v105h-56v-104l14 -126h28zM91 585v105h-56v-104l14 -126h28z" />
    <glyph glyph-name="numbersign" unicode="#" horiz-adv-x="668" 
d="M587 210v45h-132l40 194h92v45h-82l42 204h-47l-42 -204h-188l42 204h-47l-42 -204h-141v-45h131l-40 -194h-91v-45h82l-42 -203h47l42 203h188l-42 -203h47l42 203h141zM448 449l-40 -194h-188l40 194h188z" />
    <glyph glyph-name="dollar" unicode="$" horiz-adv-x="510" 
d="M483 152q0 71 -46 117q-38 38 -151 62v225q47 -9 77 -36q20 -19 30.5 -44t11.5 -59h49q-6 100 -63 139q-24 17 -50 27t-55 13v25h-47v-25q-69 -6 -120 -40q-60 -42 -60 -102q0 -65 45 -107q39 -38 136 -56v-259q-34 4 -59 12.5t-42 23.5l-36 -32q24 -20 58 -30.5
t79 -14.5v-68h47v68q80 6 132 45q64 48 64 116zM239 339q-29 8 -51.5 16.5t-37.5 19.5q-37 27 -37 79q0 45 41 74q35 25 86 29zM434 157q0 -55 -47 -91q-39 -30 -101 -35v253q81 -18 109 -42q39 -35 39 -85z" />
    <glyph glyph-name="percent" unicode="%" horiz-adv-x="844" 
d="M810 177q0 88 -34 135q-33 47 -101 47q-67 0 -101 -48q-34 -46 -34 -134q0 -89 34 -135q33 -47 101 -47q69 0 102 47q33 46 33 135zM677 679h-26h-8h-417q-27 11 -58 11q-66 0 -101 -47q-34 -46 -34 -134q0 -89 34 -135q33 -47 102 -47q68 0 101 47q33 46 33 135
q0 88 -34 134q-8 13 -23 24h389l-470 -667h34zM770 177q0 -73 -23 -114q-22 -40 -71 -40q-47 0 -71 40q-23 41 -23 113t24 114q23 41 69 41q48 0 72 -41q23 -41 23 -113zM263 509q0 -73 -23 -114q-22 -40 -71 -40q-47 0 -71 41q-23 41 -23 112q0 72 24 113q23 41 70 41
t71 -41q23 -41 23 -112z" />
    <glyph glyph-name="ampersand" unicode="&#x26;" horiz-adv-x="698" 
d="M658 296v45h-115q-5 -29 -13.5 -57t-19.5 -55q-9 -22 -18.5 -40.5t-20.5 -33.5l-170 234q64 22 114 60q56 42 56 105q0 59 -46 98q-46 38 -108 38q-64 0 -113 -41q-47 -41 -47 -100q0 -38 30 -83q23 -34 43 -59q-82 -28 -129 -77q-49 -50 -49 -130q0 -78 59 -145
q57 -65 163 -65q55 0 109 25q45 20 84 64l57 -79l53 2l-78 114q28 35 45 71q22 45 38 109h76zM425 555q0 -46 -45 -79q-20 -14 -46 -26.5t-59 -23.5q-8 11 -17.5 24t-20.5 30q-30 45 -30 73q0 43 33 69q33 24 75 24q46 0 78 -25q32 -26 32 -66zM439 117q-38 -40 -71 -57
q-41 -21 -87 -21q-73 0 -123 50t-50 121q0 52 40 95q38 40 108 65z" />
    <glyph glyph-name="quotesingle" unicode="'" horiz-adv-x="219" 
d="M138 585v105h-56v-104l14 -126h28z" />
    <glyph glyph-name="parenleft" unicode="(" horiz-adv-x="354" 
d="M329 -201v43q-102 61 -145 157q-43 100 -43 240q0 141 44 240q41 96 144 157v43q-125 -56 -183 -171t-58 -269t59 -270q58 -115 182 -170z" />
    <glyph glyph-name="parenright" unicode=")" horiz-adv-x="354" 
d="M266 239q0 154 -59 270q-58 115 -182 170v-43q102 -61 145 -157q43 -100 43 -240q0 -141 -44 -240q-41 -96 -144 -157v-43q124 55 183 171q58 116 58 269z" />
    <glyph glyph-name="asterisk" unicode="*" horiz-adv-x="490" 
d="M451 507l-18 57q-71 -23 -76 -28q-6 -6 -101 -49q10 103 15 111q4 7 4 81h-60q0 -74 4 -81q4 -8 15 -111q-95 43 -101 49q-6 5 -76 28l-18 -57q64 -21 79 -21q8 0 34.5 -5t74.5 -15q-71 -80 -78 -81q-6 -2 -50 -62l48 -36q45 60 45 68q0 6 53 98q53 -92 53 -99t45 -67
l48 36q-44 61 -51 62q-7 2 -77 81q48 10 75.5 15t36.5 5q11 0 76 21z" />
    <glyph glyph-name="plus" unicode="+" horiz-adv-x="667" 
d="M595 300v44h-240v239h-44v-239h-240v-44h240v-242h44v242h240z" />
    <glyph glyph-name="comma" unicode="," horiz-adv-x="250" 
d="M153 -18v81h-56v-63h25q-1 -61 -9 -76q-8 -14 -25 -14v-36q31 2 48 29q17 28 17 79z" />
    <glyph glyph-name="hyphen" unicode="-" horiz-adv-x="344" 
d="M308 251v45h-274v-45h274z" />
    <glyph glyph-name="period" unicode="." horiz-adv-x="250" 
d="M158 0v64h-56v-64h56z" />
    <glyph glyph-name="slash" unicode="/" horiz-adv-x="281" 
d="M280 679h-46l-234 -697h46z" />
    <glyph glyph-name="zero" unicode="0" horiz-adv-x="531" 
d="M485 306q0 148 -55 232q-53 83 -164 83q-112 0 -165 -83q-55 -84 -55 -232q0 -146 55 -232q54 -83 164 -83q111 0 165 83q55 84 55 232zM432 306q0 -128 -41 -202q-42 -74 -125 -74q-85 0 -127 75q-41 74 -41 201q0 64 11 115t31 88q42 74 125 74q85 0 127 -75
q41 -74 41 -202h-1z" />
    <glyph glyph-name="one" unicode="1" horiz-adv-x="531" 
d="M393 0v41h-97v571l-149 -18v-33h97v-520h-97v-42z" />
    <glyph glyph-name="two" unicode="2" horiz-adv-x="531" 
d="M461 145h-45l-5 -104h-304q9 64 57 124t157 121q73 40 101 79q30 39 30 98q0 71 -51 115q-49 43 -133 43q-90 0 -145 -53l32 -29q38 44 114 44q54 0 94 -34q37 -34 37 -86q0 -55 -31 -87q-16 -17 -38.5 -33t-51.5 -33q-126 -70 -176 -154q-25 -42 -38.5 -77.5
t-10.5 -65.5l1 -14h399z" />
    <glyph glyph-name="three" unicode="3" horiz-adv-x="531" 
d="M474 169q0 64 -42 106q-20 19 -46.5 31.5t-60.5 17.5q48 18 79 51.5t31 87.5q0 68 -51 113q-50 45 -127 45q-81 0 -128 -43q-48 -43 -52 -122h49q1 62 36 94q34 33 92 33q57 0 94 -34q35 -35 35 -85q0 -58 -42 -92q-26 -21 -59.5 -27t-65.5 -9v-36l45 1q71 1 118 -36
q44 -35 44 -95q0 -61 -46 -100q-48 -40 -117 -40q-72 0 -119 44l-37 -29q64 -54 154 -54q95 0 155 50q61 49 61 128z" />
    <glyph glyph-name="four" unicode="4" horiz-adv-x="531" 
d="M487 179v37h-112v401h-44l-287 -402l-25 -35l50 -1h262v-139v-41h106v42h-62v138h112zM330 216h-239l240 341z" />
    <glyph glyph-name="five" unicode="5" horiz-adv-x="531" 
d="M481 198q0 82 -58 138q-56 55 -143 55q-20 0 -40.5 -4t-40.5 -11q-39 -13 -71 -44l24 234h242h47v46h-331l-32 -314q13 -3 23 -9q9 -4 18 -13q31 40 69 58q37 18 80 18q74 0 118 -43q44 -42 44 -112q0 -73 -47 -120q-46 -47 -122 -47q-67 0 -109 36l-38 -24
q30 -25 66 -38t80 -13q96 0 159 58q62 57 62 149z" />
    <glyph glyph-name="six" unicode="6" horiz-adv-x="531" 
d="M478 194q0 84 -54 140q-53 54 -135 54q-55 0 -107 -28q-19 -10 -35.5 -22.5t-30.5 -26.5q2 122 40 195q42 77 137 77q57 0 90 -37l29 32q-50 43 -124 43q-106 0 -165 -86t-59 -245q0 -157 57 -229q55 -70 157 -70q87 0 144 57q56 56 56 146zM426 191q0 -73 -40 -117
q-41 -44 -109 -44q-69 0 -116 56q-46 55 -46 164v15q34 37 76 59q47 26 91 26q66 0 106 -43q39 -44 39 -116h-1z" />
    <glyph glyph-name="seven" unicode="7" horiz-adv-x="531" 
d="M461 570v42h-398v-137h48v91h297q-46 -53 -81 -113.5t-58 -132.5q-12 -36 -21 -84t-14.5 -91.5t-8.5 -73.5l-3 -30v-42h133v42h-81q1 71 12.5 140.5t34.5 139.5q47 141 140 249z" />
    <glyph glyph-name="eight" unicode="8" horiz-adv-x="531" 
d="M489 168q0 56 -34 97q-31 40 -106 58q61 16 88 50q15 19 23 41t8 49q0 68 -59 113q-57 45 -144 45q-88 0 -145 -45q-57 -44 -57 -114q0 -53 34 -92q32 -35 85 -47q-68 -15 -103 -55q-38 -43 -38 -99q0 -77 65 -128q64 -50 160 -50t160 50q63 51 63 127zM418 462
q0 -58 -41 -90q-40 -31 -112 -31q-69 0 -112 32q-41 32 -41 87q0 54 44 89q45 34 113 34q63 0 108 -34q42 -35 42 -87h-1zM438 171q0 -63 -48 -102t-125 -39q-79 0 -125 39q-47 39 -47 103q0 61 47 97q47 35 126 35q77 0 125 -36q47 -36 47 -97z" />
    <glyph glyph-name="nine" unicode="9" horiz-adv-x="531" 
d="M466 323q0 160 -56 229q-54 69 -156 69q-90 0 -145 -56q-57 -59 -57 -147q0 -82 54 -139q52 -55 135 -55q56 0 106 28q37 19 67 49q-1 -121 -40 -195q-40 -76 -131 -76q-60 0 -93 34l-30 -31q51 -42 128 -42q105 0 161 89q57 89 57 243zM414 347q-17 -19 -36 -33.5
t-40 -25.5q-46 -25 -89 -25q-65 0 -106 43q-39 42 -39 111q0 78 40 122q41 44 110 44q72 0 117 -55q44 -56 44 -165z" />
    <glyph glyph-name="colon" unicode=":" horiz-adv-x="250" 
d="M158 380v64h-56v-64h56zM158 0v64h-56v-64h56z" />
    <glyph glyph-name="semicolon" unicode=";" horiz-adv-x="250" 
d="M158 380v64h-56v-64h56zM153 -18v81h-56v-63h25q-1 -61 -9 -76q-8 -14 -25 -14v-36q31 2 48 29q17 28 17 79z" />
    <glyph glyph-name="less" unicode="&#x3c;" horiz-adv-x="667" 
d="M595 77v50l-463 193l463 193v50l-524 -223v-40z" />
    <glyph glyph-name="equal" unicode="=" horiz-adv-x="667" 
d="M600 413v44h-524v-44h524zM600 273v44h-524v-44h524z" />
    <glyph glyph-name="greater" unicode="&#x3e;" horiz-adv-x="667" 
d="M596 300v40l-524 223v-50l462 -193l-462 -193v-50z" />
    <glyph glyph-name="question" unicode="?" horiz-adv-x="448" 
d="M407 455q0 62 -51 115q-48 51 -138 51q-92 0 -140 -49q-49 -49 -49 -118h49q0 57 38 92q39 34 98 34q63 0 103 -37q39 -36 39 -87q0 -69 -50 -96q-19 -11 -41 -16t-48 -5q-19 0 -38 3l-9 -3l19 -174h24l12 131h11q80 0 125 47q46 47 46 112zM227 -1v59h-57v-59h57z" />
    <glyph glyph-name="at" unicode="@" horiz-adv-x="666" 
d="M607 237h-34q-26 -39 -86 -70q-62 -32 -137 -32q-95 0 -171 73q-76 72 -76 185q0 110 73 184q73 76 175 76q94 0 157 -63q64 -63 64 -147q0 -77 -44 -135q-44 -57 -84 -57q-7 0 -13 6q-4 6 -4 13q0 2 0.5 4.5t0.5 5.5l57 263h-41l-10 -49q-10 29 -41 46q-29 16 -54 16
q-77 0 -122 -64q-45 -65 -45 -139q0 -63 34 -97t77 -34q36 0 67 20q28 20 44 42q5 -37 15 -50q9 -14 19 -14q61 0 115 66t54 155q0 94 -70 166q-71 71 -178 71q-113 0 -193 -86q-79 -85 -79 -196q0 -114 77 -200q78 -86 201 -86q86 0 157 42q71 41 95 85zM419 442
q0 -61 -36 -125t-87 -64q-29 0 -57 23q-26 23 -26 73q0 67 34 123q33 55 91 55q36 0 58 -25q23 -24 23 -60z" />
    <glyph glyph-name="A" unicode="A" horiz-adv-x="656" 
d="M681 0v41h-85l-206 529h85v42h-193l-15 -41l-204 -530h-87v-42h144v42h-1l72 191h274l74 -191h-85v-42zM449 273h-241l121 318z" />
    <glyph glyph-name="B" unicode="B" horiz-adv-x="563" 
d="M525 175q0 55 -37 95q-34 39 -99 54q46 15 73 47q29 34 29 83q0 76 -55 117q-53 41 -150 41h-270v-42h88v-530v-41h182q113 2 175 46q64 44 64 130zM433 456q0 -54 -43 -85q-45 -31 -116 -31h-114v230h123q69 0 110 -30q41 -32 41 -84h-1zM468 171q0 -62 -50 -97
q-50 -33 -137 -33h-121v257h123q88 0 137 -32q48 -33 48 -95z" />
    <glyph glyph-name="C" unicode="C" horiz-adv-x="750" 
d="M720 199l-47 25q-40 -100 -109 -145q-67 -43 -162 -43q-125 0 -204 76q-80 77 -80 194q0 119 79 195q78 75 201 75q87 0 160 -43q73 -42 89 -118h48v143h-48v-45q-48 57 -115 82q-69 26 -132 26q-150 0 -244 -88q-95 -87 -95 -227t95 -229q93 -87 245 -87q105 0 189 49
q82 49 130 160z" />
    <glyph glyph-name="D" unicode="D" horiz-adv-x="708" 
d="M662 305q0 135 -90 222q-88 85 -273 85h-292v-42h95v-530v-41h196q203 0 283 92q81 93 81 214zM604 305q0 -132 -75 -198q-77 -66 -223 -66h-148v529h146q143 0 223 -69q78 -69 78 -196h-1z" />
    <glyph glyph-name="E" unicode="E" horiz-adv-x="604" 
d="M560 0v41h-47h-355v251h283v41h-283v237h355v-108h46v150h-545v-42h88v-530v-41z" />
    <glyph glyph-name="F" unicode="F" horiz-adv-x="531" 
d="M533 461v151h-519v-42h89v-529h-89v-42h146v41v254l250 -1v42h-251v235h328v-109h46z" />
    <glyph glyph-name="G" unicode="G" horiz-adv-x="792" 
d="M739 276h-340v-42h280q-14 -94 -91 -146q-79 -52 -184 -52q-132 0 -215 76q-83 75 -83 194q0 118 80 195q79 75 205 75q87 0 161 -43q75 -42 101 -122h46v156h-47v-60q-43 53 -113 84q-69 30 -149 30q-147 0 -243 -90q-98 -89 -98 -225q0 -139 100 -227q100 -89 254 -89
q146 0 241 78q48 38 70.5 90t24.5 118z" />
    <glyph glyph-name="H" unicode="H" horiz-adv-x="688" 
d="M668 570v42h-228v-42h89v-230h-371v231v41h-140v-42h84v-529h-83v-42h140v41v259h370v-258h-88v-42h145v41v530h82z" />
    <glyph glyph-name="I" unicode="I" horiz-adv-x="281" 
d="M168 656v59h-58v-59h58zM255 -1v42h-87v530v41h-57v-41v-530h-85v-42h229z" />
    <glyph glyph-name="J" unicode="J" horiz-adv-x="271" 
d="M264 570v42h-257v-42h103v-619q0 -54 -25 -76q-24 -21 -83 -21l-3 -44q85 0 126 36q42 36 42 111v613h97z" />
    <glyph glyph-name="K" unicode="K" horiz-adv-x="583" 
d="M601 0v41h-74l-288 285l274 244h74v42h-94l-45 -41l-283 -250l283 -281l39 -41zM253 -1v42h-94v280v249h94v42h-241v-42h91v-530v-41h150z" />
    <glyph glyph-name="L" unicode="L" horiz-adv-x="510" 
d="M499 0v198h-56v-157h-279v529h2v42h-151v-42h93v-529h-93v-42z" />
    <glyph glyph-name="M" unicode="M" horiz-adv-x="854" 
d="M837 0v41h-86v529h86v42h-176l-233 -512l-235 512h-175v-42h89v-530v-41h129v42h-82v543l264 -585h11l266 584v-543v-41z" />
    <glyph glyph-name="N" unicode="N" horiz-adv-x="708" 
d="M699 570v42h-137v-41v-503q-48 70 -97 138t-99 134q-49 66 -98 133.5t-98 138.5h-161v-42h92v-530v-41h144v42h-97v514l409 -564h54v579h88z" />
    <glyph glyph-name="O" unicode="O" horiz-adv-x="781" 
d="M735 306q0 137 -98 226q-96 89 -245 89t-245 -90q-98 -89 -98 -225q0 -137 98 -226q97 -90 245 -90t245 91q98 89 98 225zM677 306q0 -117 -80 -194q-80 -76 -205 -76q-123 0 -205 77q-81 76 -81 193t81 194q80 76 205 76q126 0 206 -77t80 -193h-1z" />
    <glyph glyph-name="P" unicode="P" 
d="M534 431q0 85 -61 134q-29 23 -70.5 35t-95.5 12h-292v-42h91v-529h-91v-42h148v41v211h154q97 0 157 49q60 51 60 131zM476 426q0 -66 -46 -100q-47 -33 -133 -33h-135v277h135q92 0 137 -34q43 -33 43 -110h-1z" />
    <glyph glyph-name="Q" unicode="Q" horiz-adv-x="781" 
d="M735 306q0 137 -98 226q-96 89 -245 89t-245 -90q-98 -89 -98 -225t98 -226q65 -62 170 -83q-14 -1 -24.5 -2.5t-17.5 -3.5q-14 -5 -27 -10.5t-25 -13.5l22 -28q10 6 21 11.5t22 8.5q22 6 44 6q9 0 27.5 -5t41.5 -13t48 -18t48.5 -20t43 -19.5t29.5 -15.5l28 38
q-9 4 -35 15.5t-55.5 24.5t-56.5 24.5t-38 14.5q137 8 224 89q98 89 98 226zM677 306q0 -117 -80 -194q-80 -76 -205 -76q-123 0 -205 77q-81 76 -81 193t81 194q80 76 205 76q126 0 206 -77t80 -193h-1z" />
    <glyph glyph-name="R" unicode="R" horiz-adv-x="573" 
d="M589 0v41h-88l-135 268q81 15 118 55q38 40 38 100q0 64 -53 106t-132 42h-335v-42h101v-571h57v306h149l153 -306zM465 460q0 -57 -42 -85q-41 -29 -116 -29h-148v224h166q64 0 102 -30q18 -15 28 -35t10 -45z" />
    <glyph glyph-name="S" unicode="S" horiz-adv-x="542" 
d="M499 160q0 73 -51 116q-50 42 -187 72q-76 17 -120 43q-44 27 -44 79q0 44 41 76q39 30 102 30q37 0 69 -4.5t58 -22.5q13 -9 21.5 -22t14 -26t7.5 -24.5t2 -18.5v-12h54q0 2 -1 13.5t-4.5 29.5t-10.5 31q-7 14 -13.5 22t-17.5 19q-18 17 -36 27t-41 19t-48 11.5t-51 2.5
q-83 0 -141 -43q-58 -42 -58 -106q0 -69 50 -110q48 -39 155 -63q105 -22 150 -53q43 -30 43 -80q0 -57 -46 -94q-47 -36 -115 -36q-80 0 -136 46q-56 47 -56 106v22h-47v-211h48v81q31 -45 82 -67q54 -23 108 -23q91 0 155 49q64 50 64 121z" />
    <glyph glyph-name="T" unicode="T" horiz-adv-x="573" 
d="M558 490v122h-542v-194h48v152h195v-529h-94v-42h151v571h195v-80h47z" />
    <glyph glyph-name="U" unicode="U" horiz-adv-x="646" 
d="M643 570v42h-145v-41v-396q0 -70 -44 -104q-44 -35 -132 -35q-84 0 -130 36q-46 37 -46 105v393h87v42h-231v-42h88v-387q0 -93 61 -144q61 -49 172 -49t172 50q30 26 45.5 60.5t15.5 82.5v387h87z" />
    <glyph glyph-name="V" unicode="V" horiz-adv-x="656" 
d="M680 570v42h-221v-42h83l-205 -502l-214 503l-15 41h-131v-42h89l243 -577h47l235 577h89z" />
    <glyph glyph-name="W" unicode="W" horiz-adv-x="948" 
d="M967 570v42h-221v-42h87l-156 -506l-154 507l-13 41h-71l-10 -41l-145 -507l-162 507l-12 41h-131v-42h86l192 -577h46l169 589l180 -589h44l185 577h86z" />
    <glyph glyph-name="X" unicode="X" horiz-adv-x="656" 
d="M643 0v41h-96l-194 275l177 254h91v42h-230v-42h84l-152 -215l-151 216l-30 41h-129v-42h95l186 -262l-186 -267h-95v-42h241v42h-89l158 227l160 -228h1l27 -41z" />
    <glyph glyph-name="Y" unicode="Y" horiz-adv-x="604" 
d="M623 570v42h-225v-42h88l-176 -250l-176 251h-1l-28 41h-125v-42h89l208 -295v-234h-95v-42h152v41v235l207 295h82z" />
    <glyph glyph-name="Z" unicode="Z" 
d="M522 0v158h-48v-117h-379l417 530v41h-464v-42h46h348l-416 -529v-42z" />
    <glyph glyph-name="bracketleft" unicode="[" horiz-adv-x="344" 
d="M329 -201v45h-160v790h160v45h-212v-880h212z" />
    <glyph glyph-name="backslash" unicode="\" horiz-adv-x="281" 
d="M281 -14l-234 693h-47l234 -693h47z" />
    <glyph glyph-name="bracketright" unicode="]" horiz-adv-x="344" 
d="M228 679h-213v-45h160l1 -790h-161v-45h212z" />
    <glyph glyph-name="asciicircum" unicode="^" horiz-adv-x="656" 
d="M546 428l-218 262l-218 -262l30 -27l188 225l188 -225z" />
    <glyph glyph-name="underscore" unicode="_" horiz-adv-x="500" 
d="M500 -125v50h-500v-50h500z" />
    <glyph glyph-name="grave" unicode="`" horiz-adv-x="333" 
d="M240 536l-100 155h-57l119 -155h38z" />
    <glyph glyph-name="a" unicode="a" horiz-adv-x="510" 
d="M500 0v45h-79v307q0 68 -45 101t-131 33q-19 0 -40.5 -4.5t-39.5 -10.5t-29.5 -10.5l-11.5 -4.5l13 -31l11 3.5t27 8t34.5 8.5t33.5 4q57 0 92 -23q34 -22 34 -74v-112q-38 21 -75 30q-38 9 -66 9q-80 0 -129 -42q-48 -41 -48 -104q0 -57 42 -99q41 -41 105 -41
q39 0 87 20q45 19 84 54v-67h131zM369 111q-29 -33 -74 -56q-43 -22 -85 -22q-49 0 -78 29q-28 28 -28 67q0 47 35 79t98 32q35 0 70 -12q32 -11 62 -30v-87z" />
    <glyph glyph-name="b" unicode="b" horiz-adv-x="615" 
d="M573 245q0 106 -67 173q-66 68 -170 68q-50 0 -99 -25q-50 -26 -85 -86v304h-138v-45h86v-589v-45h52v95q40 -58 86 -80q44 -22 93 -22q108 0 175 70t67 182zM520 243q0 -91 -52 -149q-51 -58 -133 -58q-78 0 -131 56t-53 149q0 89 55 145q54 57 131 57q79 0 132 -57
q51 -56 51 -143z" />
    <glyph glyph-name="c" unicode="c" horiz-adv-x="510" 
d="M480 128l-42 18q-21 -50 -62 -82q-40 -31 -100 -31q-82 0 -132 56t-50 147t49 147q48 56 126 56q56 0 103 -36q45 -34 48 -110h43v150h-43v-34q-24 37 -63 57q-38 20 -88 20q-99 0 -163 -72q-65 -73 -65 -178q0 -109 65 -180q64 -70 169 -70q71 0 124 37q54 37 81 105z
" />
    <glyph glyph-name="d" unicode="d" horiz-adv-x="594" 
d="M591 0v45h-86v634h-52v-45v-259q-38 62 -86 87q-50 24 -100 24q-100 0 -166 -71q-65 -71 -65 -179q0 -104 67 -174q67 -69 167 -69q51 0 99 23q46 22 84 78v-94h138zM454 239q0 -88 -52 -146q-51 -57 -132 -57q-78 0 -132 58q-53 59 -53 142q0 87 53 148q51 59 130 59
q78 0 132 -59t54 -145z" />
    <glyph glyph-name="e" unicode="e" 
d="M518 225q-6 124 -70 192q-65 69 -167 69q-105 0 -173 -71t-68 -179q0 -109 69 -179q69 -71 175 -71q19 0 43 5.5t45 12t35.5 12l14.5 5.5l-12 38l-13 -5t-31 -10.5t-38.5 -10.5t-35.5 -5q-88 0 -144 59q-52 54 -57 138h427zM463 270h-370q11 71 50 113q53 59 134 59
q77 0 127 -48q49 -49 59 -124z" />
    <glyph glyph-name="f" unicode="f" horiz-adv-x="250" 
d="M323 595q-6 37 -35 66q-27 29 -75 29q-52 0 -85 -36q-32 -37 -32 -96v-85h-73v-45h73v-383h1v-45h144v45h-93v383h93v45h-93v95q0 38 17 58q16 19 47 19q25 0 42 -15q16 -14 23 -42z" />
    <glyph glyph-name="g" unicode="g" horiz-adv-x="594" 
d="M601 428v45h-139v-103q-45 69 -92 93q-48 23 -96 23q-98 0 -167 -74q-68 -74 -68 -180q0 -103 67 -171q68 -68 167 -68q53 0 105 26q51 26 84 85v-120q0 -77 -51 -119t-132 -42q-12 0 -29 2.5t-32 5.5t-26 5.5l-11 2.5l-12 -45q2 -1 18.5 -5t42 -8.5t44.5 -4.5
q106 0 173 58t67 155v439h87zM462 236q0 -85 -54 -142q-53 -57 -132 -57q-80 0 -133 56q-51 55 -51 143q0 85 53 146q53 59 131 59q76 0 132 -60q54 -60 54 -145z" />
    <glyph glyph-name="h" unicode="h" horiz-adv-x="542" 
d="M536 0v45h-76v317q0 56 -35 91q-35 33 -92 33q-50 0 -96 -21t-86 -56v270h-138v-45h86v-634h130v45h-78v312q35 34 85 58q48 24 90 24q40 0 61 -22q21 -21 21 -61v-311v-45h128z" />
    <glyph glyph-name="i" unicode="i" horiz-adv-x="250" 
d="M159 650q0 16 -12 28t-28 12t-28 -12t-12 -29q0 -16 12 -28t28 -12t28 12t12 29zM240 0v45h-81v428h-135v-45h83v-383h1v-45h132z" />
    <glyph glyph-name="j" unicode="j" horiz-adv-x="240" 
d="M161 650q0 16 -12 28t-28 12t-28 -12t-12 -29q0 -16 12 -28t28 -12t28 12t12 29zM161 -59v532h-139v-45h87v-474q0 -59 -25 -87q-13 -14 -32.5 -21.5t-47.5 -5.5v-45q38 -2 67.5 8.5t49.5 29.5q40 37 40 108z" />
    <glyph glyph-name="k" unicode="k" horiz-adv-x="521" 
d="M534 0v45h-72l-246 206l259 177h51v45h-64q-2 -1 -22 -15t-56 -39t-76.5 -52.5t-82 -56t-73.5 -49.5v418h-139v-45h87v-589h1v-45h138v45h-87v199l280 -244h102z" />
    <glyph glyph-name="l" unicode="l" horiz-adv-x="240" 
d="M231 0v45h-85v634h-138v-45h86v-589v-45h137z" />
    <glyph glyph-name="m" unicode="m" horiz-adv-x="844" 
d="M830 0v45h-74v317q0 56 -35 91q-35 33 -94 33q-46 0 -98 -27q-55 -28 -82 -58q-13 43 -45 64t-77 21q-47 0 -93 -21q-43 -20 -82 -56v64h-138v-45h86v-383v-45h130v45h-78v312q35 33 84 58q46 24 87 24t60 -22q20 -22 20 -61v-356h52v353q39 39 84 63q46 23 88 23
q38 0 59 -22q20 -22 20 -61v-311v-45h126z" />
    <glyph glyph-name="n" unicode="n" horiz-adv-x="531" 
d="M528 0v45h-75v317q0 56 -35 91q-35 33 -91 33q-49 0 -95 -21t-86 -56v64h-138v-45h86v-383v-45h129v45h-77v312q35 33 84 58q48 24 90 24q39 0 60 -22q21 -21 21 -61v-311v-45h127z" />
    <glyph glyph-name="o" unicode="o" 
d="M513 236q0 105 -68 178q-68 72 -168 72q-102 0 -169 -72q-67 -71 -67 -178q0 -105 68 -178q67 -72 168 -72q103 0 169 72q67 71 67 178zM460 236q0 -88 -52 -146q-51 -57 -131 -57t-132 58q-51 57 -51 145t52 146q51 57 131 57t132 -58q51 -57 51 -145z" />
    <glyph glyph-name="p" unicode="p" horiz-adv-x="594" 
d="M551 239q0 106 -66 177q-64 70 -164 70q-50 0 -98 -24q-47 -22 -87 -85v96h-132v-45h80v-595v-45h138v45h-86v263q34 -64 83 -87q48 -23 99 -23q103 0 168 71t65 182zM503 236q0 -89 -51 -146t-133 -57q-80 0 -132 57q-53 58 -53 148q0 92 52 147q53 56 130 56
q83 0 135 -58q52 -56 52 -147z" />
    <glyph glyph-name="q" unicode="q" horiz-adv-x="594" 
d="M596 434v45h-140v-99q-36 58 -85 82q-50 24 -98 24q-99 0 -165 -72q-66 -71 -66 -176q0 -111 65 -182q64 -70 171 -70q51 0 99 24q48 25 79 85v-262h-84v-45h136v45v601h88zM459 238q0 -91 -53 -149q-53 -56 -133 -56q-81 0 -132 57q-50 58 -50 147q0 88 53 147
q51 57 134 57q79 0 130 -56t51 -147z" />
    <glyph glyph-name="r" unicode="r" horiz-adv-x="396" 
d="M383 436v50l-19 1q-16 1 -34.5 -1t-37 -5.5t-35.5 -9.5t-30 -13q-17 -9 -32 -26t-22.5 -29t-8.5 -14v84h-142v-45h90v-383v-45h149v45h-97v212q0 93 49 136t151 43h19z" />
    <glyph glyph-name="s" unicode="s" horiz-adv-x="448" 
d="M409 127q0 57 -33 89q-32 31 -138 51q-75 14 -101 31q-26 18 -26 57q0 37 28 62q28 26 75 26q55 0 92 -34q37 -33 38 -85h44v135h-44v-37q-25 33 -58 49q-32 15 -73 15q-63 0 -106 -36t-43 -97q0 -62 39 -90q37 -28 123 -43q79 -13 108 -35q29 -20 29 -63q0 -41 -38 -70
q-38 -27 -90 -27q-68 0 -109 37t-42 102h-46v-164h46v60q27 -42 65 -59q36 -16 81 -16q81 0 131 39q48 37 48 103z" />
    <glyph glyph-name="t" unicode="t" horiz-adv-x="260" 
d="M238 0v45l-56 -9q-23 0 -33 12q-10 11 -10 40v340h99v45h-99v107l-52 -1v-106h-84v-45h84v-350q0 -45 21 -67t64 -22z" />
    <glyph glyph-name="u" unicode="u" horiz-adv-x="542" 
d="M534 0v45h-82v428h-52v-45v-303q-35 -35 -82 -60t-92 -25q-37 0 -58 21q-20 22 -20 59v353h-135v-45h83v-317q0 -56 33 -87q31 -31 88 -31q54 0 101 22q23 11 44 23.5t38 28.5v-67h134z" />
    <glyph glyph-name="v" unicode="v" horiz-adv-x="521" 
d="M524 428v45h-105l-17 -45l-136 -369l-137 369h65v45h-196v-45h78l167 -435h48l160 435h73z" />
    <glyph glyph-name="w" unicode="w" horiz-adv-x="750" 
d="M749 428v45h-104l-13 -45l-116 -346l-109 346h53v45h-179v-45h55l-113 -356l-109 356l-13 45h-98v-45h62l135 -435h51l119 415l123 -415h48l141 435h67z" />
    <glyph glyph-name="x" unicode="x" horiz-adv-x="531" 
d="M513 0v45h-59l-161 199l144 184h64v45h-174v-45h51l-115 -147l-117 147h56v45h-176v-45h61l147 -184l-152 -199l-35 -45h155v45h-62l123 163l133 -163h2l34 -45h81z" />
    <glyph glyph-name="y" unicode="y" horiz-adv-x="531" 
d="M530 428v45h-197v-45h75l-133 -352l-144 352l-17 45h-112v-45h78l170 -415l-80 -225h46l242 640h72z" />
    <glyph glyph-name="z" unicode="z" horiz-adv-x="479" 
d="M436 429v44h-367v-45h41h268l-333 -383v-45h390v173h-42v-128h-291z" />
    <glyph glyph-name="braceleft" unicode="{" horiz-adv-x="333" 
d="M285 -201v47q-47 0 -68 22q-21 21 -21 94v117q0 70 -26 110q-26 38 -67 50q42 12 67 51q26 38 26 109v117q0 72 21 95q21 21 68 21v47h-16q-72 0 -100 -39q-27 -39 -27 -95v-137q0 -64 -23 -104q-21 -38 -71 -38v-54q49 0 72 -39q22 -39 22 -103v-137q0 -57 28 -95
q27 -39 99 -39h16z" />
    <glyph glyph-name="bar" unicode="|" horiz-adv-x="496" 
d="M274 -224v903h-52v-903h52z" />
    <glyph glyph-name="braceright" unicode="}" horiz-adv-x="333" 
d="M285 212v54q-50 0 -72 39t-22 103v137q0 57 -28 95q-27 39 -99 39h-16v-47q47 0 68 -22q21 -21 21 -94v-117q0 -70 26 -110q26 -38 67 -50q-42 -12 -67 -51q-26 -38 -26 -109v-117q0 -73 -21 -95q-21 -21 -68 -21v-47h16q71 0 100 39q27 39 27 95v137q0 64 23 104
q21 38 71 38z" />
    <glyph glyph-name="asciitilde" unicode="~" horiz-adv-x="656" 
d="M590 339l-1 54q-20 -14 -38 -25.5t-34 -20.5q-32 -18 -69 -18q-41 0 -117 38q-77 37 -125 37q-49 0 -87 -23q-19 -11 -32 -20t-21 -16v-54q35 28 70 46q33 18 71 18q39 0 117 -38q75 -37 126 -37q48 0 86 23q19 11 32.5 20t21.5 16z" />
    <glyph glyph-name="quotesinglbase" unicode="&#x201a;" horiz-adv-x="250" 
d="M153 -14v107h-56v-93h25q0 -53 -7 -71q-6 -19 -27 -19v-36q33 2 49 30q16 26 16 82z" />
    <glyph glyph-name="florin" unicode="&#x192;" 
d="M538 712q-23 8 -43 12q-11 2 -22 3t-24 1q-52 0 -86 -29q-16 -14 -26.5 -34.5t-17.5 -46.5l-24 -99h-82l-9 -45h82l-124 -573q-6 -29 -25 -45q-18 -15 -51 -15q-20 0 -39 4q-11 2 -18.5 3.5t-12.5 3.5l-11 -49q8 -2 17.5 -5t20.5 -5q25 -5 43 -5q66 0 96 30t45 100
l121 556h108l10 45h-109l20 86q9 38 28 54q18 15 48 15q13 0 24.5 -1t21.5 -3q17 -3 29 -6z" />
    <glyph glyph-name="quotedblbase" unicode="&#x201e;" horiz-adv-x="479" 
d="M391 -14v107h-56v-93h25q0 -53 -7 -71q-6 -19 -27 -19v-36q33 2 49 30q16 26 16 82zM153 -14v107h-56v-93h25q0 -53 -7 -71q-6 -19 -27 -19v-36q33 2 49 30q16 26 16 82z" />
    <glyph glyph-name="ellipsis" unicode="&#x2026;" horiz-adv-x="1000" 
d="M866 0v64h-56v-64h56zM533 0v64h-56v-64h56zM200 0v64h-56v-64h56z" />
    <glyph glyph-name="dagger" unicode="&#x2020;" horiz-adv-x="469" 
d="M458 398v62q-45 -1 -72 -2.5t-36 -5.5q-15 -7 -102 -10q3 109 10 124q5 14 7 113h-58q0 -99 7 -114q5 -14 10 -123q-88 3 -103 10q-8 4 -35 5.5t-73 2.5v-62q93 0 108 7q8 4 34 6.5t69 4.5q0 -44 -3 -69q-2 -24 -15 -57q0 -85 6 -227q3 -72 6 -137t6 -126h24l18 490
q-7 17 -11 31t-5 27q-1 12 -1.5 29t-0.5 39q43 -2 68.5 -4.5t34.5 -6.5q15 -7 107 -7z" />
    <glyph glyph-name="daggerdbl" unicode="&#x2021;" horiz-adv-x="490" 
d="M468 4v62q-45 -1 -72 -2.5t-36 -5.5q-15 -7 -102 -10q1 26 1.5 49.5t2.5 45.5q3 45 27 97q-23 50 -27 95q-2 23 -3 46t-1 47q43 -2 68.5 -4.5t34.5 -6.5q15 -7 107 -7v62q-45 -1 -72 -2.5t-36 -5.5q-15 -7 -102 -10q4 88 11 104q5 17 5 121h-56q0 -106 6 -121
q2 -8 5 -33.5t5 -70.5q-88 3 -103 10q-8 4 -35 5.5t-73 2.5v-62q93 0 108 7q8 4 34 6.5t69 4.5q-1 -24 -2 -47.5t-3 -46.5t-8.5 -46t-17.5 -48q23 -54 26 -97q2 -22 3 -45.5t2 -49.5q-88 3 -103 10q-8 4 -35 5.5t-73 2.5v-62q93 0 108 7q8 4 34 6.5t69 4.5q-4 -91 -11 -106
q-5 -15 -5 -119h56q0 105 -6 119q-2 7 -5 33.5t-5 72.5q43 -2 68.5 -4.5t34.5 -6.5q15 -7 107 -7z" />
    <glyph glyph-name="circumflex" unicode="&#x2c6;" horiz-adv-x="333" 
d="M314 540l-119 145h-58l-118 -145h35l112 104l113 -104h35z" />
    <glyph glyph-name="perthousand" unicode="&#x2030;" horiz-adv-x="1000" 
d="M976 168q0 88 -34 135q-33 47 -101 47q-67 0 -101 -48q-34 -46 -34 -134q0 -89 34 -135q33 -47 101 -47q67 0 102 47q33 46 33 135zM637 168q0 88 -34 135q-33 47 -101 47q-67 0 -101 -48q-34 -46 -34 -134q0 -89 34 -135q33 -47 101 -47q67 0 102 47q33 46 33 135z
M588 679h-20h-14h-337q-25 11 -57 11q-66 0 -101 -47q-34 -46 -34 -134q0 -89 33 -135q33 -47 102 -47q67 0 102 47q33 46 33 135q0 88 -34 134q-10 14 -20 21h302l-467 -664h34zM936 168q0 -73 -23 -114q-22 -40 -71 -40q-47 0 -71 40q-23 41 -23 113t24 114q23 41 69 41
q48 0 72 -41q23 -41 23 -113zM597 168q0 -73 -23 -114q-22 -40 -71 -40q-47 0 -71 40q-23 41 -23 113t24 114q23 41 69 41q48 0 72 -41q23 -41 23 -113zM255 509q0 -74 -24 -114q-22 -40 -70 -40t-71 41t-23 112q0 72 24 113q23 41 69 41q48 0 72 -41q23 -41 23 -112z" />
    <glyph glyph-name="Scaron" unicode="&#x160;" horiz-adv-x="542" 
d="M420 801h-36l-113 -94l-112 94h-36l119 -132h58zM499 160q0 73 -51 116q-50 42 -187 72q-76 17 -120 43q-44 27 -44 79q0 44 41 76q39 30 102 30q37 0 69 -4.5t58 -22.5q13 -9 21.5 -22t14 -26t7.5 -24.5t2 -18.5v-12h54q0 2 -1 13.5t-4.5 29.5t-10.5 31q-7 14 -13.5 22
t-17.5 19q-18 17 -36 27t-41 19t-48 11.5t-51 2.5q-83 0 -141 -43q-58 -42 -58 -106q0 -69 50 -110q48 -39 155 -63q105 -22 150 -53q43 -30 43 -80q0 -57 -46 -94q-47 -36 -115 -36q-80 0 -136 46q-56 47 -56 106v22h-47v-211h48v81q31 -45 82 -67q54 -23 108 -23
q91 0 155 49q64 50 64 121z" />
    <glyph glyph-name="guilsinglleft" unicode="&#x2039;" horiz-adv-x="229" 
d="M224 0l-152 239l152 239h-55l-153 -239l153 -239h55z" />
    <glyph glyph-name="OE" unicode="&#x152;" horiz-adv-x="1052" 
d="M994 0v41h-47h-355v251h283v41h-283v237h355v-108h46v150h-586q-161 0 -260 -82q-98 -83 -98 -220q0 -74 25 -130t74 -98q98 -83 270 -83zM536 41h-116q-147 0 -230 68q-84 69 -84 192q0 131 82 200t235 69h113v-529z" />
    <glyph glyph-name="quoteleft" unicode="&#x2018;" horiz-adv-x="250" 
d="M162 643v36q-33 -2 -49 -30q-16 -26 -16 -82v-107h56v93h-25q0 53 7 71q6 19 27 19z" />
    <glyph glyph-name="quoteright" unicode="&#x2019;" horiz-adv-x="250" 
d="M153 572v107h-56v-93h25q0 -53 -7 -71q-6 -19 -27 -19v-36q33 2 49 30q16 29 16 82z" />
    <glyph glyph-name="quotedblleft" unicode="&#x201c;" horiz-adv-x="479" 
d="M389 643v36q-33 -2 -49 -30q-16 -26 -16 -82v-107h56v93h-25q0 53 7 71q6 19 27 19zM155 643v36q-33 -2 -49 -30q-16 -26 -16 -82v-107h56v93h-25q0 53 7 71q6 19 27 19z" />
    <glyph glyph-name="quotedblright" unicode="&#x201d;" horiz-adv-x="479" 
d="M389 572v107h-56v-93h25q0 -53 -7 -71q-6 -19 -27 -19v-36q33 2 49 30q16 26 16 82zM155 572v107h-56v-93h25q0 -53 -7 -71q-6 -19 -27 -19v-36q33 2 49 30q16 26 16 82z" />
    <glyph glyph-name="bullet" unicode="&#x2022;" horiz-adv-x="500" 
d="M330 304q0 33 -24 57q-23 23 -57 23q-33 0 -56 -23q-24 -24 -24 -57t24 -57t57 -24q32 0 56 24t24 57z" />
    <glyph glyph-name="endash" unicode="&#x2013;" horiz-adv-x="500" 
d="M500 224v53h-500v-53h500z" />
    <glyph glyph-name="emdash" unicode="&#x2014;" horiz-adv-x="1000" 
d="M1000 224v53h-1000v-53h1000z" />
    <glyph glyph-name="tilde" unicode="&#x2dc;" horiz-adv-x="333" 
d="M329 656h-28q-10 -27 -26 -38q-14 -10 -32 -10q-27 0 -71 25q-45 24 -79 24q-28 0 -50 -21q-23 -20 -38 -67h27q11 27 27 38q13 10 32 10q25 0 71 -25q45 -24 79 -24q27 0 50 21q23 20 38 67z" />
    <glyph glyph-name="trademark" unicode="&#x2122;" horiz-adv-x="938" 
d="M823 280v399h-75l-103 -323l-100 323h-76v-399h46v361l112 -361h34l118 361v-361h44zM424 636v43h-311v-43h134v-356h44v356h133z" />
    <glyph glyph-name="scaron" unicode="&#x161;" horiz-adv-x="448" 
d="M372 686h-35l-113 -104l-112 104h-35l118 -145h58zM409 127q0 57 -33 89q-32 31 -138 51q-75 14 -101 31q-26 18 -26 57q0 37 28 62q28 26 75 26q55 0 92 -34q37 -33 38 -85h44v135h-44v-37q-25 33 -58 49q-32 15 -73 15q-63 0 -106 -36t-43 -97q0 -62 39 -90
q37 -28 123 -43q79 -13 108 -35q29 -20 29 -63q0 -41 -38 -70q-38 -27 -90 -27q-68 0 -109 37t-42 102h-46v-164h46v60q27 -42 65 -59q36 -16 81 -16q81 0 131 39q48 37 48 103z" />
    <glyph glyph-name="guilsinglright" unicode="&#x203a;" horiz-adv-x="229" 
d="M213 239l-153 239h-55l152 -239l-152 -239h55z" />
    <glyph glyph-name="oe" unicode="&#x153;" horiz-adv-x="927" 
d="M893 225q-6 112 -66 187q-60 74 -157 74q-66 0 -122 -35q-54 -32 -85 -98q-22 61 -78 97q-54 36 -124 36q-95 0 -159 -72q-63 -72 -63 -178q0 -107 64 -178q63 -72 158 -72q69 0 123 33q54 32 79 92q17 -32 39.5 -55.5t48.5 -39.5q52 -30 122 -30q71 0 129 35l-24 38
q-46 -31 -102 -31q-82 0 -135 59q-49 54 -54 138h406zM838 270h-349q11 71 47 113q50 59 126 59q72 0 119 -48t57 -124zM437 236q0 -88 -49 -146q-48 -57 -123 -57q-76 0 -125 58q-48 57 -48 145t49 146q48 57 124 57q75 0 124 -58q48 -57 48 -145z" />
    <glyph glyph-name="Ydieresis" unicode="&#x178;" horiz-adv-x="604" 
d="M422 704v59h-66v-59h66zM248 704v59h-65v-59h65zM623 570v42h-225v-42h88l-176 -250l-176 251h-1l-28 41h-125v-42h89l208 -295v-234h-95v-42h152v41v235l207 295h82z" />
    <glyph glyph-name="exclamdown" unicode="&#xa1;" horiz-adv-x="250" 
d="M153 379v94h-56v-94h56zM151 -206v213l-12 286h-28l-12 -283v-216h52z" />
    <glyph glyph-name="cent" unicode="&#xa2;" horiz-adv-x="510" 
d="M480 128l-42 18q-21 -50 -62 -82q-40 -31 -100 -31q-26 0 -44 5l99 382q21 -10 40 -24q46 -34 49 -110h43v180h-43v-64q-24 37 -63 57l-14 7l52 203h-34l-50 -194q-16 4 -42 4q-98 0 -163 -71t-65 -176q0 -107 65 -177q30 -33 83 -55l-55 -212h34l52 203q23 -5 55 -5
q71 0 124 37q54 37 81 105zM299 429l-98 -382q-35 16 -57 41q-50 56 -50 144q0 90 49 145q48 55 126 55q16 0 30 -3z" />
    <glyph glyph-name="sterling" unicode="&#xa3;" horiz-adv-x="521" 
d="M503 141v9h-40q-2 -60 -19 -88q-18 -29 -57 -29q-32 0 -63 22q-16 11 -33.5 25.5t-37.5 32.5q2 11 4 21.5t4 20.5q1 9 1.5 19.5t0.5 22.5q0 31 -7 60q-6 32 -16 56h116v45h-131q-20 50 -36 97t-16 84q0 52 35 81q34 28 83 28q59 0 89 -35q29 -34 31 -87h49q-2 77 -46 120
q-44 44 -124 44q-79 0 -124 -45q-44 -44 -44 -109q0 -39 14 -83q7 -21 16 -45t22 -50h-120v-45h135q6 -14 12 -30t11 -35t7.5 -36.5t2.5 -34.5l-4 -37q-18 13 -36 20q-21 8 -42 8q-43 0 -71 -26q-26 -26 -26 -62q0 -39 25 -64t65 -25q29 0 57 19q27 17 50 63q41 -41 77 -61
q37 -21 70 -21q52 0 84 42q32 43 32 108zM209 100q-12 -31 -32 -53q-20 -20 -45 -20q-23 0 -38 15q-14 14 -14 35q0 27 20 41t41 14q18 0 33 -7q16 -7 35 -25z" />
    <glyph glyph-name="currency" unicode="&#xa4;" horiz-adv-x="750" 
d="M740 199l-47 25q-35 -88 -99 -138t-172 -50q-53 0 -98 14t-79.5 39.5t-58.5 60.5t-36 77h391v41h-401q-1 9 -1 18v20q0 12 0.5 24t2.5 23h399v41h-389q12 40 36 73.5t57.5 57.5t77 37.5t95.5 13.5q42 0 83 -10.5t75 -30.5t58.5 -50t32.5 -70h48v143h-48v-45
q-45 51 -109 79.5t-138 28.5q-64 0 -118 -16.5t-96 -46t-71 -71.5t-42 -93h-78v-41h69q-2 -11 -2 -23v-24v-20q0 -9 1 -18h-68v-41h75q12 -53 40 -97t70.5 -75t98 -48t122.5 -17q121 0 198.5 54.5t120.5 154.5z" />
    <glyph glyph-name="currency" unicode="&#x20ac;" horiz-adv-x="750" 
d="M740 199l-47 25q-35 -88 -99 -138t-172 -50q-53 0 -98 14t-79.5 39.5t-58.5 60.5t-36 77h391v41h-401q-1 9 -1 18v20q0 12 0.5 24t2.5 23h399v41h-389q12 40 36 73.5t57.5 57.5t77 37.5t95.5 13.5q42 0 83 -10.5t75 -30.5t58.5 -50t32.5 -70h48v143h-48v-45
q-45 51 -109 79.5t-138 28.5q-64 0 -118 -16.5t-96 -46t-71 -71.5t-42 -93h-78v-41h69q-2 -11 -2 -23v-24v-20q0 -9 1 -18h-68v-41h75q12 -53 40 -97t70.5 -75t98 -48t122.5 -17q121 0 198.5 54.5t120.5 154.5z" />
    <glyph glyph-name="yen" unicode="&#xa5;" 
d="M554 570v42h-227v-42h88l-56 -105h-85h-67l-53 105h89v42h-244v-42h89l54 -105h-143v-42h165l55 -107h-220v-41h242l7 -14v0v-220h-95v-42h249v42h-98v225l5 9h242v41h-219l58 107h161v42h-138l57 105h84zM336 423l-55 -102l-52 102h45h62z" />
    <glyph glyph-name="brokenbar" unicode="&#xa6;" horiz-adv-x="496" 
d="M274 315v364h-52v-364h52zM274 -224v363h-52v-363h52z" />
    <glyph glyph-name="section" unicode="&#xa7;" horiz-adv-x="438" 
d="M421 212q0 57 -34 94q-35 39 -106 70l-81 35q-61 27 -89 58q-27 31 -27 72q0 53 40 80t82 27q54 0 92 -30q39 -31 43 -95h47q-4 86 -59 127q-53 40 -118 40q-73 0 -125 -41q-50 -39 -50 -112q0 -36 16 -68q15 -32 51 -60q-43 -28 -65 -66q-22 -41 -22 -77q0 -57 34 -94
q35 -39 106 -70l81 -35q61 -27 89 -58q27 -32 27 -72q0 -53 -40 -80q-41 -27 -82 -27q-55 0 -92 30q-39 31 -43 95h-46q4 -87 58 -127q53 -40 118 -40q73 0 125 41q50 39 50 112q0 36 -16 68q-15 31 -51 60q43 28 65 66q22 41 22 77zM373 206q0 -37 -21 -68q-19 -29 -52 -48
l-143 64q-28 13 -46 26.5t-28 26.5q-19 25 -19 67q0 37 21 67q10 15 23 27t29 22l143 -65q28 -13 46 -26t28 -26q19 -25 19 -67z" />
    <glyph glyph-name="dieresis" unicode="&#xa8;" horiz-adv-x="333" 
d="M285 580v64h-64v-64h64zM112 580v64h-64v-64h64z" />
    <glyph glyph-name="copyright" unicode="&#xa9;" horiz-adv-x="802" 
d="M773 356q0 154 -109 263t-264 109q-154 0 -263 -109t-109 -264q0 -154 109 -263t264 -109q154 0 263 109t109 264zM726 355q0 -134 -96 -230q-95 -95 -230 -95q-134 0 -230 96q-95 95 -95 230q0 134 96 230q95 95 230 95q134 0 230 -96q95 -95 95 -230zM567 270l-44 16
q-13 -45 -46 -73q-32 -27 -74 -27q-66 0 -100 51q-34 49 -34 124q0 65 36 112q36 45 103 45q41 0 69 -25q27 -24 39 -56l47 14q-23 48 -61 78q-37 28 -93 28q-90 0 -141 -57q-51 -56 -51 -145q0 -96 54 -154q53 -59 134 -59q57 0 101 33q43 32 61 95z" />
    <glyph glyph-name="ordfeminine" unicode="&#xaa;" horiz-adv-x="333" 
d="M330 398v27h-51v184q0 41 -30 61q-29 20 -85 20q-50 0 -78 -18q-30 -19 -43 -47l26 -6q9 20 32 34t62 14q37 0 60 -14q22 -13 22 -44v-67q-26 14 -49 18q-12 2 -22.5 3.5t-20.5 1.5q-53 0 -84 -25q-31 -24 -31 -62q0 -34 27 -59q26 -25 69 -25q26 0 56 12q28 11 55 32
v-40h85zM245 465q-21 -21 -48 -34t-55 -13q-32 0 -51 18q-18 16 -18 39q0 28 23 48q22 19 63 19q25 0 46 -7t40 -18v-52z" />
    <glyph glyph-name="guillemotleft" unicode="&#xab;" horiz-adv-x="469" 
d="M451 0l-152 239l152 239h-55l-153 -239l153 -239h55zM238 0l-152 239l152 239h-55l-153 -239l153 -239h55z" />
    <glyph glyph-name="logicalnot" unicode="&#xac;" horiz-adv-x="1011" 
d="M1001 0v41h-74l-288 285l274 244h74v42h-94l-45 -41l-283 -250l283 -281l39 -41zM653 -1v42h-94v280v32l58 52l-22 20l-34 -32l-2 1v176h94v42h-241v-42h91v-124l-90 80q-28 24 -59 23q-31 0 -59 -25q-22 -19 -34 -52q-7 -17 -9 -31.5t-2 -27.5q-27 12 -51 8
q-24 -5 -45 -24q-11 -10 -20 -21.5t-14 -26.5q-6 -14 -8.5 -28t-3.5 -29l-30 26l-65 -58l22 -19l40 36l178 -161l21 -19l62 55l-22 20l-36 -33l-145 130q1 29 11 59q10 29 30 47q19 16 38 16q18 0 38 -17l166 -150l25 23l-166 148q2 34 10 61q10 28 31 47q18 15 37 15
q20 -2 38 -17l112 -101v-360v-41h150zM621 -133q0 29 -25 51q-23 21 -57 21t-56 -21q-25 -22 -25 -51q0 -30 25 -52q24 -22 57 -22q32 0 56 22q25 22 25 52z" />
    <glyph glyph-name="registered" unicode="&#xae;" horiz-adv-x="802" 
d="M773 356q0 154 -109 263t-264 109q-154 0 -263 -109t-109 -264q0 -154 109 -263t264 -109q154 0 263 109t109 264zM726 355q0 -134 -96 -230q-95 -95 -230 -95q-134 0 -230 96q-95 95 -95 230q0 134 96 230q95 95 230 95q134 0 230 -96q95 -95 95 -230zM564 155
q-19 42 -34 72.5t-27 50.5q-24 38 -73 54q60 4 90 36q29 32 29 75q0 41 -32 73q-31 31 -100 31h-167v-392h52v170h32q60 0 91 -28q31 -27 79 -142h60zM493 441q0 -35 -23 -55t-88 -20h-80v141h85q49 0 79 -14q27 -14 27 -52z" />
    <glyph glyph-name="macron" unicode="&#xaf;" horiz-adv-x="333" 
d="M327 600v29h-321v-29h321z" />
    <glyph glyph-name="degree" unicode="&#xb0;" horiz-adv-x="396" 
d="M339 549q0 58 -42 100q-41 41 -99 41t-100 -42q-41 -41 -41 -99t42 -100q41 -41 99 -41t100 42q41 41 41 99zM299 549q0 -42 -30 -72q-29 -29 -71 -29t-72 30q-29 29 -29 71t30 72q29 29 71 29t72 -30q29 -29 29 -71z" />
    <glyph glyph-name="plusminus" unicode="&#xb1;" horiz-adv-x="667" 
d="M595 377v44h-240v241h-44v-241h-240v-44h240v-241h44v241h240zM595 0v44h-524v-44h524z" />
    <glyph glyph-name="twosuperior" unicode="&#xb2;" horiz-adv-x="323" 
d="M276 442h-27l-3 -87h-189q5 38 35 73q30 34 98 69q42 22 63 46q18 22 18 56q0 42 -31 67q-33 25 -83 25q-57 0 -89 -31q-33 -30 -33 -80v-8h29v6q0 40 24 66q22 25 70 25q35 0 58 -20t23 -50q0 -31 -19 -50t-56 -38q-78 -39 -110 -89q-30 -48 -30 -83l1 -7h247z" />
    <glyph glyph-name="threesuperior" unicode="&#xb3;" horiz-adv-x="323" 
d="M295 430q0 39 -25 61q-27 22 -68 28q36 12 53 32q16 21 16 48q0 41 -31 66q-32 26 -79 26q-50 0 -79 -25q-31 -26 -32 -70h30q2 36 23 55q21 18 56 18t58 -20q22 -19 22 -49q0 -33 -26 -53t-65 -20l-11 1v-24l27 2q23 2 41 -4t32 -17q27 -20 27 -55t-29 -58t-72 -23
q-45 0 -74 25q-30 27 -34 67h-29q3 -51 42 -83q37 -31 94 -31q58 0 96 29q37 28 37 74z" />
    <glyph glyph-name="acute" unicode="&#xb4;" horiz-adv-x="333" 
d="M250 691h-57l-100 -155h38z" />
    <glyph glyph-name="mu" unicode="&#xb5;" 
d="M537 0v45h-82v428h-134v-45h82v-303q-35 -35 -82 -60q-46 -25 -89 -25q-38 0 -57 21q-19 20 -19 59v353h-135v-45h83v-640h49v240q11 -14 32 -25q19 -10 47 -10q50 0 94 22q47 22 77 52v-67h134z" />
    <glyph glyph-name="paragraph" unicode="&#xb6;" horiz-adv-x="646" 
d="M618 612v67h-339q-105 0 -169 -57q-63 -56 -63 -151q0 -86 60 -146q59 -59 159 -59v-478h64v824h130v-824h64v824h94z" />
    <glyph glyph-name="periodcentered" unicode="&#xb7;" horiz-adv-x="292" 
d="M158 287v64h-56v-64h56z" />
    <glyph glyph-name="periodcentered" unicode="&#x2219;" horiz-adv-x="292" 
d="M158 287v64h-56v-64h56z" />
    <glyph glyph-name="cedilla" unicode="&#xb8;" horiz-adv-x="333" 
d="M239 -118q0 33 -21 54q-20 21 -52 21l7 36h-32l-14 -73q28 0 45 -12t17 -33q0 -29 -25 -42q-13 -7 -29.5 -11t-36.5 -3l-26 1v-32h14q72 0 113 23q40 22 40 71z" />
    <glyph glyph-name="onesuperior" unicode="&#xb9;" horiz-adv-x="323" 
d="M238 332v23h-59v330h-92v-23h59v-307h-60v-23h152z" />
    <glyph glyph-name="ordmasculine" unicode="&#xba;" horiz-adv-x="354" 
d="M331 540q0 63 -44 107q-43 43 -109 43t-110 -44q-43 -43 -43 -106t44 -107q43 -43 109 -43q67 0 110 43t43 107zM297 540q0 -54 -34 -88q-33 -34 -85 -34q-51 0 -86 35q-33 34 -33 87t34 87q33 34 85 34q51 0 86 -35q33 -35 33 -86z" />
    <glyph glyph-name="guillemotright" unicode="&#xbb;" horiz-adv-x="469" 
d="M440 239l-153 239h-55l152 -239l-152 -239h55zM227 239l-153 239h-55l152 -239l-152 -239h55z" />
    <glyph glyph-name="onequarter" unicode="&#xbc;" horiz-adv-x="844" 
d="M710 103v21h-68v232h-28l-178 -232q4 -3 10 -9q3 -5 6 -12h162v-80h-47v-23h112v23h-37v80h68zM639 679h-35l-479 -679h35zM239 332v23h-59v330h-92v-23h59v-307h-60v-23h152zM614 124h-149l149 199v-199z" />
    <glyph glyph-name="onehalf" unicode="&#xbd;" horiz-adv-x="844" 
d="M750 110h-27l-3 -87h-189q5 38 35 73q30 34 98 69q42 22 63 46q18 22 18 56q0 42 -31 67q-33 25 -83 25q-57 0 -89 -31q-33 -30 -33 -80v-8h29v6q0 40 24 66q22 25 70 25q35 0 58 -20t23 -50q0 -31 -19 -50t-56 -38q-78 -39 -110 -89q-30 -48 -30 -83l1 -7h247zM638 679
h-35l-479 -679h35zM238 332v23h-59v330h-92v-23h59v-307h-60v-23h152z" />
    <glyph glyph-name="threequarters" unicode="&#xbe;" horiz-adv-x="844" 
d="M783 103v21h-68v232h-28l-178 -232q4 -3 10 -9q3 -5 6 -12h162v-80h-47v-23h112v23h-37v80h68zM713 679h-35l-479 -679h35zM332 430q0 39 -25 61q-27 22 -68 28q36 12 53 32q16 21 16 48q0 41 -31 66q-32 26 -79 26q-50 0 -79 -25q-31 -26 -32 -70h30q2 36 23 55
q21 18 56 18t58 -20q22 -19 22 -49q0 -33 -26 -53t-65 -20l-11 1v-24l27 2q23 2 41 -4t32 -17q27 -20 27 -55t-29 -58t-72 -23q-45 0 -74 25q-30 27 -34 67h-29q3 -51 42 -83q37 -31 94 -31q58 0 96 29q37 28 37 74zM687 124h-149l149 199v-199z" />
    <glyph glyph-name="questiondown" unicode="&#xbf;" horiz-adv-x="448" 
d="M277 380v94h-56v-94h56zM418 -31h-47q0 -65 -39 -102q-38 -38 -98 -38q-62 0 -103 41q-39 40 -39 97q0 76 49 107q37 24 90 24q18 0 38 -3l8 3l-18 192h-24l-12 -145h-11q-78 0 -125 -53q-45 -53 -45 -124q0 -68 50 -127q48 -57 137 -57q91 0 140 55t49 130z" />
    <glyph glyph-name="Agrave" unicode="&#xc0;" horiz-adv-x="656" 
d="M403 665l-101 140h-58l120 -140h39zM681 -1v42h-85l-206 529h85v42h-193l-15 -41l-204 -530h-87v-42h144v42h-1l72 191h274l74 -191h-85v-42h227zM449 273h-241l121 318z" />
    <glyph glyph-name="Aacute" unicode="&#xc1;" horiz-adv-x="656" 
d="M413 805h-58l-101 -140h39zM681 -1v42h-85l-206 529h85v42h-193l-15 -41l-204 -530h-87v-42h144v42h-1l72 191h274l74 -191h-85v-42h227zM449 273h-241l121 318z" />
    <glyph glyph-name="Acircumflex" unicode="&#xc2;" horiz-adv-x="656" 
d="M477 668l-120 132h-58l-119 -132h36l112 94l113 -94h36zM681 -1v42h-85l-206 529h85v42h-193l-15 -41l-204 -530h-87v-42h144v42h-1l72 191h274l74 -191h-85v-42h227zM449 273h-241l121 318z" />
    <glyph glyph-name="Atilde" unicode="&#xc3;" horiz-adv-x="656" 
d="M492 774h-29q-5 -14 -11.5 -22t-14.5 -13q-15 -9 -32 -9q-25 0 -71 23q-23 11 -42.5 16t-36.5 5q-28 0 -50 -19q-23 -18 -39 -61h28q9 20 22.5 31.5t36.5 11.5q26 0 71 -22q44 -22 79 -22q26 0 50 19q22 18 39 62zM681 -1v42h-85l-206 529h85v42h-193l-15 -41l-204 -530
h-87v-42h144v42h-1l72 191h274l74 -191h-85v-42h227zM449 273h-241l121 318z" />
    <glyph glyph-name="Adieresis" unicode="&#xc4;" horiz-adv-x="656" 
d="M448 704v59h-66v-59h66zM274 704v59h-65v-59h65zM681 -1v42h-85l-206 529h85v42h-193l-15 -41l-204 -530h-87v-42h144v42h-1l72 191h274l74 -191h-85v-42h227zM449 273h-241l121 318z" />
    <glyph glyph-name="Aring" unicode="&#xc5;" horiz-adv-x="656" 
d="M421 733q0 34 -28 59q-26 25 -65 25t-65 -25q-27 -24 -27 -59q0 -33 28 -58q27 -25 64 -25q39 0 65 25q28 25 28 58zM681 -1v42h-85l-206 529h85v42h-193l-15 -41l-204 -530h-87v-42h144v42h-1l72 191h274l74 -191h-85v-42h227zM389 733q0 -23 -17 -39q-19 -16 -44 -16
q-27 0 -44 16q-17 17 -17 39t18 40q19 16 43 16q25 0 44 -16q18 -17 18 -40h-1zM449 273h-241l121 318z" />
    <glyph glyph-name="AE" unicode="&#xc6;" horiz-adv-x="938" 
d="M894 0v151h-48v-110h-356v251h285v41h-285v237h357h46v42h-671v-42h112q-29 -48 -66 -108.5t-75.5 -124t-75 -124.5t-65.5 -108.5t-46.5 -76.5l-17.5 -29h159v42h-79l155 252h211v-252h-114v-42zM434 334h-187l144 236h43v-236z" />
    <glyph glyph-name="Ccedilla" unicode="&#xc7;" horiz-adv-x="750" 
d="M720 199l-47 25q-40 -100 -109 -145q-67 -43 -162 -43q-125 0 -204 76q-80 77 -80 194q0 119 79 195q78 75 201 75q87 0 160 -43q73 -42 89 -118h48v143h-48v-45q-48 57 -115 82q-69 26 -132 26q-150 0 -244 -88q-95 -87 -95 -227t95 -229q77 -71 199 -85l-14 -64
q29 0 46 -11t17 -29q0 -26 -25 -38q-28 -13 -66 -12l-27 1v-30h15q71 0 113 20q41 21 41 65q0 29 -22 49q-21 19 -51 19l5 29h14q106 0 189 48q82 49 130 160z" />
    <glyph glyph-name="Egrave" unicode="&#xc8;" horiz-adv-x="604" 
d="M377 665l-101 140h-58l120 -140h39zM560 -1v42h-47h-355v251h283v41h-283v237h355v-108h46v150h-545v-42h88v-530v-41h458z" />
    <glyph glyph-name="Eacute" unicode="&#xc9;" horiz-adv-x="604" 
d="M387 805h-58l-101 -140h39zM560 -1v42h-47h-355v251h283v41h-283v237h355v-108h46v150h-545v-42h88v-530v-41h458z" />
    <glyph glyph-name="Ecircumflex" unicode="&#xca;" horiz-adv-x="604" 
d="M451 668l-120 132h-58l-119 -132h36l112 94l113 -94h36zM560 -1v42h-47h-355v251h283v41h-283v237h355v-108h46v150h-545v-42h88v-530v-41h458z" />
    <glyph glyph-name="Edieresis" unicode="&#xcb;" horiz-adv-x="604" 
d="M422 704v59h-66v-59h66zM248 704v59h-65v-59h65zM560 -1v42h-47h-355v251h283v41h-283v237h355v-108h46v150h-545v-42h88v-530v-41h458z" />
    <glyph glyph-name="Igrave" unicode="&#xcc;" horiz-adv-x="281" 
d="M215 665l-101 140h-58l77 -90h-23v-59h58v19l8 -10h39zM255 -1v42h-87v530v41h-57v-41v-530h-85v-42h229z" />
    <glyph glyph-name="Iacute" unicode="&#xcd;" horiz-adv-x="281" 
d="M225 805h-58l-101 -140h39l6 6v-15h57v59h-20zM255 -1v42h-87v530v41h-57v-41v-530h-85v-42h229z" />
    <glyph glyph-name="Icircumflex" unicode="&#xce;" horiz-adv-x="281" 
d="M289 668l-120 132h-58l-119 -132h36l112 94l113 -94h36zM167 656v59h-57v-59h57zM255 -1v42h-87v530v41h-57v-41v-530h-85v-42h229z" />
    <glyph glyph-name="Idieresis" unicode="&#xcf;" horiz-adv-x="281" 
d="M260 704v59h-66v-59h66zM167 656v59h-57v-59h57zM86 704v59h-65v-59h65zM255 -1v42h-87v530v41h-57v-41v-530h-85v-42h229z" />
    <glyph glyph-name="Eth" unicode="&#xd0;" horiz-adv-x="708" 
d="M662 305q0 135 -90 222q-88 85 -273 85h-292v-40l95 2v-247h-94v-41h94v-246v-41h196q203 0 283 92q81 93 81 214zM604 305q0 -132 -75 -198q-77 -66 -223 -66h-148v245h210v41h-210v243h146q143 0 223 -69q78 -69 78 -196h-1z" />
    <glyph glyph-name="Ntilde" unicode="&#xd1;" horiz-adv-x="708" 
d="M518 774h-29q-5 -14 -11.5 -22t-14.5 -13q-15 -9 -32 -9q-25 0 -71 23q-23 11 -42.5 16t-36.5 5q-28 0 -50 -19q-23 -18 -39 -61h28q9 20 22.5 31.5t36.5 11.5q26 0 71 -22q44 -22 79 -22q26 0 50 19q22 18 39 62zM699 570v42h-137v-41v-503q-48 70 -97 138t-99 134
q-49 66 -98 133.5t-98 138.5h-161v-42h92v-530v-41h144v42h-97v514l409 -564h54v579h88z" />
    <glyph glyph-name="Ograve" unicode="&#xd2;" horiz-adv-x="781" 
d="M465 665l-101 140h-58l120 -140h39zM735 306q0 137 -98 226q-96 89 -245 89t-245 -90q-98 -89 -98 -225q0 -137 98 -226q97 -90 245 -90t245 91q98 89 98 225zM677 306q0 -117 -80 -194q-80 -76 -205 -76q-123 0 -205 77q-81 76 -81 193t81 194q80 76 205 76
q126 0 206 -77t80 -193h-1z" />
    <glyph glyph-name="Oacute" unicode="&#xd3;" horiz-adv-x="781" 
d="M475 805h-58l-101 -140h39zM735 306q0 137 -98 226q-96 89 -245 89t-245 -90q-98 -89 -98 -225q0 -137 98 -226q97 -90 245 -90t245 91q98 89 98 225zM677 306q0 -117 -80 -194q-80 -76 -205 -76q-123 0 -205 77q-81 76 -81 193t81 194q80 76 205 76q126 0 206 -77
t80 -193h-1z" />
    <glyph glyph-name="Ocircumflex" unicode="&#xd4;" horiz-adv-x="781" 
d="M539 668l-120 132h-58l-119 -132h36l112 94l113 -94h36zM735 306q0 137 -98 226q-96 89 -245 89t-245 -90q-98 -89 -98 -225q0 -137 98 -226q97 -90 245 -90t245 91q98 89 98 225zM677 306q0 -117 -80 -194q-80 -76 -205 -76q-123 0 -205 77q-81 76 -81 193t81 194
q80 76 205 76q126 0 206 -77t80 -193h-1z" />
    <glyph glyph-name="Otilde" unicode="&#xd5;" horiz-adv-x="781" 
d="M554 774h-29q-5 -14 -11.5 -22t-14.5 -13q-15 -9 -32 -9q-25 0 -71 23q-23 11 -42.5 16t-36.5 5q-28 0 -50 -19q-23 -18 -39 -61h28q9 20 22.5 31.5t36.5 11.5q26 0 71 -22q44 -22 79 -22q26 0 50 19q22 18 39 62zM735 306q0 137 -98 226q-96 89 -245 89t-245 -90
q-98 -89 -98 -225q0 -137 98 -226q97 -90 245 -90t245 91q98 89 98 225zM677 306q0 -117 -80 -194q-80 -76 -205 -76q-123 0 -205 77q-81 76 -81 193t81 194q80 76 205 76q126 0 206 -77t80 -193h-1z" />
    <glyph glyph-name="Odieresis" unicode="&#xd6;" horiz-adv-x="781" 
d="M510 704v59h-66v-59h66zM336 704v59h-65v-59h65zM735 306q0 137 -98 226q-96 89 -245 89t-245 -90q-98 -89 -98 -225q0 -137 98 -226q97 -90 245 -90t245 91q98 89 98 225zM677 306q0 -117 -80 -194q-80 -76 -205 -76q-123 0 -205 77q-81 76 -81 193t81 194q80 76 205 76
q126 0 206 -77t80 -193h-1z" />
    <glyph glyph-name="multiply" unicode="&#xd7;" horiz-adv-x="668" 
d="M573 114l-206 206l206 206l-33 33l-206 -206l-206 206l-33 -33l206 -206l-206 -206l33 -33l206 206l206 -206z" />
    <glyph glyph-name="Oslash" unicode="&#xd8;" horiz-adv-x="781" 
d="M735 306q0 138 -98 225v1l63 64l-27 21l-62 -64q-86 68 -219 68q-149 0 -245 -90q-98 -89 -98 -225q0 -68 23.5 -124.5t74.5 -102.5l-62 -64l27 -21l62 63q87 -67 218 -67q148 0 245 91q98 89 98 225zM677 306q0 -117 -80 -194q-80 -76 -205 -76q-110 0 -183 58l392 401
q77 -75 77 -189h-1zM575 517l-392 -401q-77 75 -77 190q0 117 81 194q80 76 205 76q112 0 183 -59z" />
    <glyph glyph-name="Ugrave" unicode="&#xd9;" horiz-adv-x="646" 
d="M398 665l-101 140h-58l120 -140h39zM643 570v42h-145v-41v-396q0 -70 -44 -104q-44 -35 -132 -35q-84 0 -130 36q-46 37 -46 105v393h87v42h-231v-42h88v-387q0 -93 61 -144q61 -49 172 -49t172 50q30 26 45.5 60.5t15.5 82.5v387h87z" />
    <glyph glyph-name="Uacute" unicode="&#xda;" horiz-adv-x="646" 
d="M408 805h-58l-101 -140h39zM643 570v42h-145v-41v-396q0 -70 -44 -104q-44 -35 -132 -35q-84 0 -130 36q-46 37 -46 105v393h87v42h-231v-42h88v-387q0 -93 61 -144q61 -49 172 -49t172 50q30 26 45.5 60.5t15.5 82.5v387h87z" />
    <glyph glyph-name="Ucircumflex" unicode="&#xdb;" horiz-adv-x="646" 
d="M472 668l-120 132h-58l-119 -132h36l112 94l113 -94h36zM643 570v42h-145v-41v-396q0 -70 -44 -104q-44 -35 -132 -35q-84 0 -130 36q-46 37 -46 105v393h87v42h-231v-42h88v-387q0 -93 61 -144q61 -49 172 -49t172 50q30 26 45.5 60.5t15.5 82.5v387h87z" />
    <glyph glyph-name="Udieresis" unicode="&#xdc;" horiz-adv-x="646" 
d="M443 659v59h-66v-59h66zM269 659v59h-65v-59h65zM643 570v42h-145v-41v-396q0 -70 -44 -104q-44 -35 -132 -35q-84 0 -130 36q-46 37 -46 105v393h87v42h-231v-42h88v-387q0 -93 61 -144q61 -49 172 -49t172 50q30 26 45.5 60.5t15.5 82.5v387h87z" />
    <glyph glyph-name="Yacute" unicode="&#xdd;" horiz-adv-x="604" 
d="M387 805h-58l-101 -140h39zM623 570v42h-225v-42h88l-176 -250l-176 251h-1l-28 41h-125v-42h89l208 -295v-234h-95v-42h152v41v235l207 295h82z" />
    <glyph glyph-name="Thorn" unicode="&#xde;" 
d="M534 305q0 86 -63 134q-61 47 -171 47h-138v84h92v42h-239v-42h91v-529h-91v-42h148v41v85h154q97 0 157 49q60 51 60 131zM476 300q0 -66 -46 -100q-47 -33 -133 -33h-135v277h135q92 0 137 -34q43 -33 43 -110h-1z" />
    <glyph glyph-name="germandbls" unicode="&#xdf;" horiz-adv-x="615" 
d="M573 200q0 83 -44 133q-42 49 -113 63q54 16 75 53q20 37 20 74q0 76 -55 122q-56 45 -148 45t-150 -47q-57 -47 -57 -149v-449h-85v-45h137v45v461q0 73 42 108q41 34 112 34q60 0 107 -30q46 -30 46 -91q0 -56 -35 -86q-35 -29 -89 -29h-10v-40q95 0 146 -45
q51 -44 51 -128q0 -65 -38 -115q-36 -49 -101 -49q-21 0 -34 3q-14 1 -24 6v-44l55 -7q91 0 142 61q50 61 50 146z" />
    <glyph glyph-name="agrave" unicode="&#xe0;" horiz-adv-x="510" 
d="M329 536l-100 155h-57l119 -155h38zM500 0v45h-79v307q0 68 -45 101t-131 33q-19 0 -40.5 -4.5t-39.5 -10.5t-29.5 -10.5l-11.5 -4.5l13 -31l11 3.5t27 8t34.5 8.5t33.5 4q57 0 92 -23q34 -22 34 -74v-112q-38 21 -75 30q-38 9 -66 9q-80 0 -129 -42q-48 -41 -48 -104
q0 -57 42 -99q41 -41 105 -41q39 0 87 20q45 19 84 54v-67h131zM369 111q-29 -33 -74 -56q-43 -22 -85 -22q-49 0 -78 29q-28 28 -28 67q0 47 35 79t98 32q35 0 70 -12q32 -11 62 -30v-87z" />
    <glyph glyph-name="aacute" unicode="&#xe1;" horiz-adv-x="510" 
d="M339 691h-57l-100 -155h38zM500 0v45h-79v307q0 68 -45 101t-131 33q-19 0 -40.5 -4.5t-39.5 -10.5t-29.5 -10.5l-11.5 -4.5l13 -31l11 3.5t27 8t34.5 8.5t33.5 4q57 0 92 -23q34 -22 34 -74v-112q-38 21 -75 30q-38 9 -66 9q-80 0 -129 -42q-48 -41 -48 -104
q0 -57 42 -99q41 -41 105 -41q39 0 87 20q45 19 84 54v-67h131zM369 111q-29 -33 -74 -56q-43 -22 -85 -22q-49 0 -78 29q-28 28 -28 67q0 47 35 79t98 32q35 0 70 -12q32 -11 62 -30v-87z" />
    <glyph glyph-name="acircumflex" unicode="&#xe2;" horiz-adv-x="510" 
d="M403 540l-119 145h-58l-118 -145h35l112 104l113 -104h35zM500 0v45h-79v307q0 68 -45 101t-131 33q-19 0 -40.5 -4.5t-39.5 -10.5t-29.5 -10.5l-11.5 -4.5l13 -31l11 3.5t27 8t34.5 8.5t33.5 4q57 0 92 -23q34 -22 34 -74v-112q-38 21 -75 30q-38 9 -66 9
q-80 0 -129 -42q-48 -41 -48 -104q0 -57 42 -99q41 -41 105 -41q39 0 87 20q45 19 84 54v-67h131zM369 111q-29 -33 -74 -56q-43 -22 -85 -22q-49 0 -78 29q-28 28 -28 67q0 47 35 79t98 32q35 0 70 -12q32 -11 62 -30v-87z" />
    <glyph glyph-name="atilde" unicode="&#xe3;" horiz-adv-x="510" 
d="M418 656h-28q-10 -27 -26 -38q-14 -10 -32 -10q-27 0 -71 25q-45 24 -79 24q-28 0 -50 -21q-23 -20 -38 -67h27q11 27 27 38q13 10 32 10q25 0 71 -25q45 -24 79 -24q27 0 50 21q23 20 38 67zM500 0v45h-79v307q0 68 -45 101t-131 33q-19 0 -40.5 -4.5t-39.5 -10.5
t-29.5 -10.5l-11.5 -4.5l13 -31l11 3.5t27 8t34.5 8.5t33.5 4q57 0 92 -23q34 -22 34 -74v-112q-38 21 -75 30q-38 9 -66 9q-80 0 -129 -42q-48 -41 -48 -104q0 -57 42 -99q41 -41 105 -41q39 0 87 20q45 19 84 54v-67h131zM369 111q-29 -33 -74 -56q-43 -22 -85 -22
q-49 0 -78 29q-28 28 -28 67q0 47 35 79t98 32q35 0 70 -12q32 -11 62 -30v-87z" />
    <glyph glyph-name="adieresis" unicode="&#xe4;" horiz-adv-x="510" 
d="M374 580v64h-64v-64h64zM201 580v64h-64v-64h64zM500 0v45h-79v307q0 68 -45 101t-131 33q-19 0 -40.5 -4.5t-39.5 -10.5t-29.5 -10.5l-11.5 -4.5l13 -31l11 3.5t27 8t34.5 8.5t33.5 4q57 0 92 -23q34 -22 34 -74v-112q-38 21 -75 30q-38 9 -66 9q-80 0 -129 -42
q-48 -41 -48 -104q0 -57 42 -99q41 -41 105 -41q39 0 87 20q45 19 84 54v-67h131zM369 111q-29 -33 -74 -56q-43 -22 -85 -22q-49 0 -78 29q-28 28 -28 67q0 47 35 79t98 32q35 0 70 -12q32 -11 62 -30v-87z" />
    <glyph glyph-name="aring" unicode="&#xe5;" horiz-adv-x="510" 
d="M347 612q0 38 -27 65t-65 27t-65 -27q-26 -28 -26 -65q0 -38 27 -65q25 -27 64 -27q38 0 65 27t27 65zM500 0v45h-79v307q0 68 -45 101t-131 33q-19 0 -40.5 -4.5t-39.5 -10.5t-29.5 -10.5l-11.5 -4.5l13 -31l11 3.5t27 8t34.5 8.5t33.5 4q57 0 92 -23q34 -22 34 -74
v-112q-38 21 -75 30q-38 9 -66 9q-80 0 -129 -42q-48 -41 -48 -104q0 -57 42 -99q41 -41 105 -41q39 0 87 20q45 19 84 54v-67h131zM317 612q0 -26 -18 -44t-44 -18t-44 18q-17 19 -17 44q0 26 18 44q16 18 43 18q26 0 44 -18t18 -44zM369 111q-29 -33 -74 -56
q-43 -22 -85 -22q-49 0 -78 29q-28 28 -28 67q0 47 35 79t98 32q35 0 70 -12q32 -11 62 -30v-87z" />
    <glyph glyph-name="ae" unicode="&#xe6;" horiz-adv-x="865" 
d="M830 225q-6 113 -67 187q-60 74 -158 74q-60 0 -108 -27q-48 -26 -84 -81q-12 54 -54 81t-114 27q-76 0 -119 -30l24 -31q33 24 93 24q56 0 91 -23q33 -21 33 -74v-112q-37 21 -74 30q-36 9 -65 9q-78 0 -126 -42q-48 -41 -48 -104q0 -57 44 -99q44 -41 111 -41
q69 0 118 31q48 31 82 70q38 -57 90 -83q50 -25 109 -25q18 0 40.5 5.5t43 12t34 12l13.5 5.5l-26 38l-11 -5t-27 -10.5t-34 -10.5t-32 -5q-85 0 -140 59q-50 55 -55 138h416zM772 270h-356q11 70 48 113q51 59 130 59q76 0 123 -48q48 -49 55 -124zM367 111
q-28 -33 -73 -56q-46 -22 -84 -22q-47 0 -76 29q-27 28 -27 67q0 47 35 79t96 32q35 0 68 -12q32 -12 61 -30v-87z" />
    <glyph glyph-name="ccedilla" unicode="&#xe7;" horiz-adv-x="510" 
d="M480 128l-42 18q-21 -50 -62 -82q-40 -31 -100 -31q-82 0 -132 56t-50 147t49 147q48 56 126 56q56 0 103 -36q45 -34 48 -110h43v150h-43v-34q-24 37 -63 57q-38 20 -88 20q-99 0 -163 -72q-65 -73 -65 -178q0 -109 65 -180q52 -55 125 -67l-13 -69q28 0 45 -12t17 -33
q0 -29 -25 -42q-13 -7 -29.5 -11t-36.5 -3l-26 1v-32h14q72 0 113 23q40 22 40 71q0 33 -21 54q-20 21 -52 21l6 29h12q71 0 124 37q54 37 81 105z" />
    <glyph glyph-name="egrave" unicode="&#xe8;" 
d="M350 536l-100 155h-57l119 -155h38zM518 225q-6 124 -70 192q-65 69 -167 69q-105 0 -173 -71t-68 -179q0 -109 69 -179q69 -71 175 -71q19 0 43 5.5t45 12t35.5 12l14.5 5.5l-12 38l-13 -5t-31 -10.5t-38.5 -10.5t-35.5 -5q-88 0 -144 59q-52 54 -57 138h427zM463 270
h-370q11 71 50 113q53 59 134 59q77 0 127 -48q49 -49 59 -124z" />
    <glyph glyph-name="eacute" unicode="&#xe9;" 
d="M360 691h-57l-100 -155h38zM518 225q-6 124 -70 192q-65 69 -167 69q-105 0 -173 -71t-68 -179q0 -109 69 -179q69 -71 175 -71q19 0 43 5.5t45 12t35.5 12l14.5 5.5l-12 38l-13 -5t-31 -10.5t-38.5 -10.5t-35.5 -5q-88 0 -144 59q-52 54 -57 138h427zM463 270h-370
q11 71 50 113q53 59 134 59q77 0 127 -48q49 -49 59 -124z" />
    <glyph glyph-name="ecircumflex" unicode="&#xea;" 
d="M424 540l-119 145h-58l-118 -145h35l112 104l113 -104h35zM518 225q-6 124 -70 192q-65 69 -167 69q-105 0 -173 -71t-68 -179q0 -109 69 -179q69 -71 175 -71q19 0 43 5.5t45 12t35.5 12l14.5 5.5l-12 38l-13 -5t-31 -10.5t-38.5 -10.5t-35.5 -5q-88 0 -144 59
q-52 54 -57 138h427zM463 270h-370q11 71 50 113q53 59 134 59q77 0 127 -48q49 -49 59 -124z" />
    <glyph glyph-name="edieresis" unicode="&#xeb;" 
d="M395 580v64h-64v-64h64zM222 580v64h-64v-64h64zM518 225q-6 124 -70 192q-65 69 -167 69q-105 0 -173 -71t-68 -179q0 -109 69 -179q69 -71 175 -71q19 0 43 5.5t45 12t35.5 12l14.5 5.5l-12 38l-13 -5t-31 -10.5t-38.5 -10.5t-35.5 -5q-88 0 -144 59q-52 54 -57 138
h427zM463 270h-370q11 71 50 113q53 59 134 59q77 0 127 -48q49 -49 59 -124z" />
    <glyph glyph-name="igrave" unicode="&#xec;" horiz-adv-x="250" 
d="M199 536l-100 155h-57l119 -155h38zM241 0v45h-81v428h-135v-45h83v-383h-83v-45h216z" />
    <glyph glyph-name="iacute" unicode="&#xed;" horiz-adv-x="250" 
d="M209 691h-57l-100 -155h38zM241 0v45h-81v428h-135v-45h83v-383h-83v-45h216z" />
    <glyph glyph-name="icircumflex" unicode="&#xee;" horiz-adv-x="250" 
d="M273 540l-119 145h-58l-118 -145h35l112 104l113 -104h35zM241 0v45h-81v428h-135v-45h83v-383h-83v-45h216z" />
    <glyph glyph-name="idieresis" unicode="&#xef;" horiz-adv-x="250" 
d="M244 580v64h-64v-64h64zM71 580v64h-64v-64h64zM241 0v45h-81v428h-135v-45h83v-383h-83v-45h216z" />
    <glyph glyph-name="eth" unicode="&#xf0;" horiz-adv-x="563" 
d="M518 285q0 133 -77 242q-13 19 -31.5 38.5t-42.5 41.5l126 60l-37 26l-124 -59q-41 31 -109 59l-54 -27q76 -34 110 -57l-131 -62l37 -26l131 62q17 -14 29.5 -25.5t20.5 -19.5q61 -68 78 -129q-34 39 -76 58q-39 19 -86 19q-102 0 -169 -73t-67 -180q0 -106 68 -177
t171 -71q107 0 170 83q63 82 63 217zM464 246q0 -92 -52 -153t-131 -61q-78 0 -130 58t-52 143q0 89 51 148q49 58 132 58q78 0 131 -56q51 -56 51 -137z" />
    <glyph glyph-name="ntilde" unicode="&#xf1;" horiz-adv-x="531" 
d="M428 656h-28q-10 -27 -26 -38q-14 -10 -32 -10q-27 0 -71 25q-45 24 -79 24q-28 0 -50 -21q-23 -20 -38 -67h27q11 27 27 38q13 10 32 10q25 0 71 -25q45 -24 79 -24q27 0 50 21q23 20 38 67zM528 0v45h-75v317q0 56 -35 91q-35 33 -91 33q-49 0 -95 -21t-86 -56v64h-138
v-45h86v-383v-45h129v45h-77v312q35 33 84 58q48 24 90 24q39 0 60 -22q21 -21 21 -61v-311v-45h127z" />
    <glyph glyph-name="ograve" unicode="&#xf2;" 
d="M350 536l-100 155h-57l119 -155h38zM513 236q0 105 -68 178q-68 72 -168 72q-102 0 -169 -72q-67 -71 -67 -178q0 -105 68 -178q67 -72 168 -72q103 0 169 72q67 71 67 178zM460 236q0 -88 -52 -146q-51 -57 -131 -57t-132 58q-51 57 -51 145t52 146q51 57 131 57
t132 -58q51 -57 51 -145z" />
    <glyph glyph-name="oacute" unicode="&#xf3;" 
d="M360 691h-57l-100 -155h38zM513 236q0 105 -68 178q-68 72 -168 72q-102 0 -169 -72q-67 -71 -67 -178q0 -105 68 -178q67 -72 168 -72q103 0 169 72q67 71 67 178zM460 236q0 -88 -52 -146q-51 -57 -131 -57t-132 58q-51 57 -51 145t52 146q51 57 131 57t132 -58
q51 -57 51 -145z" />
    <glyph glyph-name="ocircumflex" unicode="&#xf4;" 
d="M424 540l-119 145h-58l-118 -145h35l112 104l113 -104h35zM513 236q0 105 -68 178q-68 72 -168 72q-102 0 -169 -72q-67 -71 -67 -178q0 -105 68 -178q67 -72 168 -72q103 0 169 72q67 71 67 178zM460 236q0 -88 -52 -146q-51 -57 -131 -57t-132 58q-51 57 -51 145
t52 146q51 57 131 57t132 -58q51 -57 51 -145z" />
    <glyph glyph-name="otilde" unicode="&#xf5;" 
d="M439 656h-28q-10 -27 -26 -38q-14 -10 -32 -10q-27 0 -71 25q-45 24 -79 24q-28 0 -50 -21q-23 -20 -38 -67h27q11 27 27 38q13 10 32 10q25 0 71 -25q45 -24 79 -24q27 0 50 21q23 20 38 67zM513 236q0 105 -68 178q-68 72 -168 72q-102 0 -169 -72q-67 -71 -67 -178
q0 -105 68 -178q67 -72 168 -72q103 0 169 72q67 71 67 178zM460 236q0 -88 -52 -146q-51 -57 -131 -57t-132 58q-51 57 -51 145t52 146q51 57 131 57t132 -58q51 -57 51 -145z" />
    <glyph glyph-name="odieresis" unicode="&#xf6;" 
d="M395 580v64h-64v-64h64zM222 580v64h-64v-64h64zM513 236q0 105 -68 178q-68 72 -168 72q-102 0 -169 -72q-67 -71 -67 -178q0 -105 68 -178q67 -72 168 -72q103 0 169 72q67 71 67 178zM460 236q0 -88 -52 -146q-51 -57 -131 -57t-132 58q-51 57 -51 145t52 146
q51 57 131 57t132 -58q51 -57 51 -145z" />
    <glyph glyph-name="divide" unicode="&#xf7;" horiz-adv-x="668" 
d="M367 492v64h-56v-64h56zM595 298v44h-524v-44h524zM367 57v64h-56v-64h56z" />
    <glyph glyph-name="oslash" unicode="&#xf8;" 
d="M519 489l-26 23l-68 -79q-59 53 -148 53q-102 0 -169 -72q-67 -71 -67 -178q0 -103 63 -173l-68 -79l26 -22l66 77q61 -53 149 -53q103 0 169 72q67 71 67 178q0 102 -63 173zM393 396l-256 -296q-43 53 -43 136q0 88 52 146q51 57 131 57q72 0 116 -43zM460 236
q0 -88 -52 -146q-51 -57 -131 -57q-71 0 -117 42l257 296q43 -52 43 -135z" />
    <glyph glyph-name="ugrave" unicode="&#xf9;" horiz-adv-x="542" 
d="M345 536l-100 155h-57l119 -155h38zM534 0v45h-82v428h-52v-45v-303q-35 -35 -82 -60t-92 -25q-37 0 -58 21q-20 22 -20 59v353h-135v-45h83v-317q0 -56 33 -87q31 -31 88 -31q54 0 101 22q23 11 44 23.5t38 28.5v-67h134z" />
    <glyph glyph-name="uacute" unicode="&#xfa;" horiz-adv-x="542" 
d="M355 691h-57l-100 -155h38zM534 0v45h-82v428h-52v-45v-303q-35 -35 -82 -60t-92 -25q-37 0 -58 21q-20 22 -20 59v353h-135v-45h83v-317q0 -56 33 -87q31 -31 88 -31q54 0 101 22q23 11 44 23.5t38 28.5v-67h134z" />
    <glyph glyph-name="ucircumflex" unicode="&#xfb;" horiz-adv-x="542" 
d="M419 540l-119 145h-58l-118 -145h35l112 104l113 -104h35zM534 0v45h-82v428h-52v-45v-303q-35 -35 -82 -60t-92 -25q-37 0 -58 21q-20 22 -20 59v353h-135v-45h83v-317q0 -56 33 -87q31 -31 88 -31q54 0 101 22q23 11 44 23.5t38 28.5v-67h134z" />
    <glyph glyph-name="udieresis" unicode="&#xfc;" horiz-adv-x="542" 
d="M390 580v64h-64v-64h64zM217 580v64h-64v-64h64zM534 0v45h-82v428h-52v-45v-303q-35 -35 -82 -60t-92 -25q-37 0 -58 21q-20 22 -20 59v353h-135v-45h83v-317q0 -56 33 -87q31 -31 88 -31q54 0 101 22q23 11 44 23.5t38 28.5v-67h134z" />
    <glyph glyph-name="yacute" unicode="&#xfd;" horiz-adv-x="531" 
d="M349 691h-57l-100 -155h38zM530 428v45h-197v-45h75l-133 -352l-144 352l-17 45h-112v-45h78l170 -415l-80 -225h46l242 640h72z" />
    <glyph glyph-name="thorn" unicode="&#xfe;" horiz-adv-x="594" 
d="M551 239q0 106 -66 177q-64 70 -164 70q-50 0 -98 -24q-47 -22 -87 -85v302h-138v-45h86v-801h-86v-45h137v45h1v263q34 -64 83 -87q48 -23 99 -23q103 0 168 71t65 182zM503 236q0 -89 -51 -146t-133 -57q-80 0 -132 57q-53 58 -53 148q0 92 52 147q53 56 130 56
q83 0 135 -58q52 -56 52 -147z" />
    <glyph glyph-name="ydieresis" unicode="&#xff;" horiz-adv-x="531" 
d="M384 580v64h-64v-64h64zM211 580v64h-64v-64h64zM530 428v45h-197v-45h75l-133 -352l-144 352l-17 45h-112v-45h78l170 -415l-80 -225h46l242 640h72z" />
    <glyph glyph-name="minus" unicode="&#xe000;" horiz-adv-x="667" 
d="M595 298v44h-524v-44h524z" />
    <glyph glyph-name="notequal" unicode="&#xe001;" horiz-adv-x="667" 
d="M595 183v44h-276l73 186h203v44h-186l47 122h-44l-47 -122h-294v-44h277l-73 -186h-204v-44h187l-47 -122h44l47 122h293z" />
    <glyph glyph-name="infinity" unicode="&#xe002;" horiz-adv-x="713" 
d="M689 264q0 60 -45 101q-44 39 -97 39q-43 0 -81 -19q-19 -10 -46.5 -31t-62.5 -55q-35 34 -62.5 55t-47.5 31q-37 19 -80 19q-54 0 -98 -40q-44 -39 -44 -100t45 -101q43 -39 97 -39q33 0 75 18q41 18 115 87q74 -69 115 -87q42 -18 75 -18q54 0 98 40q44 39 44 100z
M638 264q0 -41 -25 -65q-24 -24 -66 -24q-45 0 -82 27q-19 13 -36 28.5t-34 33.5q32 35 71 63q38 26 81 26q41 0 67 -29q24 -29 24 -60zM319 264q-32 -35 -71 -63q-38 -26 -81 -26q-42 0 -67 24q-24 24 -24 65q0 33 25 61q24 28 66 28q44 0 82 -27q19 -13 36 -28.5t34 -33.5
z" />
    <glyph glyph-name="lessequal" unicode="&#xe003;" horiz-adv-x="667" 
d="M595 117v50l-463 193l463 193v50l-524 -223v-40zM595 0v35h-524v-35h524z" />
    <glyph glyph-name="greaterequal" unicode="&#xe004;" horiz-adv-x="667" 
d="M596 340v40l-524 223v-50l462 -193l-462 -193v-50zM596 0v35h-524v-35h524z" />
    <glyph glyph-name="partialdiff" unicode="&#xe005;" horiz-adv-x="494" 
d="M462 393q0 158 -78 257t-188 99q-40 0 -75 -11q-16 -5 -30 -10.5t-26 -10.5l39 -50q13 7 26 12.5t27 10.5q24 10 61 10q80 0 124 -71q43 -70 43 -184q0 -25 -3 -53q-1 -14 -3 -28.5t-5 -29.5q-22 19 -40.5 32t-35.5 21q-32 15 -74 15q-82 0 -140 -67q-58 -65 -58 -159
q0 -96 61 -147q62 -50 128 -50q123 0 185 133t62 281zM366 299q-18 -150 -58 -219q-41 -71 -106 -71q-48 0 -69 41q-21 40 -21 98q0 99 46 157t100 58q40 0 66 -20q27 -20 42 -44z" />
    <glyph glyph-name="summation" unicode="&#xe006;" horiz-adv-x="713" 
d="M695 116h-23q-29 -71 -54 -92q-26 -21 -81 -21h-371l294 339l-273 358h263q88 0 114 -30q12 -14 22 -35t17 -49h20l-6 159h-497l-104 7l347 -454l-349 -398l58 3h503q20 0 39 -4q10 -2 19.5 -3.5t18.5 -3.5q4 29 8 56t9 53q5 25 11.5 54t14.5 61z" />
    <glyph glyph-name="product" unicode="&#xe007;" horiz-adv-x="823" 
d="M803 -101v23q-58 0 -78 20q-19 19 -19 61v626q0 52 24 76q25 23 70 23v23h-773v-23q45 0 71 -24q24 -23 24 -75v-626q0 -43 -19 -62q-18 -19 -78 -19v-23h307v23q-59 1 -78 21q-19 18 -19 60v693h358v-693q0 -43 -19 -62t-77 -19v-23h306z" />
    <glyph glyph-name="pi" unicode="&#xe008;" horiz-adv-x="549" 
d="M530 151h-22q0 -36 -18 -55q-17 -20 -41 -20q-21 0 -43 21t-22 69q0 38 3 112q3 73 9 123h126v86h-373q-56 0 -88 -44t-51 -105h17q20 36 41 50q23 13 46 13h47l-29 -229q-3 -23 -16 -43q-6 -11 -14.5 -21.5t-19.5 -21.5t-18 -24q-7 -11 -7 -27q0 -22 16 -38t38 -16
q29 0 44 21t21 48l46 351h113q-10 -89 -15 -146q-2 -28 -3.5 -53.5t-1.5 -49.5q0 -82 28 -125t68 -43q47 0 82 45q36 46 37 122z" />
    <glyph glyph-name="integral" unicode="&#xe009;" horiz-adv-x="274" 
d="M291 860q0 29 -22 42q-22 14 -44 14q-69 0 -87 -110t-18 -323q0 -253 3 -314q3 -62 3 -95q0 -58 -8 -85q-6 -25 -18 -25q-9 0 -23 17q-13 16 -31 16q-17 0 -30 -13q-14 -14 -14 -31q0 -28 21 -44t39 -16q80 0 105 121q12 61 18.5 156.5t6.5 228.5q0 70 -3 135.5t-8 126.5
t-7.5 100.5t-2.5 56.5q0 8 4 15t14 7q12 0 23 -12q10 -12 28 -12q24 0 38 15q13 15 13 29z" />
    <glyph glyph-name="Omega" unicode="&#xe00a;" horiz-adv-x="768" 
d="M736 0v162h-15q-9 -34 -20 -49q-11 -12 -46 -12h-158l2 28q104 24 161 102q56 77 56 168q0 136 -99 213q-97 76 -232 76t-233 -77t-98 -212q0 -103 59 -176q59 -72 158 -94l2 -28h-158q-34 0 -46 12q-11 13 -20 49h-15v-162h295l-16 152q-61 17 -101 78q-41 62 -41 172
q0 126 59 191q57 63 155 63q97 0 156 -65q58 -64 58 -189q0 -111 -43 -172q-44 -60 -99 -78l-16 -152h295z" />
    <glyph glyph-name="radical" unicode="&#xe00b;" horiz-adv-x="549" 
d="M515 912l-35 5l-127 -798l-197 403l-146 -72l16 -33l96 47l243 -502z" />
    <glyph glyph-name="approxequal" unicode="&#xe00c;" horiz-adv-x="667" 
d="M553 470l-40 13q-19 -27 -45 -40q-26 -14 -55 -14q-18 0 -104 26q-84 26 -116 26q-41 0 -75 -18q-37 -19 -67 -61l40 -16q24 33 48 47q20 13 51 13q26 0 110 -28q85 -27 116 -27q38 0 77 21q38 19 60 58zM553 240l-40 13q-19 -27 -45 -40q-26 -14 -55 -14q-18 0 -104 26
q-84 26 -116 26q-41 0 -75 -18q-37 -19 -67 -61l40 -16q24 33 48 47q20 13 51 13q26 0 110 -28q85 -27 116 -27q38 0 77 21q38 19 60 58z" />
    <glyph glyph-name="Delta" unicode="&#xe00d;" horiz-adv-x="612" 
d="M608 0l-282 688l-320 -688h602zM484 49h-412l218 468z" />
    <glyph glyph-name="lozenge" unicode="&#xe00e;" horiz-adv-x="494" 
d="M466 377l-194 368h-60l-194 -368l194 -377h60zM406 377l-164 -323l-164 323l164 314z" />
    <glyph glyph-name="apple" unicode="&#xe00f;" horiz-adv-x="1011" 
d="M1001 0v41h-74l-288 285l274 244h74v42h-94l-45 -41l-283 -250l283 -281l39 -41zM653 -1v42h-94v280v32l58 52l-22 20l-34 -32l-2 1v176h94v42h-241v-42h91v-124l-90 80q-28 24 -59 23q-31 0 -59 -25q-22 -19 -34 -52q-7 -17 -9 -31.5t-2 -27.5q-27 12 -51 8
q-24 -5 -45 -24q-11 -10 -20 -21.5t-14 -26.5q-6 -14 -8.5 -28t-3.5 -29l-30 26l-65 -58l22 -19l40 36l178 -161l21 -19l62 55l-22 20l-36 -33l-145 130q1 29 11 59q10 29 30 47q19 16 38 16q18 0 38 -17l166 -150l25 23l-166 148q2 34 10 61q10 28 31 47q18 15 37 15
q20 -2 38 -17l112 -101v-360v-41h150zM621 -133q0 29 -25 51q-23 21 -57 21t-56 -21q-25 -22 -25 -51q0 -30 25 -52q24 -22 57 -22q32 0 56 22q25 22 25 52z" />
    <glyph glyph-name="Udoubleacute" unicode="&#xe010;" horiz-adv-x="646" 
d="M509 805h-58l-101 -140h39zM394 805h-57l-101 -140h39zM643 570v42h-145v-41v-396q0 -70 -44 -104q-44 -35 -132 -35q-84 0 -130 36q-46 37 -46 105v393h87v42h-231v-42h88v-387q0 -93 61 -144q61 -49 172 -49t172 50q30 26 45.5 60.5t15.5 82.5v387h87z" />
    <glyph glyph-name="thacek" unicode="&#xe011;" horiz-adv-x="360" 
d="M338 572v107h-56v-93h25q0 -53 -7 -71q-6 -19 -27 -19v-36q33 2 49 30q16 26 16 82zM238 0v45l-56 -9q-23 0 -33 12q-10 11 -10 40v340h99v45h-99v107l-52 -1v-106h-84v-45h84v-350q0 -45 21 -67t64 -22z" />
    <glyph glyph-name="Thacek" unicode="&#xe012;" horiz-adv-x="573" 
d="M425 801h-36l-113 -94l-112 94h-36l119 -132h58zM558 490v122h-542v-194h48v152h195v-529h-94v-42h151v571h195v-80h47z" />
    <glyph glyph-name="rhacek" unicode="&#xe013;" horiz-adv-x="396" 
d="M374 686h-35l-113 -104l-112 104h-35l118 -145h58zM383 436v50l-19 1q-16 1 -34.5 -1t-37 -5.5t-35.5 -9.5t-30 -13q-17 -9 -32 -26t-22.5 -29t-8.5 -14v84h-142v-45h90v-383v-45h149v45h-97v212q0 93 49 136t151 43h19z" />
    <glyph glyph-name="Rhacek" unicode="&#xe014;" horiz-adv-x="573" 
d="M425 801h-36l-113 -94l-112 94h-36l119 -132h58zM589 -1v42h-88l-135 268q81 15 118 55q38 40 38 100q0 64 -53 106t-132 42h-335v-42h101v-571h57v306h149l153 -306h127zM465 460q0 -57 -42 -85q-41 -29 -116 -29h-148v224h166q64 0 102 -30q18 -15 28 -35t10 -45z" />
    <glyph glyph-name="odoubleacute" unicode="&#xe015;" 
d="M461 691h-57l-100 -155h38zM346 691h-56l-100 -155h38zM513 236q0 105 -68 178q-68 72 -168 72q-102 0 -169 -72q-67 -71 -67 -178q0 -105 68 -178q67 -72 168 -72q103 0 169 72q67 71 67 178zM460 236q0 -88 -52 -146q-51 -57 -131 -57t-132 58q-51 57 -51 145t52 146
q51 57 131 57t132 -58q51 -57 51 -145z" />
    <glyph glyph-name="Odoubleacute" unicode="&#xe016;" horiz-adv-x="781" 
d="M576 805h-58l-101 -140h39zM461 805h-57l-101 -140h39zM735 306q0 137 -98 226q-96 89 -245 89t-245 -90q-98 -89 -98 -225q0 -137 98 -226q97 -90 245 -90t245 91q98 89 98 225zM677 306q0 -117 -80 -194q-80 -76 -205 -76q-123 0 -205 77q-81 76 -81 193t81 194
q80 76 205 76q126 0 206 -77t80 -193h-1z" />
    <glyph glyph-name="nhacek" unicode="&#xe017;" horiz-adv-x="531" 
d="M413 686h-35l-113 -104l-112 104h-35l118 -145h58zM528 0v45h-75v317q0 56 -35 91q-35 33 -91 33q-49 0 -95 -21t-86 -56v64h-138v-45h86v-383v-45h129v45h-77v312q35 33 84 58q48 24 90 24q39 0 60 -22q21 -21 21 -61v-311v-45h127z" />
    <glyph glyph-name="Nhacek" unicode="&#xe018;" horiz-adv-x="708" 
d="M503 801h-36l-113 -94l-112 94h-36l119 -132h58zM699 570v42h-137v-41v-503q-48 70 -97 138t-99 134q-49 66 -98 133.5t-98 138.5h-161v-42h92v-530v-41h144v42h-97v514l409 -564h54v579h88z" />
    <glyph glyph-name="lmiddledot" unicode="&#xe019;" horiz-adv-x="320" 
d="M284 330v64h-64v-64h64zM231 0v45h-85v634h-138v-45h86v-589v-45h137z" />
    <glyph glyph-name="Lmiddledot" unicode="&#xe01a;" horiz-adv-x="510" 
d="M360 296v59h-66v-59h66zM499 -1v199h-56v-157h-279v529h2v42h-151v-42h93v-529h-93v-42h484z" />
    <glyph glyph-name="lhacek" unicode="&#xe01b;" horiz-adv-x="320" 
d="M278 572v107h-56v-93h25q0 -53 -7 -71q-6 -19 -27 -19v-36q33 2 49 30q16 26 16 82zM231 0v45h-85v634h-138v-45h86v-589v-45h137z" />
    <glyph glyph-name="Lhacek" unicode="&#xe01c;" horiz-adv-x="510" 
d="M424 515v97h-58v-85h26q-1 -23 -2.5 -39t-4.5 -24q-7 -17 -28 -17v-34q34 2 50 28q17 25 17 74zM499 -1v199h-56v-157h-279v529h2v42h-151v-42h93v-529h-93v-42h484z" />
    <glyph glyph-name="ehacek" unicode="&#xe01d;" 
d="M424 686h-35l-113 -104l-112 104h-35l118 -145h58zM518 225q-6 124 -70 192q-65 69 -167 69q-105 0 -173 -71t-68 -179q0 -109 69 -179q69 -71 175 -71q19 0 43 5.5t45 12t35.5 12l14.5 5.5l-12 38l-13 -5t-31 -10.5t-38.5 -10.5t-35.5 -5q-88 0 -144 59q-52 54 -57 138
h427zM463 270h-370q11 71 50 113q53 59 134 59q77 0 127 -48q49 -49 59 -124z" />
    <glyph glyph-name="Ehacek" unicode="&#xe01e;" horiz-adv-x="604" 
d="M451 801h-36l-113 -94l-112 94h-36l119 -132h58zM560 -1v42h-47h-355v251h283v41h-283v237h355v-108h46v150h-545v-42h88v-530v-41h458z" />
    <glyph glyph-name="dhacek" unicode="&#xe01f;" horiz-adv-x="674" 
d="M633 572v107h-56v-93h25q0 -53 -7 -71q-6 -19 -27 -19v-36q33 2 49 30q16 26 16 82zM591 0v45h-86v634h-52v-45v-259q-38 62 -86 87q-50 24 -100 24q-100 0 -166 -71q-65 -71 -65 -179q0 -104 67 -174q67 -69 167 -69q51 0 99 23q46 22 84 78v-94h138zM454 239
q0 -88 -52 -146q-51 -57 -132 -57q-78 0 -132 58q-53 59 -53 142q0 87 53 148q51 59 130 59q78 0 132 -59t54 -145z" />
    <glyph glyph-name="Dhacek" unicode="&#xe020;" horiz-adv-x="708" 
d="M470 801h-36l-113 -94l-112 94h-36l119 -132h58zM662 305q0 135 -90 222q-88 85 -273 85h-292v-42h95v-530v-41h196q203 0 283 92q81 93 81 214zM604 305q0 -132 -75 -198q-77 -66 -223 -66h-148v529h146q143 0 223 -69q78 -69 78 -196h-1z" />
    <glyph glyph-name="Dbar" unicode="&#xe021;" horiz-adv-x="708" 
d="M662 305q0 135 -90 222q-88 85 -273 85h-292v-40l95 2v-247h-94v-41h94v-246v-41h196q203 0 283 92q81 93 81 214zM604 305q0 -132 -75 -198q-77 -66 -223 -66h-148v245h210v41h-210v243h146q143 0 223 -69q78 -69 78 -196h-1z" />
    <glyph glyph-name="zdot" unicode="&#xe022;" horiz-adv-x="479" 
d="M272 580v64h-64v-64h64zM436 429v44h-367v-45h41h268l-333 -383v-45h390v173h-42v-128h-291z" />
    <glyph glyph-name="Zdot" unicode="&#xe023;" 
d="M310 704v59h-66v-59h66zM522 -1v159h-48v-117h-379l417 530v41h-464v-42h46h348l-416 -529v-42h496z" />
    <glyph glyph-name="zacute" unicode="&#xe024;" horiz-adv-x="479" 
d="M323 691h-57l-100 -155h38zM436 429v44h-367v-45h41h268l-333 -383v-45h390v173h-42v-128h-291z" />
    <glyph glyph-name="Zacute" unicode="&#xe025;" 
d="M361 805h-58l-101 -140h39zM522 -1v159h-48v-117h-379l417 530v41h-464v-42h46h348l-416 -529v-42h496z" />
    <glyph glyph-name="uogonek" unicode="&#xe026;" horiz-adv-x="542" 
d="M573 -156v42q-11 -4 -19.5 -6.5t-15.5 -4.5q-6 -1 -13.5 -1.5t-15.5 -0.5q-23 0 -43 14q-18 13 -18 42q0 20 12 40q5 10 11.5 17.5t13.5 13.5h49v45h-82v428h-52v-45v-303q-35 -35 -82 -60t-92 -25q-37 0 -58 21q-20 22 -20 59v353h-135v-45h83v-317q0 -56 33 -87
q31 -31 88 -31q54 0 101 22q23 11 44 23.5t38 28.5v-67h44q-16 -13 -30 -34q-14 -22 -14 -46q0 -44 33 -69q31 -25 77 -25q10 0 18.5 1t15.5 4q7 1 14 4.5t15 8.5z" />
    <glyph glyph-name="Uogonek" unicode="&#xe027;" horiz-adv-x="646" 
d="M643 570v42h-145v-41v-396q0 -70 -44 -104q-44 -35 -132 -35q-84 0 -130 36q-46 37 -46 105v393h87v42h-231v-42h88v-387q0 -93 61 -144q54 -44 147 -48q-9 -8 -19 -21q-15 -20 -15 -42q0 -38 34 -63q31 -22 77 -22q22 0 34 4q7 2 14.5 5t15.5 7v39q-12 -4 -20.5 -6.5
t-15.5 -3.5q-6 -1 -13.5 -1.5t-15.5 -0.5q-24 0 -43 13q-18 10 -18 37q0 9 3.5 17.5t8.5 18.5q4 5 7.5 9.5t7.5 9.5q100 3 155 49q61 49 61 143v387h87z" />
    <glyph glyph-name="uring" unicode="&#xe028;" horiz-adv-x="542" 
d="M363 612q0 38 -27 65t-65 27t-65 -27q-26 -28 -26 -65q0 -38 27 -65q25 -27 64 -27q38 0 65 27t27 65zM534 0v45h-82v428h-52v-45v-303q-35 -35 -82 -60t-92 -25q-37 0 -58 21q-20 22 -20 59v353h-135v-45h83v-317q0 -56 33 -87q31 -31 88 -31q54 0 101 22q23 11 44 23.5
t38 28.5v-67h134zM333 612q0 -26 -18 -44t-44 -18t-44 18q-17 19 -17 44q0 26 18 44q16 18 43 18q26 0 44 -18t18 -44z" />
    <glyph glyph-name="Uring" unicode="&#xe029;" horiz-adv-x="646" 
d="M416 733q0 34 -28 59q-26 25 -65 25t-65 -25q-27 -24 -27 -59q0 -33 28 -58q27 -25 64 -25q39 0 65 25q28 25 28 58zM643 570v42h-145v-41v-396q0 -70 -44 -104q-44 -35 -132 -35q-84 0 -130 36q-46 37 -46 105v393h87v42h-231v-42h88v-387q0 -93 61 -144q61 -49 172 -49
t172 50q30 26 45.5 60.5t15.5 82.5v387h87zM384 733q0 -23 -17 -39q-19 -16 -44 -16q-27 0 -44 16q-17 17 -17 39t18 40q19 16 43 16q25 0 44 -16q18 -17 18 -40h-1z" />
    <glyph glyph-name="umacron" unicode="&#xe02a;" horiz-adv-x="542" 
d="M432 600v29h-321v-29h321zM534 0v45h-82v428h-52v-45v-303q-35 -35 -82 -60t-92 -25q-37 0 -58 21q-20 22 -20 59v353h-135v-45h83v-317q0 -56 33 -87q31 -31 88 -31q54 0 101 22q23 11 44 23.5t38 28.5v-67h134z" />
    <glyph glyph-name="Umacron" unicode="&#xe02b;" horiz-adv-x="646" 
d="M485 722v27h-323v-27h323zM643 570v42h-145v-41v-396q0 -70 -44 -104q-44 -35 -132 -35q-84 0 -130 36q-46 37 -46 105v393h87v42h-231v-42h88v-387q0 -93 61 -144q61 -49 172 -49t172 50q30 26 45.5 60.5t15.5 82.5v387h87z" />
    <glyph glyph-name="tcedilla" unicode="&#xe02c;" horiz-adv-x="260" 
d="M249 -118q0 33 -21 54q-20 21 -52 21l7 34l55 9v45l-56 -9q-23 0 -33 12q-10 11 -10 40v340h99v45h-99v107l-52 -1v-106h-84v-45h84v-350q0 -43 21 -67q16 -16 43 -20l-14 -71q28 0 45 -12t17 -33q0 -29 -25 -42q-13 -7 -29.5 -11t-36.5 -3l-26 1v-32h14q72 0 113 23
q40 22 40 71z" />
    <glyph glyph-name="Tcedilla" unicode="&#xe02d;" horiz-adv-x="573" 
d="M558 490v122h-542v-194h48v152h195v-529h-94v-42h106l-12 -53q29 0 46 -11q17 -12 17 -29q0 -24 -25 -38q-12 -6 -28.5 -9.5t-37.5 -2.5l-27 1v-30h15q73 0 113 20q41 23 41 65q0 29 -21 49q-19 19 -52 19l4 20h12v570h195v-80h47z" />
    <glyph glyph-name="sacute" unicode="&#xe02e;" horiz-adv-x="448" 
d="M308 691h-57l-100 -155h38zM409 127q0 57 -33 89q-32 31 -138 51q-75 14 -101 31q-26 18 -26 57q0 37 28 62q28 26 75 26q55 0 92 -34q37 -33 38 -85h44v135h-44v-37q-25 33 -58 49q-32 15 -73 15q-63 0 -106 -36t-43 -97q0 -62 39 -90q37 -28 123 -43q79 -13 108 -35
q29 -20 29 -63q0 -41 -38 -70q-38 -27 -90 -27q-68 0 -109 37t-42 102h-46v-164h46v60q27 -42 65 -59q36 -16 81 -16q81 0 131 39q48 37 48 103z" />
    <glyph glyph-name="Sacute" unicode="&#xe02f;" horiz-adv-x="542" 
d="M356 805h-58l-101 -140h39zM499 160q0 73 -51 116q-50 42 -187 72q-76 17 -120 43q-44 27 -44 79q0 44 41 76q39 30 102 30q37 0 69 -4.5t58 -22.5q13 -9 21.5 -22t14 -26t7.5 -24.5t2 -18.5v-12h54q0 2 -1 13.5t-4.5 29.5t-10.5 31q-7 14 -13.5 22t-17.5 19
q-18 17 -36 27t-41 19t-48 11.5t-51 2.5q-83 0 -141 -43q-58 -42 -58 -106q0 -69 50 -110q48 -39 155 -63q105 -22 150 -53q43 -30 43 -80q0 -57 -46 -94q-47 -36 -115 -36q-80 0 -136 46q-56 47 -56 106v22h-47v-211h48v81q31 -45 82 -67q54 -23 108 -23q91 0 155 49
q64 50 64 121z" />
    <glyph glyph-name="rcedilla" unicode="&#xe030;" horiz-adv-x="396" 
d="M383 436v50l-19 1q-16 1 -34.5 -1t-37 -5.5t-35.5 -9.5t-30 -13q-17 -9 -32 -26t-22.5 -29t-8.5 -14v84h-142v-45h90v-383v-45h15l-13 -67q28 0 45 -12t17 -33q0 -29 -25 -42q-13 -7 -29.5 -11t-36.5 -3l-26 1v-32h14q72 0 113 23q40 22 40 71q0 33 -21 54q-20 21 -52 21
l6 30h102v45h-97v212q0 93 49 136t151 43h19z" />
    <glyph glyph-name="Rcedilla" unicode="&#xe031;" horiz-adv-x="573" 
d="M589 0v41h-88l-135 268q81 15 118 55q38 40 38 100q0 64 -53 106t-132 42h-335v-42h101v-571h11l-13 -62q30 0 46 -10q17 -12 17 -30q0 -24 -25 -37q-12 -6 -28.5 -9.5t-37.5 -2.5h-27v-29h15q73 0 113 20q41 23 41 65q0 29 -21 49q-22 19 -52 19l5 27h13v306h149
l153 -306zM465 460q0 -57 -42 -85q-41 -29 -116 -29h-148v224h166q64 0 102 -30q18 -15 28 -35t10 -45z" />
    <glyph glyph-name="racute" unicode="&#xe032;" horiz-adv-x="396" 
d="M310 691h-57l-100 -155h38zM383 436v50l-19 1q-16 1 -34.5 -1t-37 -5.5t-35.5 -9.5t-30 -13q-17 -9 -32 -26t-22.5 -29t-8.5 -14v84h-142v-45h90v-383v-45h149v45h-97v212q0 93 49 136t151 43h19z" />
    <glyph glyph-name="Racute" unicode="&#xe033;" horiz-adv-x="573" 
d="M361 805h-58l-101 -140h39zM589 -1v42h-88l-135 268q81 15 118 55q38 40 38 100q0 64 -53 106t-132 42h-335v-42h101v-571h57v306h149l153 -306h127zM465 460q0 -57 -42 -85q-41 -29 -116 -29h-148v224h166q64 0 102 -30q18 -15 28 -35t10 -45z" />
    <glyph glyph-name="omacron" unicode="&#xe034;" 
d="M437 600v29h-321v-29h321zM513 236q0 105 -68 178q-68 72 -168 72q-102 0 -169 -72q-67 -71 -67 -178q0 -105 68 -178q67 -72 168 -72q103 0 169 72q67 71 67 178zM460 236q0 -88 -52 -146q-51 -57 -131 -57t-132 58q-51 57 -51 145t52 146q51 57 131 57t132 -58
q51 -57 51 -145z" />
    <glyph glyph-name="Omacron" unicode="&#xe035;" horiz-adv-x="781" 
d="M552 722v27h-323v-27h323zM735 306q0 137 -98 226q-96 89 -245 89t-245 -90q-98 -89 -98 -225q0 -137 98 -226q97 -90 245 -90t245 91q98 89 98 225zM677 306q0 -117 -80 -194q-80 -76 -205 -76q-123 0 -205 77q-81 76 -81 193t81 194q80 76 205 76q126 0 206 -77
t80 -193h-1z" />
    <glyph glyph-name="ncedilla" unicode="&#xe036;" horiz-adv-x="531" 
d="M528 0v45h-75v317q0 56 -35 91q-35 33 -91 33q-49 0 -95 -21t-86 -56v64h-138v-45h86v-383v-45h29l-13 -67q28 0 45 -12t17 -33q0 -29 -25 -42q-13 -7 -29.5 -11t-36.5 -3l-26 1v-32h14q72 0 113 23q40 22 40 71q0 33 -21 54q-20 21 -52 21l6 30h68v45h-77v312
q35 33 84 58q48 24 90 24q39 0 60 -22q21 -21 21 -61v-311v-45h127z" />
    <glyph glyph-name="Ncedilla" unicode="&#xe037;" horiz-adv-x="708" 
d="M699 570v42h-137v-41v-503q-48 70 -97 138t-99 134q-49 66 -98 133.5t-98 138.5h-161v-42h92v-530v-41h25l-14 -62q30 0 46 -10q17 -12 17 -30q0 -25 -25 -37q-12 -6 -28.5 -9.5t-37.5 -2.5h-27v-29h15q73 0 113 20q41 21 41 65q0 29 -21 49q-22 19 -52 19l6 28h86v41
h-97v514l409 -564h54v579h88z" />
    <glyph glyph-name="nacute" unicode="&#xe038;" horiz-adv-x="531" 
d="M349 691h-57l-100 -155h38zM528 0v45h-75v317q0 56 -35 91q-35 33 -91 33q-49 0 -95 -21t-86 -56v64h-138v-45h86v-383v-45h129v45h-77v312q35 33 84 58q48 24 90 24q39 0 60 -22q21 -21 21 -61v-311v-45h127z" />
    <glyph glyph-name="Nacute" unicode="&#xe039;" horiz-adv-x="708" 
d="M439 805h-58l-101 -140h39zM699 570v42h-137v-41v-503q-48 70 -97 138t-99 134q-49 66 -98 133.5t-98 138.5h-161v-42h92v-530v-41h144v42h-97v514l409 -564h54v579h88z" />
    <glyph glyph-name="lcedilla" unicode="&#xe03a;" horiz-adv-x="240" 
d="M231 0v45h-85v634h-138v-45h86v-589v-45h21l-14 -71q28 0 45 -12t17 -33q0 -27 -25 -42q-13 -7 -29.5 -11t-36.5 -3l-26 1v-32h14q72 0 113 23q40 24 40 71q0 33 -21 54q-20 21 -52 21l7 34h84z" />
    <glyph glyph-name="Lcedilla" unicode="&#xe03b;" horiz-adv-x="510" 
d="M499 0v198h-56v-157h-279v529h2v42h-151v-42h93v-529h-93v-42h227l-14 -63q29 0 46 -11t17 -29q0 -26 -25 -38q-28 -13 -66 -12l-27 1v-30h15q72 0 113 21q41 20 41 64q0 29 -21 49q-10 10 -23.5 14.5t-28.5 4.5l6 30h224z" />
    <glyph glyph-name="lacute" unicode="&#xe03c;" horiz-adv-x="240" 
d="M255 882h-57l-100 -155h38zM231 0v45h-85v634h-138v-45h86v-589v-45h137z" />
    <glyph glyph-name="Lacute" unicode="&#xe03d;" horiz-adv-x="510" 
d="M296 805h-58l-101 -140h39zM499 -1v199h-56v-157h-279v529h2v42h-151v-42h93v-529h-93v-42h484z" />
    <glyph glyph-name="kcedilla" unicode="&#xe03e;" horiz-adv-x="521" 
d="M534 0v45h-72l-246 206l259 177h51v45h-64q-2 -1 -22 -15t-56 -39t-76.5 -52.5t-82 -56t-73.5 -49.5v418h-139v-45h87v-589h1v-45h24l-14 -71q28 0 45 -12q17 -11 17 -33q0 -29 -25 -42q-12 -7 -28.5 -11t-37.5 -3l-26 1v-32h14q73 0 113 23q40 22 40 71q0 34 -20 54
q-21 21 -53 21l7 34h82v45h-87v199l280 -244h102z" />
    <glyph glyph-name="Kcedilla" unicode="&#xe03f;" horiz-adv-x="583" 
d="M601 0v41h-74l-288 285l274 244h74v42h-94l-45 -41l-283 -250l283 -281l39 -41zM253 -1v42h-94v280v249h94v42h-241v-42h91v-530v-41h20l-13 -61q29 0 46 -10q17 -11 17 -30q0 -25 -25 -37q-27 -14 -66 -13l-27 1v-29h15q74 0 113 20q41 21 41 65q0 29 -22 49
q-19 17 -51 19l5 27z" />
    <glyph glyph-name="iogonek" unicode="&#xe040;" horiz-adv-x="250" 
d="M159 650q0 16 -12 28t-28 12t-28 -12t-12 -29q0 -16 12 -28t28 -12t28 12t12 29zM243 -156v42q-11 -4 -19.5 -6.5t-15.5 -4.5q-6 -1 -13.5 -1.5t-15.5 -0.5q-23 0 -43 14q-18 13 -18 42q0 20 12 40q5 10 11.5 17.5t13.5 13.5h85v45h-81v428h-135v-45h83v-383h1v-45h6
q-16 -13 -30 -34q-14 -22 -14 -46q0 -44 33 -69q31 -25 77 -25q10 0 18.5 1t15.5 4q7 1 14 4.5t15 8.5z" />
    <glyph glyph-name="Iogonek" unicode="&#xe041;" horiz-adv-x="281" 
d="M167 730v64h-56v-64h56zM254 0v45h-86v589v45h-56v-45v-589h-85v-45h97q-16 -13 -30 -34q-14 -22 -14 -46q0 -44 33 -69q31 -25 77 -25q10 0 18.5 1t15.5 4q7 1 14 4.5t15 8.5v42q-11 -4 -19.5 -6.5t-15.5 -4.5q-6 -1 -13.5 -1.5t-15.5 -0.5q-23 0 -43 14q-18 13 -18 42
q0 20 12 40q5 10 11.5 17.5t13.5 13.5h89z" />
    <glyph glyph-name="imacron" unicode="&#xe042;" horiz-adv-x="250" 
d="M286 600v29h-321v-29h321zM241 0v45h-81v428h-135v-45h83v-383h-83v-45h216z" />
    <glyph glyph-name="Imacron" unicode="&#xe043;" horiz-adv-x="281" 
d="M301 803v29h-321v-29h321zM254 0v45h-86v589v45h-56v-45v-589h-85v-45h227z" />
    <glyph glyph-name="gcedilla" unicode="&#xe044;" horiz-adv-x="594" 
d="M360 691h-57l-100 -155h38zM601 428v45h-139v-103q-45 69 -92 93q-48 23 -96 23q-98 0 -167 -74q-68 -74 -68 -180q0 -103 67 -171q68 -68 167 -68q53 0 105 26q51 26 84 85v-120q0 -77 -51 -119t-132 -42q-12 0 -29 2.5t-32 5.5t-26 5.5l-11 2.5l-12 -45q2 -1 18.5 -5
t42 -8.5t44.5 -4.5q106 0 173 58t67 155v439h87zM462 236q0 -85 -54 -142q-53 -57 -132 -57q-80 0 -133 56q-51 55 -51 143q0 85 53 146q53 59 131 59q76 0 132 -60q54 -60 54 -145z" />
    <glyph glyph-name="Gcedilla" unicode="&#xe045;" horiz-adv-x="792" 
d="M739 276h-340v-42h280q-14 -94 -91 -146q-79 -52 -184 -52q-132 0 -215 76q-83 75 -83 194q0 118 80 195q79 75 205 75q87 0 161 -43q75 -42 101 -122h46v156h-47v-60q-43 53 -113 84q-69 30 -149 30q-147 0 -243 -90q-98 -89 -98 -225q0 -138 100 -227q92 -83 235 -88
l-13 -63q29 0 46 -11t17 -29q0 -26 -25 -38q-28 -13 -66 -12l-27 1v-30h15q71 0 113 20q41 21 41 65q0 29 -22 49q-21 19 -51 19l5 29q138 3 227 77q48 38 70.5 90t24.5 118z" />
    <glyph glyph-name="eogonek" unicode="&#xe046;" 
d="M518 225q-6 124 -70 192q-65 69 -167 69q-105 0 -173 -71t-68 -179q0 -109 69 -179q59 -60 142 -69l-8 -10t-9 -12q-14 -22 -14 -46q0 -44 33 -69q31 -25 77 -25q10 0 18.5 1t15.5 4q7 1 14 4.5t15 8.5v42q-11 -4 -19.5 -6.5t-15.5 -4.5q-6 -1 -13.5 -1.5t-15.5 -0.5
q-23 0 -43 14q-18 13 -18 42q0 20 12 40q5 10 12 17q19 1 42 6.5t42.5 12t32.5 11.5l13 5l-12 38l-13 -5t-31 -10.5t-38.5 -10.5t-35.5 -5q-88 0 -144 59q-52 54 -57 138h427zM463 270h-370q11 71 50 113q53 59 134 59q77 0 127 -48q49 -49 59 -124z" />
    <glyph glyph-name="Eogonek" unicode="&#xe047;" horiz-adv-x="604" 
d="M560 0v41h-47h-355v251h283v41h-283v237h355v-108h46v150h-545v-42h88v-530v-41h300q-7 -5 -14 -12t-14 -17q-15 -20 -15 -42q0 -38 34 -63q31 -22 77 -22q22 0 34 4q7 2 14.5 5t15.5 7v39q-12 -4 -20.5 -6.5t-15.5 -3.5q-6 -1 -13.5 -1.5t-15.5 -0.5q-24 0 -43 13
q-18 10 -18 37q0 18 11.5 35.5t25.5 28.5h115z" />
    <glyph glyph-name="edot" unicode="&#xe048;" 
d="M309 580v64h-64v-64h64zM518 225q-6 124 -70 192q-65 69 -167 69q-105 0 -173 -71t-68 -179q0 -109 69 -179q69 -71 175 -71q19 0 43 5.5t45 12t35.5 12l14.5 5.5l-12 38l-13 -5t-31 -10.5t-38.5 -10.5t-35.5 -5q-88 0 -144 59q-52 54 -57 138h427zM463 270h-370
q11 71 50 113q53 59 134 59q77 0 127 -48q49 -49 59 -124z" />
    <glyph glyph-name="Edot" unicode="&#xe049;" horiz-adv-x="604" 
d="M336 704v59h-66v-59h66zM560 -1v42h-47h-355v251h283v41h-283v237h355v-108h46v150h-545v-42h88v-530v-41h458z" />
    <glyph glyph-name="emacron" unicode="&#xe04a;" 
d="M437 600v29h-321v-29h321zM518 225q-6 124 -70 192q-65 69 -167 69q-105 0 -173 -71t-68 -179q0 -109 69 -179q69 -71 175 -71q19 0 43 5.5t45 12t35.5 12l14.5 5.5l-12 38l-13 -5t-31 -10.5t-38.5 -10.5t-35.5 -5q-88 0 -144 59q-52 54 -57 138h427zM463 270h-370
q11 71 50 113q53 59 134 59q77 0 127 -48q49 -49 59 -124z" />
    <glyph glyph-name="Emacron" unicode="&#xe04b;" horiz-adv-x="604" 
d="M464 722v27h-323v-27h323zM560 -1v42h-47h-355v251h283v41h-283v237h355v-108h46v150h-545v-42h88v-530v-41h458z" />
    <glyph glyph-name="aogonek" unicode="&#xe04c;" horiz-adv-x="510" 
d="M543 -156v42q-11 -4 -19.5 -6.5t-15.5 -4.5q-6 -1 -13.5 -1.5t-15.5 -0.5q-23 0 -43 14q-18 13 -18 42q0 20 12 40q5 10 11.5 17.5t13.5 13.5h45v45h-79v307q0 68 -45 101t-131 33q-19 0 -40.5 -4.5t-39.5 -10.5t-29.5 -10.5l-11.5 -4.5l13 -31l11 3.5t27 8t34.5 8.5
t33.5 4q57 0 92 -23q34 -22 34 -74v-112q-38 21 -75 30q-38 9 -66 9q-80 0 -129 -42q-48 -41 -48 -104q0 -57 42 -99q41 -41 105 -41q39 0 87 20q45 19 84 54v-67h45q-16 -13 -30 -34q-14 -22 -14 -46q0 -44 33 -69q31 -25 77 -25q10 0 18.5 1t15.5 4q7 1 14 4.5t15 8.5z
M369 111q-29 -33 -74 -56q-43 -22 -85 -22q-49 0 -78 29q-28 28 -28 67q0 47 35 79t98 32q35 0 70 -12q32 -11 62 -30v-87z" />
    <glyph glyph-name="Aogonek" unicode="&#xe04d;" horiz-adv-x="656" 
d="M694 -141v39q-12 -4 -20.5 -6.5t-15.5 -3.5q-6 -1 -13.5 -1.5t-15.5 -0.5q-24 0 -43 13q-18 10 -18 37q0 18 11.5 35.5t25.5 28.5h76v41h-85l-206 529h85v42h-193l-15 -41l-204 -530h-87v-42h144v42h-1l72 191h274l74 -191h-85v-42h108q-7 -5 -14 -12t-14 -17
q-15 -20 -15 -42q0 -38 34 -63q31 -22 77 -22q22 0 34 4q7 2 14.5 5t15.5 7zM449 273h-241l121 318z" />
    <glyph glyph-name="abreve" unicode="&#xe04e;" horiz-adv-x="510" 
d="M400 669h-42q-16 -36 -44 -54q-26 -17 -58 -17t-59 18q-26 17 -44 53h-42q20 -56 59 -86q40 -32 86 -32q45 0 86 32q40 31 58 86zM500 0v45h-79v307q0 68 -45 101t-131 33q-19 0 -40.5 -4.5t-39.5 -10.5t-29.5 -10.5l-11.5 -4.5l13 -31l11 3.5t27 8t34.5 8.5t33.5 4
q57 0 92 -23q34 -22 34 -74v-112q-38 21 -75 30q-38 9 -66 9q-80 0 -129 -42q-48 -41 -48 -104q0 -57 42 -99q41 -41 105 -41q39 0 87 20q45 19 84 54v-67h131zM369 111q-29 -33 -74 -56q-43 -22 -85 -22q-49 0 -78 29q-28 28 -28 67q0 47 35 79t98 32q35 0 70 -12
q32 -11 62 -30v-87z" />
    <glyph glyph-name="Abreve" unicode="&#xe04f;" horiz-adv-x="656" 
d="M474 785h-43q-16 -33 -44 -48q-27 -16 -58 -16t-59 17q-26 14 -44 47h-43q11 -25 25.5 -44.5t34.5 -33.5q40 -29 86 -29q45 0 86 29q39 28 59 78zM681 -1v42h-85l-206 529h85v42h-193l-15 -41l-204 -530h-87v-42h144v42h-1l72 191h274l74 -191h-85v-42h227zM449 273h-241
l121 318z" />
    <glyph glyph-name="amacron" unicode="&#xe050;" horiz-adv-x="510" 
d="M416 600v29h-321v-29h321zM500 0v45h-79v307q0 68 -45 101t-131 33q-19 0 -40.5 -4.5t-39.5 -10.5t-29.5 -10.5l-11.5 -4.5l13 -31l11 3.5t27 8t34.5 8.5t33.5 4q57 0 92 -23q34 -22 34 -74v-112q-38 21 -75 30q-38 9 -66 9q-80 0 -129 -42q-48 -41 -48 -104
q0 -57 42 -99q41 -41 105 -41q39 0 87 20q45 19 84 54v-67h131zM369 111q-29 -33 -74 -56q-43 -22 -85 -22q-49 0 -78 29q-28 28 -28 67q0 47 35 79t98 32q35 0 70 -12q32 -11 62 -30v-87z" />
    <glyph glyph-name="Amacron" unicode="&#xe051;" horiz-adv-x="656" 
d="M490 722v27h-323v-27h323zM681 -1v42h-85l-206 529h85v42h-193l-15 -41l-204 -530h-87v-42h144v42h-1l72 191h274l74 -191h-85v-42h227zM449 273h-241l121 318z" />
    <glyph glyph-name="sfthyphen" unicode="&#xe052;" horiz-adv-x="667" 
d="M565 142l-64 63q23 31 37 64q12 33 12 72q0 40 -13 72t-36 64l64 63l-32 32l-63 -64q-31 23 -64 37q-33 12 -72 12q-40 0 -72 -13t-64 -36l-62 64l-32 -32l64 -63q-24 -30 -38 -64q-12 -33 -12 -72q0 -40 13 -72t36 -64l-63 -63l31 -32l63 64q31 -23 64 -37
q33 -12 72 -12q40 0 72 13t64 36l63 -64zM503 341q0 -70 -50 -120q-49 -49 -119 -49t-120 50q-49 49 -49 119t50 120q49 49 119 49t120 -50q49 -49 49 -119z" />
    <glyph glyph-name="dmacron" unicode="&#xe053;" horiz-adv-x="594" 
d="M591 0v45h-86v486h58v42h-58v106h-51v-45h-1v-61h-143v-42h143v-156q-38 62 -86 87q-50 24 -100 24q-100 0 -166 -71q-65 -71 -65 -179q0 -104 67 -174q67 -69 167 -69q51 0 99 23q46 22 84 78v-94h138zM454 239q0 -88 -52 -146q-51 -57 -132 -57q-78 0 -132 58
q-53 59 -53 142q0 87 53 148q51 59 130 59q78 0 132 -59t54 -145z" />
    <glyph glyph-name="ccaron" unicode="&#xe054;" horiz-adv-x="510" 
d="M414 686h-35l-113 -104l-112 104h-35l118 -145h58zM480 128l-42 18q-21 -50 -62 -82q-40 -31 -100 -31q-82 0 -132 56t-50 147t49 147q48 56 126 56q56 0 103 -36q45 -34 48 -110h43v150h-43v-34q-24 37 -63 57q-38 20 -88 20q-99 0 -163 -72q-65 -73 -65 -178
q0 -109 65 -180q64 -70 169 -70q71 0 124 37q54 37 81 105z" />
    <glyph glyph-name="Ccaron" unicode="&#xe055;" horiz-adv-x="750" 
d="M550 801h-36l-113 -94l-112 94h-36l119 -132h58zM720 199l-47 25q-40 -100 -109 -145q-67 -43 -162 -43q-125 0 -204 76q-80 77 -80 194q0 119 79 195q78 75 201 75q87 0 160 -43q73 -42 89 -118h48v143h-48v-45q-48 57 -115 82q-69 26 -132 26q-150 0 -244 -88
q-95 -87 -95 -227t95 -229q93 -87 245 -87q105 0 189 49q82 49 130 160z" />
    <glyph glyph-name="cacute" unicode="&#xe056;" horiz-adv-x="510" 
d="M350 691h-57l-100 -155h38zM480 128l-42 18q-21 -50 -62 -82q-40 -31 -100 -31q-82 0 -132 56t-50 147t49 147q48 56 126 56q56 0 103 -36q45 -34 48 -110h43v150h-43v-34q-24 37 -63 57q-38 20 -88 20q-99 0 -163 -72q-65 -73 -65 -178q0 -109 65 -180q64 -70 169 -70
q71 0 124 37q54 37 81 105z" />
    <glyph glyph-name="Cacute" unicode="&#xe057;" horiz-adv-x="750" 
d="M486 805h-58l-101 -140h39zM720 199l-47 25q-40 -100 -109 -145q-67 -43 -162 -43q-125 0 -204 76q-80 77 -80 194q0 119 79 195q78 75 201 75q87 0 160 -43q73 -42 89 -118h48v143h-48v-45q-48 57 -115 82q-69 26 -132 26q-150 0 -244 -88q-95 -87 -95 -227t95 -229
q93 -87 245 -87q105 0 189 49q82 49 130 160z" />
    <glyph glyph-name="scedilla" unicode="&#xe058;" horiz-adv-x="448" 
d="M409 127q0 57 -33 89q-32 31 -138 51q-75 14 -101 31q-26 18 -26 57q0 37 28 62q28 26 75 26q55 0 92 -34q37 -33 38 -85h44v135h-44v-37q-25 33 -58 49q-32 15 -73 15q-63 0 -106 -36t-43 -97q0 -62 39 -90q37 -28 123 -43q79 -13 108 -35q29 -20 29 -63q0 -41 -38 -70
q-38 -27 -90 -27q-68 0 -109 37t-42 102h-46v-164h46v60q27 -41 65 -59q30 -14 66 -15l-13 -66q28 0 45 -12t17 -33q0 -29 -25 -42q-13 -7 -29.5 -11t-36.5 -3l-26 1v-32h14q72 0 113 23q40 22 40 71q0 33 -21 54q-20 21 -52 21l6 28q71 5 114 39q48 37 48 103z" />
    <glyph glyph-name="Scedilla" unicode="&#xe059;" horiz-adv-x="542" 
d="M499 160q0 73 -51 116q-50 42 -187 72q-76 17 -120 43q-44 27 -44 79q0 44 41 76q39 30 102 30q37 0 69 -4.5t58 -22.5q13 -9 21.5 -22t14 -26t7.5 -24.5t2 -18.5v-12h54q0 2 -1 13.5t-4.5 29.5t-10.5 31q-7 14 -13.5 22t-17.5 19q-18 17 -36 27t-41 19t-48 11.5t-51 2.5
q-83 0 -141 -43q-58 -42 -58 -106q0 -69 50 -110q48 -39 155 -63q105 -22 150 -53q43 -30 43 -80q0 -57 -46 -94q-47 -36 -115 -36q-80 0 -136 46q-56 47 -56 106v22h-47v-211h48v81q31 -45 82 -67q42 -19 88 -22l-14 -63q29 0 46 -11t17 -29q0 -26 -25 -38q-28 -13 -66 -12
l-27 1v-30h15q71 0 113 20q41 21 41 65q0 29 -22 49q-21 19 -51 19l5 29q85 3 143 48q64 50 64 121z" />
    <glyph glyph-name="Idotaccent" unicode="&#xe05a;" horiz-adv-x="281" 
d="M167 730v64h-56v-64h56zM254 0v45h-86v589v45h-56v-45v-589h-85v-45h227z" />
    <glyph glyph-name="gbreve" unicode="&#xe05b;" horiz-adv-x="594" 
d="M421 669h-42q-16 -36 -44 -54q-26 -17 -58 -17t-59 18q-26 17 -44 53h-42q20 -56 59 -86q40 -32 86 -32q45 0 86 32q40 31 58 86zM601 428v45h-139v-103q-45 69 -92 93q-48 23 -96 23q-98 0 -167 -74q-68 -74 -68 -180q0 -103 67 -171q68 -68 167 -68q53 0 105 26
q51 26 84 85v-120q0 -77 -51 -119t-132 -42q-12 0 -29 2.5t-32 5.5t-26 5.5l-11 2.5l-12 -45q2 -1 18.5 -5t42 -8.5t44.5 -4.5q106 0 173 58t67 155v439h87zM462 236q0 -85 -54 -142q-53 -57 -132 -57q-80 0 -133 56q-51 55 -51 143q0 85 53 146q53 59 131 59q76 0 132 -60
q54 -60 54 -145z" />
    <glyph glyph-name="Gbreve" unicode="&#xe05c;" horiz-adv-x="792" 
d="M537 785h-43q-16 -33 -44 -48q-27 -16 -58 -16t-59 17q-26 14 -44 47h-43q11 -25 25.5 -44.5t34.5 -33.5q40 -29 86 -29q45 0 86 29q39 28 59 78zM739 276h-340v-42h280q-14 -94 -91 -146q-79 -52 -184 -52q-132 0 -215 76q-83 75 -83 194q0 118 80 195q79 75 205 75
q87 0 161 -43q75 -42 101 -122h46v156h-47v-60q-43 53 -113 84q-69 30 -149 30q-147 0 -243 -90q-98 -89 -98 -225q0 -139 100 -227q100 -89 254 -89q146 0 241 78q48 38 70.5 90t24.5 118z" />
    <glyph glyph-name="franc" unicode="&#xe05d;" horiz-adv-x="531" 
d="M533 461v151h-431v-41v-399h-62v-41h63v-90h-89v-42h146v41v91h62v41h-63v122l251 1v40h-251v235h328v-109h46z" />
  </font>
</defs>
</svg>
