<?xml version="1.0" standalone="no"?>
<!DOCTYPE svg PUBLIC "-//W3C//DTD SVG 1.1//EN" "http://www.w3.org/Graphics/SVG/1.1/DTD/svg11.dtd" >
<svg xmlns="http://www.w3.org/2000/svg" xmlns:xlink="http://www.w3.org/1999/xlink" version="1.1">
<metadata>
Created by FontForge 20141024 at Mon May  4 09:08:00 2015
 By System Administrator
Copyright (c) M. Klein    3.05
</metadata>
<defs>
<font id="Nilland-SmallCaps-Bold" horiz-adv-x="586" >
  <font-face 
    font-family="Nilland-SmallCaps"
    font-weight="700"
    font-variant="small-caps"
    font-stretch="normal"
    units-per-em="1000"
    panose-1="2 0 0 3 6 0 0 2 0 4"
    ascent="800"
    descent="-200"
    x-height="508"
    cap-height="760"
    bbox="-116 -226 1017 954"
    underline-thickness="50"
    underline-position="-75"
    unicode-range="U+0005-E05E"
  />
<missing-glyph horiz-adv-x="1000" 
 />
    <glyph glyph-name=".notdef" horiz-adv-x="1000" 
 />
    <glyph glyph-name="breve" horiz-adv-x="353" 
d="M334 704h-76q-11 -24 -21 -36.5t-21 -20.5q-23 -15 -49 -15q-14 0 -26 4t-24 12q-11 7 -21 19.5t-22 36.5h-76q17 -46 33.5 -72t39.5 -44q44 -36 96 -36q51 0 96 36q23 17 39.5 43.5t31.5 72.5z" />
    <glyph glyph-name="dotaccent" horiz-adv-x="353" 
d="M216 582v97h-98v-98z" />
    <glyph glyph-name="ring" horiz-adv-x="353" 
d="M275 630q0 45 -32 77t-77 32t-77 -32q-31 -33 -31 -77q0 -23 8.5 -41.5t23.5 -35.5q16 -15 35 -23.5t41 -8.5q45 0 77 32t32 77zM211 630q0 -20 -13 -32q-12 -14 -32 -14q-19 0 -32 13q-13 15 -13 33q0 17 14 33q13 13 31 13q20 0 32 -14q14 -12 14 -32h-1z" />
    <glyph glyph-name="hungarumlaut" unicode="&#xa;" horiz-adv-x="353" 
d="M429 726h-99l-121 -189h76zM314 726h-98l-121 -189h76z" />
    <glyph glyph-name="ogonek" horiz-adv-x="353" 
d="M270 -147v74l-37.5 -12.5t-17.5 -5.5q-5 -1 -12 -1h-14q-19 0 -33 10q-5 4 -8.5 10.5t-3.5 18.5t10 32q3 4 6 8.5t8.5 10.5t15 14.5t24.5 22.5h-90q-12 -10 -21 -20t-17 -22q-17 -25 -17 -55q0 -51 40 -82q37 -29 87 -29q11 0 20.5 2t17.5 4q9 2 18.5 7t23.5 13z" />
    <glyph glyph-name="caron" horiz-adv-x="353" 
d="M349 721h-76l-107 -99l-106 99h-76l145 -179h74z" />
    <glyph glyph-name="dotlessi" unicode="&#xd;" horiz-adv-x="265" 
d="M258 2v78h-82v428h-168v-79h84v-350h-84v-78z" />
    <glyph glyph-name="fraction" horiz-adv-x="365" 
d="M462 714h-76l-502 -713h76z" />
    <glyph glyph-name="fi" horiz-adv-x="575" 
d="M492 668q0 12 -4.5 22t-12.5 18t-18 12.5t-22 4.5t-22 -4.5t-18 -12.5q-17 -17 -17 -41q0 -12 4.5 -22t12.5 -18t18 -12.5t22 -4.5t22 4.5t18 12.5q17 17 17 41zM546 1v79h-72v428h-239h-14h-54v78q0 18 4 29t10 18q11 14 34 14q18 0 31 -11q5 -5 10.5 -15t11.5 -34
l77 12q-5 35 -16 55t-26 37q-34 34 -87 34q-60 0 -97 -42q-37 -40 -37 -107v-69h-73v-78h74v-350h-77v-78h231v79h-70v350h54h14h155v-351h-75v-78h231z" />
    <glyph glyph-name="fl" horiz-adv-x="575" 
d="M546 2v78h-73v634h-202q-24 11 -54 11q-61 0 -98 -42q-37 -40 -37 -107v-69h-76v-78h77v-350h-77v-78h231v79h-70v350h78v78h-78v78q0 18 4 29t10 18q11 14 34 14q17 0 30 -11q6 -5 11.5 -15.5t11.5 -33.5l78 12q-3 12 -5 20.5t-4 16.5h52v-557h-74v-78z" />
    <glyph glyph-name="Lslash" horiz-adv-x="541" 
d="M515 1v277h-88v-203h-246v256l137 100v82l-137 -100v159h91v74h-272v-74h91v-226l-108 -79v-82l108 79v-189h-92v-74h516z" />
    <glyph glyph-name="lslash" horiz-adv-x="255" 
d="M273 444v82l-111 -90v278h-171v-79h87v-268l-110 -89v-82l110 89v-206h-86v-78h256v79h-86v274z" />
    <glyph glyph-name="Zcaron" 
d="M463 835h-80l-107 -88l-106 88h-79l148 -164h74zM538 1v191h-80v-117h-329l399 509v62h-496v-74h62h314l-398 -508v-63h528z" />
    <glyph glyph-name="zcaron" horiz-adv-x="508" 
d="M422 721h-76l-107 -99l-106 99h-76l145 -179h74zM453 441v67h-401v-79h58h232l-314 -360v-68h424v207h-76v-129h-238z" />
    <glyph glyph-name="space" unicode=" " horiz-adv-x="265" 
 />
    <glyph glyph-name="exclam" unicode="!" horiz-adv-x="265" 
d="M168 646h-86v-209l13 -274h60l13 271v212zM170 1v83h-90v-83h90z" />
    <glyph glyph-name="quotedbl" unicode="&#x22;" horiz-adv-x="298" 
d="M264 602v123h-90v-122l16 -142h58zM107 602v123h-89v-122l16 -142h58z" />
    <glyph glyph-name="numbersign" unicode="#" horiz-adv-x="709" 
d="M604 212v78h-129l33 161h96v78h-79l42 204h-80l-42 -205h-155l42 205h-80l-42 -205h-145v-78h128l-33 -161h-95v-78h79l-42 -203h80l42 204h155l-42 -204h80l42 204h145zM428 451l-33 -162h-155l33 162h155z" />
    <glyph glyph-name="dollar" unicode="$" horiz-adv-x="541" 
d="M499 170q0 78 -50 128q-21 21 -58 37t-88 27v191q30 -9 48 -27q17 -16 26.5 -40.5t10.5 -66.5h83q-3 64 -20 104.5t-50 63.5q-46 32 -98 41v28h-80v-27q-66 -9 -114 -42q-32 -22 -49 -50.5t-17 -64.5q0 -73 49 -119q21 -20 54 -34t77 -23v-227q-25 4 -44.5 12.5
t-39.5 26.5l-61 -55q35 -28 69.5 -41t75.5 -18v-69h80v69q75 9 126 47q70 52 70 129zM223 379q-42 12 -63 27q-30 22 -30 66q0 36 34 60q24 18 59 24v-177zM417 175q0 -47 -40 -78q-30 -23 -74 -30v214q31 -8 50.5 -16.5t30.5 -17.5q33 -29 33 -72z" />
    <glyph glyph-name="percent" unicode="%" horiz-adv-x="895" 
d="M827 195q0 92 -38 145q-38 54 -114 54q-74 0 -114 -55q-20 -26 -29 -62.5t-9 -81.5q0 -94 38 -145q40 -54 114 -54q77 0 115 54q37 52 37 145zM709 714h-58h-8h-414q-28 11 -61 11q-75 0 -114 -54q-20 -26 -29 -62.5t-9 -81.5q0 -94 38 -145q40 -54 115 -54q76 0 114 54
q37 52 37 145q0 89 -36 142h319l-470 -668h75zM754 195q0 -36 -5.5 -62t-15.5 -44q-18 -32 -57 -32q-37 0 -57 32q-10 17 -15.5 43t-5.5 62q0 67 22 106q19 33 55 33q38 0 58 -33q10 -17 15.5 -43t5.5 -62zM246 527q0 -36 -5 -62t-15 -44q-18 -32 -57 -32q-38 0 -57 33
q-10 17 -15.5 43t-5.5 61t6 61t16 44q19 33 56 33t57 -33q10 -17 15.5 -43t5.5 -61h-1z" />
    <glyph glyph-name="ampersand" unicode="&#x26;" horiz-adv-x="741" 
d="M675 298v78h-146q-7 -39 -15 -68t-19 -55q-6 -14 -12 -27t-13 -24l-143 197q27 11 51.5 24.5t46.5 30.5q30 23 46.5 52.5t16.5 65.5q0 67 -52 111q-51 42 -119 42q-70 0 -124 -45q-26 -23 -39.5 -51t-13.5 -62q0 -22 8.5 -45.5t24.5 -46.5q16 -24 30 -42
q-70 -28 -114 -74q-54 -56 -54 -141q0 -44 16 -82.5t48 -73.5q62 -71 175 -71q57 0 116 27q42 20 75 53l51 -70l92 4l-89 128q24 31 40 65q19 39 36 100h80zM408 573q0 -19 -9 -35t-29 -31q-33 -24 -89 -43q-7 9 -14.5 19.5t-15.5 23.5q-15 22 -21.5 37.5t-6.5 26.5
q0 36 27 56q28 21 65 21q40 0 68 -22q26 -21 26 -53h-1zM417 137q-32 -32 -57 -44q-37 -20 -79 -20q-66 0 -111 46q-46 44 -46 109q0 46 36 84q31 32 90 56z" />
    <glyph glyph-name="quotesingle" unicode="'" horiz-adv-x="232" 
d="M155 602v123h-90v-122l16 -142h58z" />
    <glyph glyph-name="parenleft" unicode="(" horiz-adv-x="376" 
d="M346 -208v77q-55 33 -91 70.5t-56 84.5t-31 105t-11 128t11.5 128t31.5 105t55.5 84.5t90.5 70.5v77q-83 -36 -133.5 -82t-81.5 -107q-60 -119 -60 -276t61 -277q31 -61 81 -106.5t133 -81.5z" />
    <glyph glyph-name="parenright" unicode=")" horiz-adv-x="376" 
d="M283 257q0 157 -61 277q-31 61 -81 106.5t-133 81.5v-77q55 -33 91 -70.5t56 -84.5t31 -105t11 -128t-11.5 -128t-31.5 -105t-55.5 -84.5t-90.5 -70.5v-77q83 36 133 81.5t82 107.5q29 59 44.5 128t15.5 148z" />
    <glyph glyph-name="asterisk" unicode="*" horiz-adv-x="520" 
d="M472 514l-28 89q-51 -17 -73.5 -26t-25.5 -11q0 -2 -70 -34q4 35 6 54t4 22q2 4 4.5 28t2.5 78h-94q0 -54 2.5 -78t4.5 -28q2 -3 4 -22t6 -54q-70 32 -70 34q-3 2 -25.5 11t-73.5 26l-28 -89q44 -14 67 -20.5t33 -6.5t78 -13q-23 -26 -35.5 -40t-15.5 -15t-20 -19
t-49 -62l74 -56q33 44 46 65t13 26q0 3 9.5 19t26.5 46q17 -30 27 -46.5t10 -19.5q0 -5 12.5 -25.5t45.5 -64.5l74 56q-32 44 -49 62t-21 19q-3 1 -15 15t-35 40q35 7 55 10.5t26 3.5q8 0 31 6t66 20z" />
    <glyph glyph-name="plus" unicode="+" horiz-adv-x="708" 
d="M612 302v77h-241v239h-77v-240h-240v-77h241v-242h77v243h240z" />
    <glyph glyph-name="comma" unicode="," horiz-adv-x="265" 
d="M170 0v98h-90v-97h25q-1 -23 -3 -35t-4 -16q-1 -2 -5 -4t-22 -2v-69q32 2 50 11t29 26q20 34 20 88z" />
    <glyph glyph-name="hyphen" unicode="-" horiz-adv-x="365" 
d="M325 253v78h-308v-79z" />
    <glyph glyph-name="period" unicode="." horiz-adv-x="265" 
d="M175 2v97h-89v-98z" />
    <glyph glyph-name="slash" unicode="/" horiz-adv-x="298" 
d="M303 714h-81l-245 -731h81z" />
    <glyph glyph-name="zero" unicode="0" horiz-adv-x="563" 
d="M501 324q0 154 -57 241q-58 91 -178 91q-121 0 -179 -90q-29 -45 -43 -105t-14 -137q0 -153 57 -241q58 -90 178 -90t179 90q29 45 43 105t14 136zM416 324q0 -63 -10 -111t-30 -83q-35 -65 -110 -65q-77 0 -112 66q-39 67 -39 193q0 124 40 195q35 65 110 65
q77 0 112 -66q39 -69 39 -194z" />
    <glyph glyph-name="one" unicode="1" horiz-adv-x="563" 
d="M409 1v74h-96v573l-182 -22v-63h96v-488h-96v-74h278z" />
    <glyph glyph-name="two" unicode="2" horiz-adv-x="563" 
d="M478 180h-78l-5 -105h-268q12 50 50 98q23 29 60.5 57.5t91.5 58.5q36 20 63 41t44 43q32 44 32 108q0 78 -56 128q-27 24 -63.5 35.5t-80.5 11.5q-49 0 -89.5 -16t-79.5 -55l57 -51q25 28 51 39t62 11q50 0 83 -30q31 -28 31 -73q0 -47 -26 -76q-15 -16 -36 -31t-50 -32
q-129 -70 -183 -160q-25 -42 -39.5 -80t-11.5 -73l2 -28h431z" />
    <glyph glyph-name="three" unicode="3" horiz-adv-x="563" 
d="M490 187q0 72 -46 118q-14 14 -31.5 24.5t-38.5 17.5q35 21 56 53.5t21 80.5q0 76 -56 126q-53 49 -138 49q-42 0 -77.5 -11.5t-61.5 -36.5q-28 -24 -42 -59.5t-16 -91.5h83q1 42 9 64t22 35q30 28 80 28q51 0 82 -29q30 -29 30 -73q0 -51 -36 -79q-11 -9 -24 -14.5
t-28 -9.5q-16 -4 -34 -5.5t-44 -4.5v-68l61 2q68 0 107 -33q38 -30 38 -82q0 -54 -40 -88q-41 -35 -106 -35q-33 0 -61 11t-57 37l-64 -50q46 -38 88.5 -54t91.5 -16q100 0 166 53q66 55 66 141z" />
    <glyph glyph-name="four" unicode="4" horiz-adv-x="563" 
d="M503 180v70h-111v401h-70l-292 -408l-42 -61l81 -2h245v-122v-57h139v74h-61v105h111zM314 250h-191l191 273v-273z" />
    <glyph glyph-name="five" unicode="5" horiz-adv-x="563" 
d="M497 216q0 90 -62 150q-63 60 -155 60q-22 0 -43.5 -4.5t-43.5 -12.5q-22 -7 -45 -22l19 180h227h63v79h-362l-34 -340q14 -6 20.5 -8.5t11.5 -4.5t9.5 -6.5t18.5 -15.5q23 29 40 44t34 23t35 12t38 4q67 0 106 -39q39 -38 39 -100q0 -66 -42 -109q-41 -41 -110 -41
q-32 0 -57 9t-50 31l-68 -43q45 -38 86 -53.5t88 -15.5q105 0 171 62q66 63 66 161z" />
    <glyph glyph-name="six" unicode="6" horiz-adv-x="563" 
d="M494 212q0 93 -58 152q-57 59 -147 59q-60 0 -115 -30q-22 -13 -40 -26q6 93 37 150q36 67 122 67q26 0 46.5 -9t43.5 -35l52 57q-37 32 -72 45.5t-75 13.5q-115 0 -179 -94q-32 -46 -46.5 -109.5t-14.5 -144.5t14.5 -141t45.5 -98q60 -76 170 -76q95 0 156 62
q60 60 60 157zM410 209q0 -66 -37 -106q-35 -38 -96 -38t-103 49q-20 25 -31 62.5t-11 91.5v9q16 16 33 28.5t34 22.5q42 23 83 23q59 0 93 -37q35 -38 35 -105z" />
    <glyph glyph-name="seven" unicode="7" horiz-adv-x="563" 
d="M477 582v64h-430v-170h80v91h246q-79 -98 -120 -224q-12 -36 -21 -85t-15 -93t-9 -75l-3 -31v-58h166v74h-80q3 132 46 259q23 68 57 129.5t83 118.5z" />
    <glyph glyph-name="eight" unicode="8" horiz-adv-x="563" 
d="M505 186q0 61 -37 107q-23 30 -68 49q31 15 50 39q34 40 34 100q0 78 -65 126q-61 49 -154 49q-94 0 -156 -49q-62 -48 -62 -127q0 -60 37 -102q19 -22 47 -36q-37 -16 -65 -45q-41 -45 -41 -110q0 -85 71 -141q66 -53 170 -53q103 0 171 53q68 56 68 140zM402 480
q0 -50 -35 -77q-36 -28 -102 -28q-64 0 -102 29q-34 26 -34 74q0 46 37 76q41 30 103 30q59 0 97 -30q36 -29 36 -74zM421 189q0 -56 -42 -89q-43 -35 -114 -35q-72 0 -114 34q-41 35 -41 91q0 53 40 84q42 31 116 31q72 0 115 -32q40 -31 40 -84z" />
    <glyph glyph-name="nine" unicode="9" horiz-adv-x="563" 
d="M482 341q0 80 -14 140.5t-45 98.5q-60 76 -169 76q-48 0 -87.5 -15t-69.5 -47q-61 -61 -61 -158q0 -88 58 -151q28 -30 65 -44.5t82 -14.5q59 0 114 29q11 6 21 12.5t20 14.5q-6 -92 -37 -151q-36 -66 -116 -66q-28 0 -49 8.5t-44 31.5l-54 -55q38 -32 74 -44.5t78 -12.5
q114 0 175 96q30 47 44.5 110t14.5 142zM398 371q-16 -16 -32.5 -28.5t-35.5 -22.5q-43 -22 -81 -22q-58 0 -94 38q-34 37 -34 99q0 72 36 111q35 38 97 38q65 0 104 -48q20 -25 30 -63t10 -92v-10z" />
    <glyph glyph-name="colon" unicode=":" horiz-adv-x="265" 
d="M175 382v97h-90v-98zM175 1v98h-90v-98h90z" />
    <glyph glyph-name="semicolon" unicode=";" horiz-adv-x="265" 
d="M175 382v97h-90v-98zM170 0v98h-90v-97h25q-1 -23 -3 -35t-4 -16q-1 -2 -5 -4t-22 -2v-69q32 2 50 11t29 26q20 34 20 88z" />
    <glyph glyph-name="less" unicode="&#x3c;" horiz-adv-x="708" 
d="M612 70v86l-437 182l437 182v86l-558 -237v-62z" />
    <glyph glyph-name="equal" unicode="=" horiz-adv-x="708" 
d="M617 415v77h-558v-78zM617 274v78h-558v-78h558z" />
    <glyph glyph-name="greater" unicode="&#x3e;" horiz-adv-x="708" 
d="M613 307v62l-558 237v-86l436 -182l-436 -182v-86z" />
    <glyph glyph-name="question" unicode="?" horiz-adv-x="475" 
d="M423 473q0 69 -55 126q-27 29 -65 43t-85 14q-98 0 -152 -55q-27 -27 -40 -61t-13 -85h81q0 39 8.5 60.5t24.5 36.5q34 29 87 29q55 0 92 -32q33 -32 33 -75q0 -31 -10.5 -51t-30.5 -31q-32 -19 -81 -19q-15 0 -40 3l-24 -8l21 -201h55l12 130q83 2 132 53q50 50 50 123z
M244 1v92h-90v-92h90z" />
    <glyph glyph-name="at" unicode="@" horiz-adv-x="707" 
d="M635 272h-71q-15 -23 -35 -40t-50 -32q-59 -31 -129 -31q-87 0 -160 69q-71 68 -71 173q0 101 69 173q69 71 163 71q86 0 145 -59q60 -59 60 -135q0 -72 -41 -125q-21 -28 -39 -39.5t-32 -11.5v3v8l61 282h-74l-5 -24q-5 5 -11.5 9.5t-13.5 8.5q-35 19 -62 19
q-85 0 -136 -72q-23 -34 -35.5 -71t-12.5 -77q0 -69 39 -109q39 -39 89 -39q42 0 76 23q8 5 14 10t11 10q4 -14 12 -24q5 -7 13 -14t19 -7q36 0 67.5 19t60.5 54q58 72 58 165q0 101 -75 178q-76 76 -190 76q-119 0 -205 -92q-84 -90 -84 -207q0 -120 82 -211
q83 -92 213 -92q91 0 165 45q37 22 64 47t51 69zM402 460q0 -28 -8 -57t-25 -60q-17 -30 -35 -43t-38 -13q-25 0 -46 20q-10 8 -15.5 22.5t-5.5 37.5q0 32 8 60t24 55q29 47 77 47q28 0 46 -20q19 -20 19 -49h-1z" />
    <glyph glyph-name="A" unicode="A" horiz-adv-x="696" 
d="M697 1v74h-89l-194 497h77v74h-221l-19 -51l-200 -520h-91v-74h176v57l67 175h250l62 -158h-77v-74h259zM425 308h-193l97 254z" />
    <glyph glyph-name="B" unicode="B" horiz-adv-x="597" 
d="M541 193q0 63 -40 107q-27 28 -66 45q22 13 40 34q17 19 24.5 42.5t7.5 50.5q0 84 -61 130q-57 44 -160 44h-286v-74h87v-514v-58l199 1q116 0 185 48q70 49 70 144zM417 474q0 -46 -37 -71q-19 -14 -45 -21.5t-61 -7.5h-97v198h106q33 0 58 -7t42 -20q34 -28 34 -71z
M451 189q0 -55 -43 -83q-22 -15 -53 -23t-74 -8h-104v225h106q43 0 74.5 -8t53.5 -22q40 -26 40 -81z" />
    <glyph glyph-name="C" unicode="C" horiz-adv-x="796" 
d="M741 225l-77 40q-25 -63 -51.5 -98.5t-57.5 -55.5q-64 -41 -153 -41q-119 0 -192 72q-75 72 -75 182q0 112 74 183q73 71 189 71q81 0 151 -41q34 -20 54 -47.5t30 -72.5h78v175h-80v-21q-42 39 -93 58q-35 13 -69.5 20t-68.5 7q-156 0 -256 -93q-99 -93 -99 -239
q0 -148 99 -241q50 -46 114.5 -68.5t142.5 -22.5q111 0 198 51q45 26 79 69.5t63 112.5z" />
    <glyph glyph-name="D" unicode="D" horiz-adv-x="751" 
d="M678 323q0 143 -94 234q-48 46 -119.5 67.5t-165.5 21.5h-308v-74h94v-514v-57h213q103 0 177 23.5t119 74.5q84 96 84 224zM588 323q0 -124 -70 -185q-35 -31 -87.5 -47t-124.5 -16h-131v497h129q137 0 212 -66q72 -63 72 -183z" />
    <glyph glyph-name="E" unicode="E" horiz-adv-x="641" 
d="M576 1v74h-63h-338v218h282v75h-282v204h321v-108h79v182h-577v-74h87v-514v-57h491z" />
    <glyph glyph-name="F" unicode="F" horiz-adv-x="563" 
d="M549 463v183h-551v-74h88v-497h-88v-74h178v57v237l250 -1v76h-250v202h294v-109h79z" />
    <glyph glyph-name="G" unicode="G" horiz-adv-x="840" 
d="M755 310h-372v-74h277q-18 -75 -81 -117q-74 -49 -175 -49q-125 0 -204 72q-77 71 -77 182t75 183q74 71 193 71q80 0 153 -41q35 -20 58.5 -49.5t38.5 -75.5h74v189h-79v-35q-36 34 -90 58q-73 32 -156 32q-152 0 -255 -94q-102 -95 -102 -238q0 -147 105 -240
q104 -92 265 -92q151 0 252 81q50 42 74.5 99t25.5 138z" />
    <glyph glyph-name="H" unicode="H" horiz-adv-x="730" 
d="M684 572v74h-260v-74h88v-198h-337v215v57h-173v-74h83v-497h-82v-74h172v57v243h337v-226h-87v-74h177v57v514h82z" />
    <glyph glyph-name="I" unicode="I" horiz-adv-x="298" 
d="M184 668v92h-90v-92h90zM271 1v74h-86v514v57h-90v-57v-514h-85v-74h261z" />
    <glyph glyph-name="J" unicode="J" horiz-adv-x="288" 
d="M280 572v74h-289v-74h102v-603q0 -26 -5.5 -40.5t-13.5 -22.5q-9 -8 -28 -13t-60 -5l-4 -77q57 0 94 9.5t60 30.5q47 41 47 124v597h97z" />
    <glyph glyph-name="K" unicode="K" horiz-adv-x="619" 
d="M617 1v74h-83l-271 268l256 229h84v74h-117l-49 -45l-296 -261l295 -294l44 -45h137zM270 1v74h-94v264v233h93v74h-273v-74h90v-514v-57h184z" />
    <glyph glyph-name="L" unicode="L" horiz-adv-x="541" 
d="M515 1v232h-88v-158h-246v513l-16 -16q8 9 12 27.5t4.5 31.5t0.5 15h-183v-74h92v-497h-92v-74h516z" />
    <glyph glyph-name="M" unicode="M" horiz-adv-x="906" 
d="M859 1v74h-85v497h85v74h-203l-222 -488l-224 488h-202v-74h88v-514v-57h162v74h-81v451l236 -525h33l238 524v-467v-57h175z" />
    <glyph glyph-name="N" unicode="N" horiz-adv-x="751" 
d="M715 572v74h-169v-57v-450q-42 59 -83 115.5t-83 112.5q-49 66 -98.5 134.5t-102.5 144.5h-186v-74h91v-514v-57h177v74h-96v447l383 -529h79v579h88z" />
    <glyph glyph-name="O" unicode="O" horiz-adv-x="829" 
d="M745 324q0 143 -102 238q-103 94 -257 94t-257 -94q-102 -95 -102 -238q0 -144 102 -238q103 -94 257 -94t257 94q102 94 102 238zM655 324q0 -109 -76 -182q-74 -72 -193 -72q-117 0 -193 73q-76 72 -76 181q0 110 76 182q75 72 193 72t194 -73q75 -71 75 -181z" />
    <glyph glyph-name="P" unicode="P" 
d="M550 449q0 94 -66 147q-65 50 -177 50h-308v-74h90v-497h-90v-74h180v57v195h138q51 0 93.5 13t74.5 40q65 53 65 143zM460 444q0 -58 -40 -86q-20 -15 -50.5 -23t-72.5 -8h-118v245h118q46 0 77 -8.5t50 -22.5q17 -14 26.5 -37.5t9.5 -59.5z" />
    <glyph glyph-name="Q" unicode="Q" horiz-adv-x="829" 
d="M751 324q0 143 -102 238q-103 94 -257 94t-257 -94q-102 -95 -102 -238q0 -144 102 -238q49 -45 114 -69q-11 -5 -22.5 -11.5t-26.5 -17.5l41 -53q19 12 30.5 18t20.5 8q21 6 40 6q12 0 43.5 -10.5t69 -25.5t73.5 -32t57 -29l48 66q-10 5 -26.5 12.5t-36.5 16.5t-41 18
t-40 17q100 21 170 86q102 94 102 238zM661 324q0 -109 -76 -182q-74 -72 -193 -72q-117 0 -193 73q-76 72 -76 181q0 110 76 182q75 72 193 72t194 -73q75 -71 75 -181z" />
    <glyph glyph-name="R" unicode="R" horiz-adv-x="608" 
d="M605 1v74h-94l-121 241q34 8 61 21.5t45 33.5q42 43 42 111q0 72 -58 119q-57 45 -143 45h-351v-74h100v-572h90v306h123l153 -305h153zM448 478q0 -46 -35 -72q-36 -25 -106 -25h-131v191h149q58 0 91 -27q32 -26 32 -67z" />
    <glyph glyph-name="S" unicode="S" horiz-adv-x="575" 
d="M521 178q0 81 -56 128q-27 23 -76 42t-118 34q-37 8 -66 18t-49 23q-36 22 -36 65q0 36 34 63q36 27 92 27q37 0 65.5 -4.5t51.5 -20.5q11 -8 18 -18.5t11.5 -21.5t6.5 -21t2 -16v-29h88l-0.5 11.5t-2.5 27t-5.5 32.5t-9.5 28q-8 14 -15 23.5t-19 21.5q-20 20 -39.5 30
t-43.5 19q-26 11 -52.5 13.5t-52.5 2.5q-89 0 -151 -47q-64 -47 -64 -119q0 -78 55 -123q54 -42 162 -66q54 -11 89 -24t55 -26q36 -24 36 -67q0 -50 -39 -81q-21 -16 -47 -24.5t-58 -8.5q-73 0 -125 43q-50 41 -50 93v39h-80v-244h80v54q25 -24 59 -39q55 -24 115 -24
q98 0 165 52q70 53 70 134z" />
    <glyph glyph-name="T" unicode="T" horiz-adv-x="608" 
d="M574 491v155h-574v-227h80v153h162v-497h-93v-74h183v571h162v-81h80z" />
    <glyph glyph-name="U" unicode="U" horiz-adv-x="685" 
d="M659 572v74h-177v-57v-396q0 -61 -38 -91q-40 -32 -122 -32q-40 0 -69.5 8.5t-50.5 24.5q-39 31 -39 92v377h86v74h-263v-74h87v-371q0 -50 16 -89t51 -68q65 -52 183 -52t183 53q66 57 66 156v371h87z" />
    <glyph glyph-name="V" unicode="V" horiz-adv-x="696" 
d="M696 572v74h-253v-74h75l-181 -443l-198 466l-19 51h-159v-74h94l243 -577h69l235 577h94z" />
    <glyph glyph-name="W" unicode="W" horiz-adv-x="1006" 
d="M983 572v74h-253v-74h81l-134 -434l-138 456l-17 52h-96l-14 -53l-129 -454l-145 455l-15 52h-160v-74h90l192 -577h71l157 547l166 -547h69l185 577h90z" />
    <glyph glyph-name="X" unicode="X" horiz-adv-x="696" 
d="M659 1v74h-103l-183 259l166 238h98v74h-262v-74h68l-120 -170l-137 197l-35 47h-154v-74h102l175 -246l-175 -251h-102v-74h273v74h-73l126 182l151 -216l28 -40h157z" />
    <glyph glyph-name="Y" unicode="Y" horiz-adv-x="641" 
d="M639 572v74h-257v-74h72l-144 -205l-167 239l-29 40h-150v-74h96l200 -284v-213h-94v-74h184v57v230l200 284h89z" />
    <glyph glyph-name="Z" unicode="Z" 
d="M538 1v191h-80v-117h-329l399 509v62h-496v-74h62h314l-398 -508v-63h528z" />
    <glyph glyph-name="bracketleft" unicode="[" horiz-adv-x="365" 
d="M346 -200v79h-161v757h161v78h-246v-914h246z" />
    <glyph glyph-name="backslash" unicode="\" horiz-adv-x="298" 
d="M304 -13l-245 727h-82l245 -727h82z" />
    <glyph glyph-name="bracketright" unicode="]" horiz-adv-x="365" 
d="M245 714h-247v-79h161v-757h-161v-78h245z" />
    <glyph glyph-name="asciicircum" unicode="^" horiz-adv-x="696" 
d="M569 444l-241 290l-241 -290l55 -49l186 223l186 -223z" />
    <glyph glyph-name="underscore" unicode="_" horiz-adv-x="530" 
d="M517 -226v83h-534v-83h534z" />
    <glyph glyph-name="grave" unicode="`" horiz-adv-x="353" 
d="M270 538l-121 188h-99l144 -189z" />
    <glyph glyph-name="a" unicode="a" horiz-adv-x="541" 
d="M517 2v78h-79v290q0 75 -52 114q-50 37 -141 37q-20 0 -44.5 -6t-46.5 -13t-36.5 -13l-14.5 -6l25 -61q6 2 19.5 7t30 10t34.5 8.5t32 3.5q26 0 47 -5.5t35 -15.5q14 -8 20.5 -22.5t6.5 -37.5v-85q-14 6 -27.5 11t-27.5 8q-19 5 -36.5 7.5t-33.5 2.5q-86 0 -139 -46
q-54 -47 -54 -117q0 -64 47 -111q46 -46 117 -46q43 0 93 22q32 14 61 35v-50zM353 135q-26 -27 -65 -47q-41 -21 -78 -21q-41 0 -66 25q-23 23 -23 55q0 40 30 67q14 13 35.5 20.5t51.5 7.5q32 0 64 -12q14 -5 26.5 -10.5t24.5 -12.5v-72z" />
    <glyph glyph-name="b" unicode="b" horiz-adv-x="652" 
d="M590 263q0 111 -72 185q-73 73 -182 73q-53 0 -107 -27q-33 -18 -61 -49v269h-171v-79h87v-572v-62h85v65q29 -32 62 -48q48 -24 100 -24q114 0 187 76q72 75 72 193zM503 261q0 -44 -12 -77.5t-35 -60.5q-47 -53 -121 -53q-70 0 -119 51q-24 26 -36.5 59.5t-12.5 78.5
q0 81 51 134q50 52 119 52q71 0 120 -52q47 -52 47 -132h-1z" />
    <glyph glyph-name="c" unicode="c" horiz-adv-x="541" 
d="M501 155l-72 31q-14 -35 -29.5 -56t-33.5 -35q-37 -28 -90 -28q-74 0 -120 51q-22 25 -34 58.5t-12 77.5q0 83 45 136q45 51 114 51q51 0 93 -33q19 -14 29.5 -40t12.5 -74h76v184h-77v-6q-27 25 -62 37t-72 12q-106 0 -175 -78q-70 -78 -70 -189q0 -115 70 -191
q69 -76 181 -76q75 0 133 40q29 20 51.5 50t41.5 78z" />
    <glyph glyph-name="d" unicode="d" horiz-adv-x="630" 
d="M614 2v78h-86v634h-85v-62v-208q-27 33 -62 51q-54 26 -108 26q-107 0 -178 -77q-69 -75 -69 -190q0 -112 72 -185q72 -75 179 -75q54 0 106 25q16 8 31 19.5t29 26.5v-64zM444 257q0 -42 -12 -75t-36 -60q-46 -52 -120 -52q-72 0 -119 53q-49 53 -49 131q0 80 49 137
q46 54 118 54q69 0 119 -54q50 -55 50 -134z" />
    <glyph glyph-name="e" unicode="e" 
d="M536 227q-4 76 -22 129t-53 90q-71 75 -180 75q-112 0 -184 -77q-73 -74 -73 -190t74 -191q74 -76 187 -76q20 0 47 6.5t52 14.5t42 14.5l17 6.5l-22 70q-7 -3 -22.5 -9t-34.5 -12t-38.5 -11t-33.5 -5q-80 0 -132 54q-43 45 -50 111h426zM444 305h-331q12 51 43 85
q49 54 122 54q71 0 115 -44q38 -38 51 -96v1z" />
    <glyph glyph-name="f" unicode="f" horiz-adv-x="265" 
d="M348 599q-5 35 -15.5 55t-26.5 37q-32 34 -87 34q-60 0 -97 -42q-36 -41 -36 -107v-69h-73v-78h73v-383l2 -45h176v79h-93v350h93v78h-93v78q0 18 3.5 29t9.5 18q11 14 35 14q19 0 30 -11q5 -5 10.5 -15t11.5 -34z" />
    <glyph glyph-name="g" unicode="g" horiz-adv-x="630" 
d="M618 430v78h-172v-70q-17 20 -33.5 34.5t-34.5 23.5q-52 25 -104 25q-105 0 -179 -80q-72 -78 -72 -191q0 -110 72 -183q73 -73 179 -73q56 0 112 28q36 19 60 47v-67q0 -70 -45 -106q-23 -19 -53 -29t-69 -10q-11 0 -27 2.5t-32.5 6t-30 6.5t-19.5 5l-21 -77l14 -3.5
t33.5 -8t41.5 -8t37 -3.5q113 0 183 63q73 63 73 167v423h87zM446 254q0 -78 -50 -131q-49 -52 -120 -52q-72 0 -120 51q-47 50 -47 132q0 80 49 135q46 54 119 54q70 0 119 -55q50 -54 50 -134z" />
    <glyph glyph-name="h" unicode="h" horiz-adv-x="575" 
d="M553 2v78h-77v300q0 62 -39 103q-39 38 -104 38q-52 0 -103 -23q-35 -16 -63 -37v253h-171v-79h87v-634h163v79h-79v288q35 30 76 50q48 23 83 23q18 0 29.5 -4.5t19.5 -12.5t12.5 -20t4.5 -30v-311v-62z" />
    <glyph glyph-name="i" unicode="i" horiz-adv-x="265" 
d="M176 668q0 23 -17 40q-8 8 -18 12.5t-22 4.5q-11 0 -21 -4.5t-18 -12.5q-17 -17 -17 -41q0 -23 17 -40q8 -8 18 -12.5t22 -4.5q11 0 21 4.5t18 12.5q17 17 17 41zM257 1v79h-81v428h-168v-79h83v-383l2 -45h164z" />
    <glyph glyph-name="j" unicode="j" horiz-adv-x="255" 
d="M178 668q0 12 -4.5 22t-12.5 18t-18 12.5t-22 4.5t-22 -4.5t-18 -12.5q-17 -17 -17 -41q0 -12 4.5 -22t12.5 -18t18 -12.5t22 -4.5t22 4.5t18 12.5q17 17 17 41zM178 -41v549h-173v-79h88v-457q0 -53 -21 -76q-10 -11 -28.5 -17t-56.5 -4v-78q54 -3 88 9t57 33
q24 22 35 52t11 68z" />
    <glyph glyph-name="k" unicode="k" horiz-adv-x="553" 
d="M550 2v78h-83l-224 188l237 162h55v78h-79q-1 -1 -19 -13.5t-50 -35t-69 -48t-77 -52.5t-73 -49v404h-172v-79h87v-589v-45h172v79h-87v146l257 -225z" />
    <glyph glyph-name="l" unicode="l" horiz-adv-x="255" 
d="M254 2v78h-85v634h-171v-79h86v-572v-62z" />
    <glyph glyph-name="m" unicode="m" horiz-adv-x="895" 
d="M838 2v78h-74v300q0 63 -40 103q-20 20 -47 29t-59 9q-49 0 -105 -29q-20 -11 -37 -21.5t-31 -22.5q-16 31 -42 49q-38 24 -87 24q-44 0 -83.5 -16t-74.5 -43v46h-171v-79h86v-366v-62h163v79h-78v288q33 30 75 50q46 23 80 23q18 0 29 -4.5t18 -12.5q8 -8 12 -20t4 -30
v-373h85v363q18 17 36.5 31t38.5 24q41 22 81 22q32 0 47 -17.5t15 -49.5v-311v-62z" />
    <glyph glyph-name="n" unicode="n" horiz-adv-x="563" 
d="M544 -7v78h-75v300q0 64 -40 103q-38 38 -103 38q-50 0 -101 -23q-17 -7 -32.5 -16t-30.5 -20v46h-171v-78h86v-367v-61h162v78h-77v288q16 15 34.5 27.5t40.5 23.5q44 22 83 22q31 0 48 -17q16 -16 16 -50v-311v-61h160z" />
    <glyph glyph-name="o" unicode="o" 
d="M530 254q0 112 -72 189q-74 78 -181 78q-108 0 -181 -78q-71 -75 -71 -189q0 -113 72 -189q73 -78 181 -78q107 0 181 78q71 77 71 189zM444 254q0 -42 -12 -75t-36 -60q-47 -52 -119 -52q-71 0 -119 53q-23 26 -35 59t-12 75t12 75t36 60q47 52 119 52q71 0 119 -53
q23 -26 35 -59t12 -75z" />
    <glyph glyph-name="p" unicode="p" horiz-adv-x="630" 
d="M574 257q0 112 -70 188q-71 76 -177 76q-26 0 -52.5 -7t-52.5 -19q-34 -16 -63 -50v63h-165v-79h80v-578v-62h171v79h-86v192q26 -31 59 -48q26 -12 52 -18.5t55 -6.5q109 0 180 77q69 75 69 193zM493 254q0 -83 -47 -135q-46 -52 -121 -52q-72 0 -119 52q-49 54 -49 137
q0 44 12 77t35 59q49 51 119 51q74 0 122 -53t48 -136z" />
    <glyph glyph-name="q" unicode="q" horiz-adv-x="630" 
d="M613 436v78h-174v-66q-28 31 -61 47q-26 13 -52 19.5t-53 6.5q-105 0 -177 -78q-71 -76 -71 -187q0 -117 70 -193q69 -76 183 -76q54 0 106 26q30 16 56 45v-191h-85v-78h170v62v585h88zM442 256q0 -87 -48 -138t-121 -51t-120 52q-46 52 -46 136q0 81 49 136
q47 52 122 52q70 0 118 -51q23 -25 35 -58.5t12 -77.5h-1z" />
    <glyph glyph-name="r" unicode="r" horiz-adv-x="420" 
d="M400 438v82l-35 1q-34 2 -75 -6.5t-70 -23.5q-11 -6 -21 -14.5t-18 -18.5v50h-175v-79h90v-366v-62h182v79h-97v195q0 86 43 124q22 19 56 29t85 10h35z" />
    <glyph glyph-name="s" unicode="s" horiz-adv-x="475" 
d="M426 145q0 64 -38 101q-19 18 -56 31.5t-91 23.5q-72 13 -94 29q-9 6 -14 16t-5 27q0 30 23 50q11 10 26.5 16t37.5 6q48 0 80 -30q16 -14 24 -34.5t9 -55.5h77v169h-77v-13q-25 22 -53.5 31t-61.5 9q-67 0 -116 -40q-49 -42 -49 -110q0 -69 46 -103q41 -31 130 -46
q39 -7 64 -15.5t37 -16.5q11 -8 16.5 -19.5t5.5 -30.5q0 -33 -31 -57q-33 -24 -81 -24q-61 0 -97 33q-18 16 -27 40.5t-10 66.5h-79v-198h79v31q18 -17 42 -28q40 -18 88 -18q86 0 141 43q54 42 54 116z" />
    <glyph glyph-name="t" unicode="t" horiz-adv-x="276" 
d="M266 4v78l-74 -11q-8 0 -12.5 2t-6.5 4t-4 8.5t-2 20.5v324h99v78h-99v107l-85 -2v-106h-84v-78h84v-333q0 -23 6 -43.5t19 -34.5q27 -28 78 -28z" />
    <glyph glyph-name="u" unicode="u" horiz-adv-x="575" 
d="M550 2v78h-82v428h-85v-62v-296q-31 -29 -73 -52q-45 -24 -85 -24q-30 0 -46 16q-15 17 -15 48v370h-168v-79h83v-300q0 -62 38 -99q37 -36 100 -36q56 0 107 24q16 8 30.5 15.5t28.5 17.5v-50z" />
    <glyph glyph-name="v" unicode="v" horiz-adv-x="553" 
d="M540 430v78h-133l-21 -56l-121 -327l-113 305h58v78h-229v-79h83l167 -435h71l160 436h78z" />
    <glyph glyph-name="w" unicode="w" horiz-adv-x="796" 
d="M766 430v78h-133l-17 -57l-100 -298l-87 277h48v78h-213v-79h49l-90 -284l-93 306l-17 57h-127v-79h67l135 -435h75l107 373l111 -373h72l141 436h72z" />
    <glyph glyph-name="x" unicode="x" horiz-adv-x="563" 
d="M530 2v78h-68l-148 182l131 168h73v78h-208v-79h34l-81 -103l-83 104h39v78h-210v-79h70l134 -167l-144 -189l-56 -72h206v79h-46l91 119l124 -153l36 -45z" />
    <glyph glyph-name="y" unicode="y" horiz-adv-x="563" 
d="M546 430v78h-230v-79h68l-110 -290l-128 313l-21 56h-140v-79h83l164 -398l-86 -242h81l242 641h77z" />
    <glyph glyph-name="z" unicode="z" horiz-adv-x="508" 
d="M453 441v67h-401v-79h58h232l-314 -360v-68h424v207h-76v-129h-238z" />
    <glyph glyph-name="braceleft" unicode="{" horiz-adv-x="353" 
d="M302 -200v81q-35 0 -50 4t-23 12q-7 7 -12 26.5t-5 56.5v117q0 76 -28 119q-19 26 -42 41q24 16 42 42q29 44 29 118v117q0 38 4.5 57t11.5 27q7 7 22.5 11.5t50.5 4.5v80h-33q-38 0 -67 -11t-46 -35q-31 -44 -31 -105v-137q0 -61 -20 -96q-8 -14 -24 -22t-50 -8v-87
q34 0 50 -7.5t25 -22.5q9 -17 14.5 -40.5t5.5 -54.5v-137q0 -61 31 -105q33 -46 112 -46h33z" />
    <glyph glyph-name="bar" unicode="|" horiz-adv-x="526" 
d="M291 -223v937h-86v-937h86z" />
    <glyph glyph-name="braceright" unicode="}" horiz-adv-x="353" 
d="M302 214v87q-34 0 -50 7.5t-25 22.5q-9 17 -14.5 40.5t-5.5 54.5v137q0 61 -31 105q-33 46 -112 46h-33v-81q35 0 50 -4t23 -12q7 -7 12 -26.5t5 -56.5v-117q0 -76 28 -119q19 -26 42 -41q-24 -17 -42 -42q-29 -44 -29 -118v-117q0 -38 -4.5 -57t-11.5 -27
q-7 -7 -22.5 -11.5t-50.5 -4.5v-80h33q38 0 67 11t46 35q31 44 31 105v137q0 61 20 96q8 14 24 22t50 8z" />
    <glyph glyph-name="asciitilde" unicode="~" horiz-adv-x="696" 
d="M607 349l-2 93q-39 -27 -60 -40.5t-36 -22.5q-30 -16 -61 -16q-17 0 -44 8.5t-66 28.5q-38 19 -71 29t-61 10q-27 0 -51 -7t-44 -19q-20 -11 -34 -21t-28 -21v-96q38 29 58 43t37 22q31 17 63 17q35 0 110 -37q39 -19 72 -29t61 -10q27 0 50.5 7t43.5 19q20 11 34.5 21
t28.5 21z" />
    <glyph glyph-name="quotesinglbase" unicode="&#x201a;" horiz-adv-x="265" 
d="M170 4v124h-90v-127h25q0 -18 -2 -30t-4 -19q-2 -5 -6 -6.5t-22 -1.5v-69q33 2 51 11.5t29 27.5q19 31 19 90z" />
    <glyph glyph-name="florin" unicode="&#x192;" 
d="M557 741q-23 8 -35.5 11.5t-23.5 5.5t-23 3.5t-26 1.5q-56 0 -97 -33q-35 -32 -49 -90l-21 -87h-83l-15 -78h82l-120 -553q-6 -24 -20 -35q-6 -5 -15.5 -8.5t-24.5 -3.5q-19 0 -36 4q-10 2 -19.5 4.5t-26.5 7.5l-18 -81q19 -6 30.5 -9.5t23.5 -5.5t23.5 -4t22.5 -2
q35 0 62 8.5t46 26.5q34 35 49 108l118 544h108l18 78h-109l15 65q9 36 23 45q14 12 37 12q12 0 23 -1t20 -3l18 -4t27 -7z" />
    <glyph glyph-name="quotedblbase" unicode="&#x201e;" horiz-adv-x="508" 
d="M408 4v124h-90v-127h25q0 -18 -2 -30t-4 -19q-2 -5 -6 -6.5t-22 -1.5v-69q33 2 51 11.5t29 27.5q19 31 19 90zM169 4v124h-89v-127h25q0 -18 -2 -30t-4 -19q-2 -5 -6 -6.5t-22 -1.5v-69q33 2 51 11.5t29 27.5q19 31 19 90h-1z" />
    <glyph glyph-name="ellipsis" unicode="&#x2026;" horiz-adv-x="1061" 
d="M883 2v97h-90v-98zM549 1v98h-89v-98h89zM216 1v98h-89v-98h89z" />
    <glyph glyph-name="dagger" unicode="&#x2020;" horiz-adv-x="498" 
d="M475 400v95q-57 -1 -88.5 -3t-43.5 -7q-10 -5 -78 -8q2 47 4 71.5t4 29.5q5 10 6.5 43t2.5 93h-92q0 -60 2 -93t7 -44q2 -5 4 -28.5t4 -71.5q-36 2 -55 4t-24 4q-11 5 -43 7t-89 3v-96q57 0 89 2t43 7q9 5 79 9q0 -16 -0.5 -28t-1.5 -23q-2 -11 -5 -24t-11 -31
q0 -45 2 -102t5 -129t6 -139t6 -140h56l19 510q-16 35 -17 56q0 9 -0.5 21.5t-0.5 28.5q68 -4 79 -9t42.5 -7t88.5 -2v1z" />
    <glyph glyph-name="daggerdbl" unicode="&#x2021;" horiz-adv-x="520" 
d="M485 6v95q-57 -1 -88.5 -3t-43.5 -7q-10 -5 -78 -8q1 20 1.5 39.5t1.5 37.5q3 39 29 98q-13 29 -20 52t-9 45q-3 36 -3 74q68 -4 79 -9t42.5 -7t88.5 -2v96q-57 -1 -88.5 -3t-43.5 -7q-10 -5 -78 -8q2 37 5 57t5 25q2 10 4 43.5t2 99.5h-90q0 -63 1.5 -97t5.5 -46
q2 -5 4.5 -25t4.5 -57q-36 2 -55 4t-24 4q-11 5 -43 7t-89 3v-96q57 0 89 2t43 7q9 5 79 9q-1 -20 -1.5 -38.5t-2.5 -36.5q-2 -22 -8.5 -44.5t-19.5 -51.5q25 -59 28 -98q1 -18 2 -37.5t2 -39.5q-36 2 -55 4t-24 4q-11 5 -43 7t-89 3v-96q57 0 89 2t43 7q9 5 79 9
q-2 -38 -4.5 -58.5t-4.5 -24.5q-3 -9 -5 -43.5t-2 -98.5h90q0 121 -7 142q-5 9 -9 83q68 -4 79 -9t42.5 -7t88.5 -2v1z" />
    <glyph glyph-name="circumflex" unicode="&#x2c6;" horiz-adv-x="353" 
d="M349 542l-146 178h-74l-145 -179h76l106 99l107 -99z" />
    <glyph glyph-name="perthousand" unicode="&#x2030;" horiz-adv-x="1061" 
d="M993 186q0 92 -38 145q-38 54 -114 54q-74 0 -114 -55q-20 -26 -29 -62.5t-9 -81.5q0 -94 38 -145q40 -54 114 -54q76 0 115 54q20 26 28.5 62.5t8.5 82.5zM653 186q0 45 -8.5 81.5t-28.5 63.5q-38 54 -114 54q-74 0 -114 -55q-20 -26 -29 -62.5t-9 -81.5q0 -94 38 -145
q40 -54 114 -54q76 0 115 54q20 26 28.5 62.5t8.5 82.5h-1zM620 714h-52h-14h-334q-27 11 -60 11q-75 0 -114 -54q-20 -26 -29 -62.5t-9 -81.5q0 -93 37 -145q19 -27 48 -40.5t67 -13.5q76 0 115 54q20 26 28.5 62.5t8.5 82.5q0 87 -34 139h233l-467 -665h75zM920 186
q0 -36 -5.5 -62t-15.5 -44q-18 -32 -57 -32q-37 0 -57 32q-10 17 -15.5 43t-5.5 62q0 67 22 106q19 33 55 33q38 0 58 -33q10 -17 15.5 -43t5.5 -62zM580 186q0 -36 -5 -62t-15 -44q-18 -32 -57 -32q-37 0 -57 32q-10 17 -15.5 43t-5.5 62q0 67 22 106q19 33 55 33
q38 0 58 -33q10 -17 15.5 -43t5.5 -62h-1zM238 527q0 -35 -5.5 -61.5t-15.5 -44.5q-20 -32 -56 -32q-39 0 -57 33q-10 18 -15.5 43.5t-5.5 60.5t6 61t16 44q19 33 55 33q38 0 58 -33q10 -17 15.5 -43t5.5 -61h-1z" />
    <glyph glyph-name="Scaron" unicode="&#x160;" horiz-adv-x="575" 
d="M458 835h-80l-107 -88l-106 88h-79l148 -164h74zM515 178q0 81 -56 128q-27 23 -76 42t-118 34q-37 8 -66 18t-49 23q-36 22 -36 65q0 36 34 63q36 27 92 27q37 0 65.5 -4.5t51.5 -20.5q11 -8 18 -18.5t11.5 -21.5t6.5 -21t2 -16v-29h88l-0.5 11.5t-2.5 27t-5.5 32.5
t-9.5 28q-8 14 -15 23.5t-19 21.5q-20 20 -39.5 30t-43.5 19q-26 11 -52.5 13.5t-52.5 2.5q-89 0 -151 -47q-64 -47 -64 -119q0 -78 55 -123q54 -42 162 -66q54 -11 89 -24t55 -26q36 -24 36 -67q0 -50 -39 -81q-21 -16 -47 -24.5t-58 -8.5q-73 0 -125 43q-50 41 -50 93v39
h-80v-244h80v54q25 -24 59 -39q55 -24 115 -24q98 0 165 52q70 53 70 134z" />
    <glyph glyph-name="guilsinglleft" unicode="&#x2039;" horiz-adv-x="243" 
d="M254 2l-162 255l162 256h-94l-164 -256l164 -256z" />
    <glyph glyph-name="OE" unicode="&#x152;" horiz-adv-x="1116" 
d="M1010 1v74h-63h-338v218h282v75h-282v204h321v-108h79v182h-602q-169 0 -271 -86q-103 -87 -103 -232q0 -154 104 -241q102 -86 281 -86h592zM519 76l-99 -1q-140 0 -219 65q-78 63 -78 179q0 123 76 187q38 32 93.5 49t130.5 17h96v-496z" />
    <glyph glyph-name="quoteleft" unicode="&#x2018;" horiz-adv-x="265" 
d="M179 645v69q-33 -2 -51 -11.5t-29 -27.5q-19 -32 -19 -90v-124h90v127h-25q0 18 2 30t4 19q2 5 6 6.5t22 1.5z" />
    <glyph glyph-name="quoteright" unicode="&#x2019;" horiz-adv-x="265" 
d="M170 590v124h-90v-127h25q0 -18 -2 -30t-4 -19q-2 -5 -6 -6.5t-22 -1.5v-69q33 2 51.5 11.5t28.5 27.5q19 31 19 90z" />
    <glyph glyph-name="quotedblleft" unicode="&#x201c;" horiz-adv-x="508" 
d="M406 645v69q-33 -2 -51 -11.5t-29 -27.5q-19 -32 -19 -90v-124h90v127h-25q0 18 2 30t4 19q2 5 6 6.5t22 1.5zM171 645v69q-32 -2 -50 -11.5t-29 -27.5q-19 -32 -19 -90v-124h90v127h-25q0 18 2 30t4 19q2 5 6 6.5t22 1.5h-1z" />
    <glyph glyph-name="quotedblright" unicode="&#x201d;" horiz-adv-x="508" 
d="M406 590v124h-90v-127h25q0 -18 -2 -30t-4 -19q-2 -5 -6 -6.5t-22 -1.5v-69q33 2 51 11.5t29 27.5q19 31 19 90zM171 590v124h-89v-127h25q0 -18 -2 -30t-4 -19q-2 -5 -6 -6.5t-22 -1.5v-69q33 2 51 11.5t29 27.5q19 31 19 90h-1z" />
    <glyph glyph-name="bullet" unicode="&#x2022;" horiz-adv-x="530" 
d="M347 322q0 40 -29 69q-30 28 -69 28q-40 0 -68 -28q-29 -29 -29 -69q0 -21 7.5 -38t21.5 -31t31 -21.5t38 -7.5q20 0 37 7.5t31 21.5t21.5 31t7.5 38z" />
    <glyph glyph-name="endash" unicode="&#x2013;" horiz-adv-x="530" 
d="M517 226v86h-534v-87z" />
    <glyph glyph-name="emdash" unicode="&#x2014;" horiz-adv-x="1061" 
d="M1017 226v86h-1034v-87z" />
    <glyph glyph-name="tilde" unicode="&#x2dc;" horiz-adv-x="353" 
d="M352 691h-63q-8 -21 -13 -29.5t-10 -11.5q-11 -8 -23 -8q-20 0 -63 23q-47 27 -87 27q-32 0 -61 -26q-14 -12 -25 -33.5t-25 -62.5h61q8 21 14.5 29.5t11.5 12.5q10 7 22 7q10 0 25 -5.5t38 -18.5q23 -12 45 -19t42 -7q17 0 32 7t29 19t25 33.5t25 62.5z" />
    <glyph glyph-name="trademark" unicode="&#x2122;" horiz-adv-x="995" 
d="M840 282v432h-104l-91 -285l-88 285h-105v-433h80v269l83 -269h58l90 274v-274zM440 638v76h-344v-77h135v-356h77v357h132z" />
    <glyph glyph-name="scaron" unicode="&#x161;" horiz-adv-x="475" 
d="M407 721h-76l-107 -99l-106 99h-76l145 -179h74zM426 145q0 63 -38 101q-38 35 -147 55q-71 13 -95 29q-8 6 -13.5 16t-5.5 27q0 29 23 50q11 10 26.5 16t37.5 6q48 0 81 -30q15 -14 23.5 -34.5t9.5 -55.5h77v169h-78v-13q-25 22 -53 31t-61 9q-66 0 -117 -40
q-49 -42 -49 -110q0 -69 46 -103q41 -31 130 -46q40 -7 64.5 -15.5t36.5 -16.5q11 -8 17 -19.5t6 -30.5q0 -34 -32 -57q-32 -24 -80 -24q-62 0 -98 33q-17 16 -26.5 40.5t-10.5 66.5h-79v-198h80v31q17 -17 41 -28q42 -18 88 -18q88 0 141 43q55 43 55 116z" />
    <glyph glyph-name="guilsinglright" unicode="&#x203a;" horiz-adv-x="243" 
d="M233 257l-164 256h-94l162 -256l-162 -256h94z" />
    <glyph glyph-name="oe" unicode="&#x153;" horiz-adv-x="983" 
d="M910 227q-4 72 -21 122.5t-49 90.5q-65 81 -170 81q-36 0 -68.5 -10t-62.5 -28q-45 -29 -75 -75q-25 44 -70 74q-29 19 -62 29t-71 10q-104 0 -171 -78q-35 -38 -51.5 -85.5t-16.5 -103.5q0 -111 69 -189t170 -78q73 0 132 36q44 27 71 72q33 -48 79 -75q55 -33 130 -33
q38 0 73.5 10.5t78.5 36.5l-42 66q-32 -21 -56.5 -29.5t-50.5 -8.5q-74 0 -123 54q-41 45 -48 111h405zM818 305h-309q10 50 40 85q45 54 113 54q66 0 107 -43q37 -39 49 -97v1zM420 254q0 -83 -45 -135q-43 -52 -110 -52q-69 0 -112 53q-22 26 -33.5 59t-11.5 75t11.5 75.5
t34.5 59.5q42 52 111 52q68 0 111 -53q22 -26 33.5 -59t11.5 -75h-1z" />
    <glyph glyph-name="Ydieresis" unicode="&#x178;" horiz-adv-x="641" 
d="M438 706v91h-98v-91h98zM265 706v91h-98v-91h98zM639 572v74h-257v-74h72l-144 -205l-167 239l-29 40h-150v-74h96l200 -284v-213h-94v-74h184v57v230l200 284h89z" />
    <glyph glyph-name="exclamdown" unicode="&#xa1;" horiz-adv-x="265" 
d="M170 381v127h-90v-128zM168 -205l-1 230l-12 303h-60l-12 -300l-1 -233h86z" />
    <glyph glyph-name="cent" unicode="&#xa2;" horiz-adv-x="541" 
d="M501 155l-72 31q-14 -35 -29.5 -56t-33.5 -35q-37 -28 -90 -28q-7 0 -13 0.5t-11 1.5l90 345q5 -3 9.5 -6.5t9.5 -6.5q20 -14 30.5 -40t12.5 -74h76v214h-77v-36q-9 9 -19 15.5t-22 12.5l54 211h-68l-49 -192q-8 1 -15 1h-15q-106 0 -175 -76q-70 -76 -70 -187
q0 -113 70 -188q30 -33 75 -53l-56 -220h68l51 201q9 -1 19.5 -2t23.5 -1q75 0 133 40q29 20 51.5 50t41.5 78zM278 433l-88 -344q-21 13 -34 28q-22 26 -34 58.5t-12 74.5t11.5 75t33.5 59q44 50 114 50q2 0 4.5 -0.5t4.5 -0.5z" />
    <glyph glyph-name="sterling" unicode="&#xa3;" horiz-adv-x="553" 
d="M520 159v26h-73q-1 -42 -5 -63.5t-12 -32.5q-14 -22 -43 -22q-27 0 -53 19q-14 11 -30 23t-33 28q5 18 6 34q2 10 2 20v24q0 32 -7 63q-2 10 -4 19t-5 18h110v78h-137l-16 42t-15 43q-16 45 -16 79q0 44 30 68q28 25 72 25q27 0 45.5 -8t31.5 -22t19.5 -35t7.5 -58h82
q-2 54 -14 89t-37 60q-51 49 -136 49q-84 0 -136 -50q-49 -51 -49 -121q0 -22 4 -44t11 -44q5 -17 12 -35.5t16 -38.5h-111v-78h141q5 -11 9.5 -24t8.5 -28q9 -36 9 -66l-1 -10q-15 8 -31 12.5t-33 4.5q-24 0 -45 -7.5t-37 -23.5q-32 -30 -32 -74q0 -45 30 -76
q31 -30 77 -30q33 0 66 22q27 19 45 50q29 -26 65.5 -49t77.5 -23q60 0 97 49q36 48 36 118zM189 113q-5 -11 -11 -20t-13 -17q-15 -15 -33 -15q-17 0 -26 11q-10 8 -10 23q0 19 13 27q16 12 32 12q15 0 26 -5.5t22 -15.5z" />
    <glyph glyph-name="currency" unicode="&#xa4;" horiz-adv-x="796" 
d="M761 225l-77 40q-39 -96 -99.5 -145.5t-162.5 -49.5q-94 0 -159 44t-91 115h385v73h-401q-1 5 -1 11v11v15q0 8 2 16h400v73h-382q28 66 90 108t153 42q40 0 79 -10t71 -30.5t54.5 -50.5t30.5 -70h78v175h-80v-21q-46 41 -105.5 63t-125.5 22q-65 0 -120 -16t-98.5 -46
t-74.5 -72t-47 -94h-81v-73h67q-1 -8 -1 -16v-15v-11t1 -11h-67v-73h78q14 -54 44.5 -98t74.5 -74.5t101 -47.5t124 -17q127 0 209 59t131 174z" />
    <glyph glyph-name="currency" unicode="&#x20ac;" horiz-adv-x="796" 
d="M761 225l-77 40q-39 -96 -99.5 -145.5t-162.5 -49.5q-94 0 -159 44t-91 115h385v73h-401q-1 5 -1 11v11v15q0 8 2 16h400v73h-382q28 66 90 108t153 42q40 0 79 -10t71 -30.5t54.5 -50.5t30.5 -70h78v175h-80v-21q-46 41 -105.5 63t-125.5 22q-65 0 -120 -16t-98.5 -46
t-74.5 -72t-47 -94h-81v-73h67q-1 -8 -1 -16v-15v-11t1 -11h-67v-73h78q14 -54 44.5 -98t74.5 -74.5t101 -47.5t124 -17q127 0 209 59t131 174z" />
    <glyph glyph-name="yen" unicode="&#xa5;" 
d="M570 572v74h-259v-74h77l-39 -73h-75h-57l-36 73h78v74h-276v-74h95l37 -73h-132v-74h171l38 -74h-209v-75h247l1 -1v-200h-94v-74h281v74h-97v201h246v75h-207l40 74h167v74h-126l39 73h90zM309 425l-28 -51l-25 51h18h35z" />
    <glyph glyph-name="brokenbar" unicode="&#xa6;" horiz-adv-x="526" 
d="M291 317v397h-86v-398zM291 -223v397h-86v-397h86z" />
    <glyph glyph-name="section" unicode="&#xa7;" horiz-adv-x="465" 
d="M438 230q0 61 -39 105q-37 41 -111 74l-81 35q-58 24 -84 54q-23 28 -23 61q0 45 33 66q37 25 73 25q47 0 82 -27q15 -12 25 -34.5t13 -64.5h79q-3 60 -19 97t-47 60q-59 44 -128 44q-78 0 -135 -45t-57 -125q0 -39 18 -75q14 -29 39 -52q-16 -12 -29.5 -27t-22.5 -32
q-25 -44 -25 -85q0 -62 39 -105q37 -41 111 -74l81 -35q58 -24 84 -54q23 -28 23 -61q0 -45 -33 -66q-37 -25 -73 -25q-47 0 -82 27q-15 12 -25 34.5t-13 64.5h-78q3 -60 18.5 -97t46.5 -60q59 -44 128 -44q78 0 135 45t57 125q0 39 -18 75q-14 29 -39 52q16 12 29.5 27
t22.5 32q25 44 25 85zM356 224q0 -31 -18 -59q-16 -23 -39 -38l-135 60q-27 12 -43.5 24.5t-24.5 23.5q-16 21 -16 57q0 29 19 58q15 22 39 39l135 -61q27 -12 43.5 -24t24.5 -23q16 -21 16 -57h-1z" />
    <glyph glyph-name="dieresis" unicode="&#xa8;" horiz-adv-x="353" 
d="M302 582v97h-98v-98zM128 581v98h-97v-98h97z" />
    <glyph glyph-name="copyright" unicode="&#xa9;" horiz-adv-x="851" 
d="M790 374q0 161 -114 275t-276 114q-161 0 -275 -114t-114 -276q0 -161 114 -275t276 -114q161 0 275 114t114 276zM709 373q0 -127 -91 -218t-218 -91q-126 0 -218 92q-91 91 -91 218q0 126 92 218q91 91 218 91q126 0 218 -92q91 -91 91 -218h-1zM587 298l-75 28
q-10 -34 -21 -52.5t-25 -29.5q-27 -24 -63 -24q-56 0 -86 44q-32 46 -32 115q0 60 33 102q31 39 90 39q34 0 58 -21q12 -11 21.5 -25t18.5 -39l80 24q-19 39 -36 62t-38 39q-41 32 -103 32q-96 0 -153 -63q-56 -62 -56 -156q0 -100 59 -165t146 -65q62 0 111 37q24 18 41 46
t30 72z" />
    <glyph glyph-name="ordfeminine" unicode="&#xaa;" horiz-adv-x="353" 
d="M347 400v60h-52v167q0 50 -37 75q-35 23 -94 23q-53 0 -87 -21q-16 -10 -29.5 -26t-28.5 -46l59 -14q8 17 15 25t16 14q9 5 22 8.5t32 3.5q17 0 30 -3.5t22 -8.5q6 -5 10 -11t4 -19v-41q-8 3 -15 4.5t-15 3.5q-13 2 -24 4t-22 2q-58 0 -94 -29q-38 -29 -38 -75
q0 -40 33 -71q31 -30 80 -30q25 0 49.5 8.5t45.5 21.5v-26zM229 490q-18 -16 -39 -26q-26 -12 -48 -12q-14 0 -23 3.5t-17 10.5q-13 12 -13 27q0 19 18 36q8 7 20.5 11t31.5 4q23 0 41 -7q16 -5 29 -12v-35z" />
    <glyph glyph-name="guillemotleft" unicode="&#xab;" horiz-adv-x="498" 
d="M481 2l-162 255l162 256h-94l-164 -256l164 -256zM268 1l-162 256l162 256h-94l-164 -256l164 -256h94z" />
    <glyph glyph-name="logicalnot" unicode="&#xac;" horiz-adv-x="1073" 
d="M1017 1v74h-83l-271 268l256 229h84v74h-117l-49 -45l-296 -261l295 -294l44 -45h137zM670 1v74h-94v264v25l65 59l-46 42l-21 -19q1 16 1.5 37.5t0.5 40.5v34v14h93v74h-273v-71v-3h7h83v-71l-62 55q-14 14 -32 21.5t-38 6.5q-40 -2 -70 -30q-25 -21 -39 -58
q-5 -11 -7 -21.5t-4 -20.5q-17 4 -38 1q-29 -4 -53 -27q-26 -23 -39 -55q-6 -15 -9 -30l-17 16l-89 -81l46 -42l40 36l167 -151l32 -29l86 78l-46 42l-36 -33l-128 115q2 24 10 47q9 26 25 40q15 12 26 12q7 -1 13.5 -3.5t14.5 -9.5l177 -160l49 45l-173 156q1 25 9 48
q9 23 26 39q14 13 25 11q13 0 28 -12l106 -96v-353v-57h184zM637 -115q0 37 -30 64q-28 25 -68 25q-39 0 -67 -25q-30 -27 -30 -64t30 -64q28 -26 68 -26q39 0 67 26q30 27 30 64z" />
    <glyph glyph-name="registered" unicode="&#xae;" horiz-adv-x="851" 
d="M790 374q0 161 -114 275t-276 114q-161 0 -275 -114t-114 -276q0 -161 114 -275t276 -114q161 0 275 114t114 276zM709 373q0 -127 -91 -218t-218 -91q-126 0 -218 92q-91 91 -91 218q0 126 92 218q91 91 218 91q126 0 218 -92q91 -91 91 -218h-1zM589 156
q-26 60 -42.5 94.5t-29.5 54.5q-16 23 -36 38q15 5 28 13t23 19q34 37 34 86q0 24 -10 45.5t-27 39.5q-20 19 -48 27.5t-64 8.5h-184v-426h86v171h15q53 0 80 -24q14 -12 33 -46.5t46 -100.5h96zM476 459q0 -28 -17 -43q-8 -6 -26.5 -11t-50.5 -5h-64v109h69q25 0 42.5 -3.5
t29.5 -9.5q8 -4 13 -12.5t5 -24.5h-1z" />
    <glyph glyph-name="macron" unicode="&#xaf;" horiz-adv-x="353" 
d="M344 602v62h-355v-63z" />
    <glyph glyph-name="degree" unicode="&#xb0;" horiz-adv-x="420" 
d="M356 567q0 65 -47 112q-46 46 -111 46t-112 -47q-46 -46 -46 -111t47 -112q46 -46 111 -46t112 47q46 46 46 111zM282 567q0 -35 -25 -60t-59 -25t-60 26q-25 25 -25 59t26 60q25 25 59 25t60 -26q25 -25 25 -59h-1z" />
    <glyph glyph-name="plusminus" unicode="&#xb1;" horiz-adv-x="708" 
d="M612 379v77h-241v241h-77v-242h-240v-77h241v-241h77v242h240zM612 1v78h-558v-78h558z" />
    <glyph glyph-name="twosuperior" unicode="&#xb2;" horiz-adv-x="343" 
d="M293 477h-60l-3 -88h-152q8 25 26 46q28 33 94 65q45 24 68 50q22 28 22 67q0 23 -9 44t-29 36q-37 29 -93 29q-61 0 -100 -36t-39 -92v-25h63v23q0 33 19 55q18 20 58 20q29 0 47 -16q18 -15 18 -38q0 -25 -15 -38q-16 -18 -52 -35q-83 -43 -116 -95
q-16 -25 -24.5 -48.5t-8.5 -44.5l4 -23h277z" />
    <glyph glyph-name="threesuperior" unicode="&#xb3;" horiz-adv-x="343" 
d="M312 448q0 21 -7 40.5t-24 33.5q-8 5 -15.5 10t-16.5 9q5 4 10 8.5t9 9.5q20 25 20 58q0 49 -38 79t-89 30q-55 0 -90 -29q-18 -16 -27 -38.5t-11 -61.5h63q1 28 5.5 40t12.5 20q17 14 45 14q29 0 47 -16q17 -15 17 -37q0 -25 -20 -40q-22 -16 -54 -16l-29 2v-60l45 4
q20 1 35 -4t27 -14q21 -15 21 -42t-23 -45q-12 -9 -27 -14.5t-35 -5.5q-39 0 -63 21q-12 11 -19.5 27t-10.5 45h-61q2 -44 14 -69.5t35 -43.5q43 -35 104 -35q64 0 106 33q44 33 44 87z" />
    <glyph glyph-name="acute" unicode="&#xb4;" horiz-adv-x="353" 
d="M283 726h-99l-121 -189h76z" />
    <glyph glyph-name="mu" unicode="&#xb5;" 
d="M554 2v78h-83v428h-167v-79h83v-279q-32 -30 -74 -52q-44 -24 -81 -24q-32 0 -46 16.5t-14 47.5v370h-168v-79h84v-640h82v222q2 -2 3.5 -2.5t3.5 -2.5q24 -12 55 -12q27 0 52 6.5t49 17.5q14 7 27.5 15t26.5 16v-48z" />
    <glyph glyph-name="paragraph" unicode="&#xb6;" horiz-adv-x="685" 
d="M635 614v100h-356q-111 0 -180 -62q-69 -60 -69 -163q0 -93 65 -158q60 -58 155 -63v-479h97v825h97v-825h97v825h94z" />
    <glyph glyph-name="periodcentered" unicode="&#xb7;" horiz-adv-x="310" 
d="M175 289v97h-90v-98z" />
    <glyph glyph-name="periodcentered" unicode="&#x2219;" horiz-adv-x="310" 
d="M175 289v97h-90v-98z" />
    <glyph glyph-name="cedilla" unicode="&#xb8;" horiz-adv-x="353" 
d="M256 -100q0 39 -26 65q-17 19 -44 25l7 38h-66l-20 -107q28 0 39 -2t16 -6q11 -8 11 -20q0 -19 -17 -27q-23 -13 -57 -13l-44 2v-66h31q75 0 121 26q49 27 49 85z" />
    <glyph glyph-name="onesuperior" unicode="&#xb9;" horiz-adv-x="343" 
d="M255 334v56h-60v330h-125v-57h60v-274h-61v-56z" />
    <glyph glyph-name="ordmasculine" unicode="&#xba;" horiz-adv-x="376" 
d="M348 558q0 70 -49 119q-50 48 -121 48t-122 -49q-48 -50 -48 -118q0 -70 49 -119q49 -48 121 -48t122 48q48 49 48 119zM280 558q0 -48 -29 -76q-29 -30 -73 -30q-45 0 -74 31q-29 29 -29 75t30 75q28 30 73 30t74 -31q29 -29 29 -74h-1z" />
    <glyph glyph-name="guillemotright" unicode="&#xbb;" horiz-adv-x="498" 
d="M460 257l-164 256h-94l162 -256l-162 -256h94zM247 257l-164 256h-94l162 -256l-162 -256h94z" />
    <glyph glyph-name="onequarter" unicode="&#xbc;" horiz-adv-x="895" 
d="M727 105v54h-69v232h-52l-193 -252q11 -8 14.5 -11t5.5 -5q1 -2 2 -5t6 -14h157v-47h-48v-56h146v57h-38v47h69zM671 714h-76l-502 -713h76zM256 334v56h-60v330h-125v-57h60v-274h-61v-56zM598 158h-100l100 133v-133z" />
    <glyph glyph-name="onehalf" unicode="&#xbd;" horiz-adv-x="895" 
d="M767 145h-60l-3 -88h-152q8 25 26 46q28 33 94 65q45 24 68 50q22 28 22 67q0 23 -9 44t-29 36q-37 29 -93 29q-61 0 -100 -36t-39 -92v-25h63v23q0 33 19 55q18 20 58 20q29 0 47 -16q18 -15 18 -38q0 -25 -15 -38q-16 -18 -52 -35q-83 -43 -116 -95
q-16 -25 -24.5 -48.5t-8.5 -44.5l4 -23h277zM670 714h-76l-502 -713h76zM255 334v56h-60v330h-125v-57h60v-274h-61v-56z" />
    <glyph glyph-name="threequarters" unicode="&#xbe;" horiz-adv-x="895" 
d="M800 105v54h-69v232h-52l-193 -252q11 -8 14.5 -11t5.5 -5q1 -2 2 -5t6 -14h157v-47h-48v-56h146v57h-38v47h69zM745 714h-76l-502 -713h76zM349 448q0 21 -7 40.5t-24 33.5q-8 5 -15.5 10t-16.5 9q5 4 10 8.5t9 9.5q20 25 20 58q0 49 -38 79t-89 30q-55 0 -90 -29
q-18 -16 -27 -38.5t-11 -61.5h63q1 28 5.5 40t12.5 20q17 14 45 14q29 0 47 -16q17 -15 17 -37q0 -25 -20 -40q-22 -16 -54 -16l-29 2v-60l45 4q20 1 35 -4t27 -14q21 -15 21 -42t-23 -45q-12 -9 -27 -14.5t-35 -5.5q-39 0 -63 21q-12 11 -19.5 27t-10.5 45h-61
q2 -44 14 -69.5t35 -43.5q43 -35 104 -35q64 0 106 33q44 33 44 87zM671 158h-100l100 133v-133z" />
    <glyph glyph-name="questiondown" unicode="&#xbf;" horiz-adv-x="475" 
d="M294 382v127h-90v-128zM435 3h-81q0 -42 -8.5 -66t-25.5 -40q-32 -34 -86 -34q-56 0 -91 37q-35 35 -35 85q0 35 11 57.5t31 35.5q35 22 81 22q17 0 40 -4l24 9l-21 220h-54l-12 -146q-83 0 -133 -58q-50 -56 -50 -135q0 -38 14 -72t40 -66q54 -63 150 -63q97 0 152 61
q27 30 40.5 67t13.5 91v-1z" />
    <glyph glyph-name="Agrave" unicode="&#xc0;" horiz-adv-x="696" 
d="M435 666l-124 174h-103l148 -174h79zM697 1v74h-89l-194 497h77v74h-221l-19 -51l-200 -520h-91v-74h176v57l67 175h250l62 -158h-77v-74h259zM425 308h-193l97 254z" />
    <glyph glyph-name="Aacute" unicode="&#xc1;" horiz-adv-x="696" 
d="M449 840h-103l-124 -174h79zM697 1v74h-89l-194 497h77v74h-221l-19 -51l-200 -520h-91v-74h176v57l67 175h250l62 -158h-77v-74h259zM425 308h-193l97 254z" />
    <glyph glyph-name="Acircumflex" unicode="&#xc2;" horiz-adv-x="696" 
d="M515 670l-150 164h-74l-148 -164h79l106 88l107 -88h80zM697 1v74h-89l-194 497h77v74h-221l-19 -51l-200 -520h-91v-74h176v57l67 175h250l62 -158h-77v-74h259zM425 308h-193l97 254z" />
    <glyph glyph-name="Atilde" unicode="&#xc3;" horiz-adv-x="696" 
d="M515 808h-63q-8 -19 -13.5 -26.5t-10.5 -10.5q-11 -6 -23 -6q-10 0 -25.5 5t-37.5 16q-49 23 -87 23q-33 0 -61 -23q-14 -11 -25.5 -31t-25.5 -59h62q11 24 21.5 33.5t26.5 9.5q10 0 25.5 -5t38.5 -16q48 -23 86 -23q33 0 61 23q14 11 25.5 31t25.5 59zM697 1v74h-89
l-194 497h77v74h-221l-19 -51l-200 -520h-91v-74h176v57l67 175h250l62 -158h-77v-74h259zM425 308h-193l97 254z" />
    <glyph glyph-name="Adieresis" unicode="&#xc4;" horiz-adv-x="696" 
d="M464 706v91h-98v-91h98zM291 706v91h-98v-91h98zM697 1v74h-89l-194 497h77v74h-221l-19 -51l-200 -520h-91v-74h176v57l67 175h250l62 -158h-77v-74h259zM425 308h-193l97 254z" />
    <glyph glyph-name="Aring" unicode="&#xc5;" horiz-adv-x="696" 
d="M437 751q0 42 -33 72q-31 28 -76 28t-77 -29q-31 -29 -31 -71q0 -40 32 -70q30 -29 76 -29q45 0 76 28q33 30 33 71zM697 1v74h-89l-194 497h77v74h-221l-19 -51l-200 -520h-91v-74h176v57l67 175h250l62 -158h-77v-74h259zM373 751q0 -16 -12 -26q-14 -12 -33 -12
t-32 11q-12 12 -12 27q0 16 13 28q11 11 31 11q19 0 33 -12q12 -11 12 -27zM425 308h-193l97 254z" />
    <glyph glyph-name="AE" unicode="&#xc6;" horiz-adv-x="995" 
d="M910 1v184h-80v-110h-323v218h284v75h-284v204h340h62v74h-703v-74h99q-30 -49 -67.5 -110.5t-75.5 -125t-75 -124t-65 -107.5t-45.5 -75.5l-17.5 -28.5h204v74h-66l135 219h185v-219h-113v-74h606zM417 369h-141l125 203h16v-203z" />
    <glyph glyph-name="Ccedilla" unicode="&#xc7;" horiz-adv-x="796" 
d="M741 225l-77 40q-25 -63 -51.5 -98.5t-57.5 -55.5q-64 -41 -153 -41q-119 0 -192 72q-75 72 -75 182q0 112 74 183q73 71 189 71q81 0 151 -41q34 -20 54 -47.5t30 -72.5h78v175h-80v-21q-42 39 -93 58q-35 13 -69.5 20t-68.5 7q-156 0 -256 -93q-99 -93 -99 -239
q0 -148 99 -241q38 -36 86 -57.5t105 -29.5l-14 -67q29 0 40 -2t17 -6q9 -6 9 -15q0 -15 -15 -23q-11 -5 -25.5 -8.5t-32.5 -2.5l-44 2v-64h31q73 0 121 23q49 24 49 79q0 37 -26 61q-14 12 -34 19q53 2 99.5 14t88.5 37q45 26 79 69.5t63 112.5z" />
    <glyph glyph-name="Egrave" unicode="&#xc8;" horiz-adv-x="641" 
d="M409 666l-124 174h-103l148 -174h79zM576 1v74h-63h-338v218h282v75h-282v204h321v-108h79v182h-577v-74h87v-514v-57h491z" />
    <glyph glyph-name="Eacute" unicode="&#xc9;" horiz-adv-x="641" 
d="M423 840h-103l-124 -174h79zM576 1v74h-63h-338v218h282v75h-282v204h321v-108h79v182h-577v-74h87v-514v-57h491z" />
    <glyph glyph-name="Ecircumflex" unicode="&#xca;" horiz-adv-x="641" 
d="M489 670l-150 164h-74l-148 -164h79l106 88l107 -88h80zM576 1v74h-63h-338v218h282v75h-282v204h321v-108h79v182h-577v-74h87v-514v-57h491z" />
    <glyph glyph-name="Edieresis" unicode="&#xcb;" horiz-adv-x="641" 
d="M438 706v91h-98v-91h98zM265 706v91h-98v-91h98zM576 1v74h-63h-338v218h282v75h-282v204h321v-108h79v182h-577v-74h87v-514v-57h491z" />
    <glyph glyph-name="Igrave" unicode="&#xcc;" horiz-adv-x="298" 
d="M247 666l-124 174h-103l77 -90h-3v-92h90v8h63zM271 1v74h-86v514v57h-90v-57v-514h-85v-74h261z" />
    <glyph glyph-name="Iacute" unicode="&#xcd;" horiz-adv-x="298" 
d="M261 840h-103l-124 -174h60v-8h90v92zM271 1v74h-86v514v57h-90v-57v-514h-85v-74h261z" />
    <glyph glyph-name="Icircumflex" unicode="&#xce;" horiz-adv-x="298" 
d="M327 670l-150 164h-74l-148 -164h79l106 88l107 -88h80zM184 658v92h-90v-92h90zM271 1v74h-86v514v57h-90v-57v-514h-85v-74h261z" />
    <glyph glyph-name="Idieresis" unicode="&#xcf;" horiz-adv-x="298" 
d="M276 706v91h-98v-91h98zM184 658v92h-90v-92h90zM103 706v91h-98v-91h98zM271 1v74h-86v514v57h-90v-57v-514h-85v-74h261z" />
    <glyph glyph-name="Eth" unicode="&#xd0;" horiz-adv-x="751" 
d="M678 323q0 143 -94 234q-48 46 -119.5 67.5t-165.5 21.5h-308v-73l94 2v-213h-93v-75h93v-229v-57h213q103 0 177 23.5t119 74.5q84 96 84 224zM588 323q0 -124 -70 -185q-35 -31 -87.5 -47t-124.5 -16h-131v212h209v75h-209v210h129q137 0 212 -66q72 -63 72 -183z" />
    <glyph glyph-name="Ntilde" unicode="&#xd1;" horiz-adv-x="751" 
d="M541 808h-63q-8 -19 -13.5 -26.5t-10.5 -10.5q-11 -6 -23 -6q-10 0 -25.5 5t-37.5 16q-49 23 -87 23q-33 0 -61 -23q-14 -11 -25.5 -31t-25.5 -59h62q11 24 21.5 33.5t26.5 9.5q10 0 25.5 -5t38.5 -16q48 -23 86 -23q33 0 61 23q14 11 25.5 31t25.5 59zM715 572v74h-169
v-57v-450q-42 59 -83 115.5t-83 112.5q-49 66 -98.5 134.5t-102.5 144.5h-186v-74h91v-514v-57h177v74h-96v447l383 -529h79v579h88z" />
    <glyph glyph-name="Ograve" unicode="&#xd2;" horiz-adv-x="829" 
d="M497 666l-124 174h-103l148 -174h79zM751 324q0 143 -102 238q-103 94 -257 94t-257 -94q-102 -95 -102 -238q0 -144 102 -238q103 -94 257 -94t257 94q102 94 102 238zM661 324q0 -109 -76 -182q-74 -72 -193 -72q-117 0 -193 73q-76 72 -76 181q0 110 76 182
q75 72 193 72t194 -73q75 -71 75 -181z" />
    <glyph glyph-name="Oacute" unicode="&#xd3;" horiz-adv-x="829" 
d="M511 840h-103l-124 -174h79zM751 324q0 143 -102 238q-103 94 -257 94t-257 -94q-102 -95 -102 -238q0 -144 102 -238q103 -94 257 -94t257 94q102 94 102 238zM661 324q0 -109 -76 -182q-74 -72 -193 -72q-117 0 -193 73q-76 72 -76 181q0 110 76 182q75 72 193 72
t194 -73q75 -71 75 -181z" />
    <glyph glyph-name="Ocircumflex" unicode="&#xd4;" horiz-adv-x="829" 
d="M577 670l-150 164h-74l-148 -164h79l106 88l107 -88h80zM751 324q0 143 -102 238q-103 94 -257 94t-257 -94q-102 -95 -102 -238q0 -144 102 -238q103 -94 257 -94t257 94q102 94 102 238zM661 324q0 -109 -76 -182q-74 -72 -193 -72q-117 0 -193 73q-76 72 -76 181
q0 110 76 182q75 72 193 72t194 -73q75 -71 75 -181z" />
    <glyph glyph-name="Otilde" unicode="&#xd5;" horiz-adv-x="829" 
d="M577 808h-63q-8 -19 -13.5 -26.5t-10.5 -10.5q-11 -6 -23 -6q-10 0 -25.5 5t-37.5 16q-49 23 -87 23q-33 0 -61 -23q-14 -11 -25.5 -31t-25.5 -59h62q11 24 21.5 33.5t26.5 9.5q10 0 25.5 -5t38.5 -16q48 -23 86 -23q33 0 61 23q14 11 25.5 31t25.5 59zM751 324
q0 143 -102 238q-103 94 -257 94t-257 -94q-102 -95 -102 -238q0 -144 102 -238q103 -94 257 -94t257 94q102 94 102 238zM661 324q0 -109 -76 -182q-74 -72 -193 -72q-117 0 -193 73q-76 72 -76 181q0 110 76 182q75 72 193 72t194 -73q75 -71 75 -181z" />
    <glyph glyph-name="Odieresis" unicode="&#xd6;" horiz-adv-x="829" 
d="M520 706v91h-98v-91h98zM347 706v91h-98v-91h98zM745 324q0 143 -102 238q-103 94 -257 94t-257 -94q-102 -95 -102 -238q0 -144 102 -238q103 -94 257 -94t257 94q102 94 102 238zM655 324q0 -109 -76 -182q-74 -72 -193 -72q-117 0 -193 73q-76 72 -76 181
q0 110 76 182q75 72 193 72t194 -73q75 -71 75 -181z" />
    <glyph glyph-name="multiply" unicode="&#xd7;" horiz-adv-x="709" 
d="M596 132l-206 206l206 206l-56 56l-206 -206l-206 206l-56 -56l206 -206l-206 -206l56 -56l206 206l206 -206z" />
    <glyph glyph-name="Oslash" unicode="&#xd8;" horiz-adv-x="829" 
d="M751 324q0 145 -103 238q0 -9 12 -2t26 19.5t26 24l12 11.5l-52 42l-63 -64q-45 32 -99 47.5t-118 15.5q-154 0 -257 -94q-102 -95 -102 -238q0 -67 21.5 -123.5t69.5 -103.5l-63 -65l52 -42l63 63q86 -61 216 -61q154 0 257 94q102 94 102 238zM661 324q0 -109 -76 -182
q-74 -72 -193 -72q-93 0 -158 44l367 375q60 -66 60 -165zM550 534l-367 -376q-60 67 -60 166q0 110 76 182q75 72 193 72q94 0 158 -44z" />
    <glyph glyph-name="Ugrave" unicode="&#xd9;" horiz-adv-x="685" 
d="M430 666l-124 174h-103l148 -174h79zM659 572v74h-177v-57v-396q0 -61 -38 -91q-40 -32 -122 -32q-40 0 -69.5 8.5t-50.5 24.5q-39 31 -39 92v377h86v74h-263v-74h87v-371q0 -50 16 -89t51 -68q65 -52 183 -52t183 53q66 57 66 156v371h87z" />
    <glyph glyph-name="Uacute" unicode="&#xda;" horiz-adv-x="685" 
d="M444 840h-103l-124 -174h79zM659 572v74h-177v-57v-396q0 -61 -38 -91q-40 -32 -122 -32q-40 0 -69.5 8.5t-50.5 24.5q-39 31 -39 92v377h86v74h-263v-74h87v-371q0 -50 16 -89t51 -68q65 -52 183 -52t183 53q66 57 66 156v371h87z" />
    <glyph glyph-name="Ucircumflex" unicode="&#xdb;" horiz-adv-x="685" 
d="M510 670l-150 164h-74l-148 -164h79l106 88l107 -88h80zM659 572v74h-177v-57v-396q0 -61 -38 -91q-40 -32 -122 -32q-40 0 -69.5 8.5t-50.5 24.5q-39 31 -39 92v377h86v74h-263v-74h87v-371q0 -50 16 -89t51 -68q65 -52 183 -52t183 53q66 57 66 156v371h87z" />
    <glyph glyph-name="Udieresis" unicode="&#xdc;" horiz-adv-x="685" 
d="M459 661v91h-98v-91h98zM286 661v91h-98v-91h98zM659 572v74h-177v-57v-396q0 -61 -38 -91q-40 -32 -122 -32q-40 0 -69.5 8.5t-50.5 24.5q-39 31 -39 92v377h86v74h-263v-74h87v-371q0 -50 16 -89t51 -68q65 -52 183 -52t183 53q66 57 66 156v371h87z" />
    <glyph glyph-name="Yacute" unicode="&#xdd;" horiz-adv-x="641" 
d="M423 840h-103l-124 -174h79zM639 572v74h-257v-74h72l-144 -205l-167 239l-29 40h-150v-74h96l200 -284v-213h-94v-74h184v57v230l200 284h89z" />
    <glyph glyph-name="Thorn" unicode="&#xde;" 
d="M550 323q0 94 -69 147q-33 26 -78.5 38t-102.5 12h-121v52h91v74h-271v-74h90v-497h-90v-74h180v57v69h138q51 0 93.5 13t74.5 40q65 53 65 143zM460 318q0 -58 -40 -86q-20 -15 -50.5 -23t-72.5 -8h-118v245h118q46 0 77 -8.5t50 -22.5q17 -14 26.5 -37.5t9.5 -59.5z
" />
    <glyph glyph-name="germandbls" unicode="&#xdf;" horiz-adv-x="652" 
d="M590 218q0 87 -49 144q-33 37 -77 55q28 17 41 42q23 40 23 82q0 85 -62 135q-59 49 -158 49t-160 -51q-33 -26 -48.5 -67t-15.5 -95v-433h-85v-78h171v62v461q0 35 9 58t26 37q37 31 102 31q54 0 98 -28q39 -24 39 -77q0 -49 -30 -73q-29 -26 -78 -26h-27v-73
q58 0 93.5 -10t58.5 -30q46 -40 46 -116q0 -30 -9 -56t-26 -49q-32 -43 -88 -43q-19 0 -31 3q-7 1 -14.5 3.5t-29.5 11.5v-84l71 -9q99 0 156 67q54 68 54 157z" />
    <glyph glyph-name="agrave" unicode="&#xe0;" horiz-adv-x="541" 
d="M359 538l-121 188h-99l144 -189zM517 1v79h-80v290q0 76 -51 114q-50 37 -141 37q-20 0 -45 -6t-47 -13t-36.5 -13l-14.5 -6l26 -61q6 2 19.5 7t30 10t34 8.5t31.5 3.5q27 0 47.5 -5.5t35.5 -15.5q13 -8 20 -22.5t7 -37.5v-85q-14 6 -27.5 11t-27.5 8q-20 5 -37 7.5
t-33 2.5q-85 0 -140 -46q-54 -48 -54 -117q0 -64 47 -111q48 -46 117 -46q43 0 93 22q17 7 32 15.5t30 19.5v-50h164zM353 135q-26 -27 -65 -47q-42 -21 -78 -21q-43 0 -66 25q-24 24 -24 55q0 39 30 67q14 13 36 20.5t51 7.5q32 0 65 -12q25 -8 51 -23v-72z" />
    <glyph glyph-name="aacute" unicode="&#xe1;" horiz-adv-x="541" 
d="M372 726h-99l-121 -189h76zM517 1v79h-80v290q0 76 -51 114q-50 37 -141 37q-20 0 -45 -6t-47 -13t-36.5 -13l-14.5 -6l26 -61q6 2 19.5 7t30 10t34 8.5t31.5 3.5q27 0 47.5 -5.5t35.5 -15.5q13 -8 20 -22.5t7 -37.5v-85q-14 6 -27.5 11t-27.5 8q-20 5 -37 7.5t-33 2.5
q-85 0 -140 -46q-54 -48 -54 -117q0 -64 47 -111q48 -46 117 -46q43 0 93 22q17 7 32 15.5t30 19.5v-50h164zM353 135q-26 -27 -65 -47q-42 -21 -78 -21q-43 0 -66 25q-24 24 -24 55q0 39 30 67q14 13 36 20.5t51 7.5q32 0 65 -12q25 -8 51 -23v-72z" />
    <glyph glyph-name="acircumflex" unicode="&#xe2;" horiz-adv-x="541" 
d="M438 542l-146 178h-74l-145 -179h76l106 99l107 -99zM517 1v79h-80v290q0 76 -51 114q-50 37 -141 37q-20 0 -45 -6t-47 -13t-36.5 -13l-14.5 -6l26 -61q6 2 19.5 7t30 10t34 8.5t31.5 3.5q27 0 47.5 -5.5t35.5 -15.5q13 -8 20 -22.5t7 -37.5v-85q-14 6 -27.5 11t-27.5 8
q-20 5 -37 7.5t-33 2.5q-85 0 -140 -46q-54 -48 -54 -117q0 -64 47 -111q48 -46 117 -46q43 0 93 22q17 7 32 15.5t30 19.5v-50h164zM353 135q-26 -27 -65 -47q-42 -21 -78 -21q-43 0 -66 25q-24 24 -24 55q0 39 30 67q14 13 36 20.5t51 7.5q32 0 65 -12q25 -8 51 -23v-72z
" />
    <glyph glyph-name="atilde" unicode="&#xe3;" horiz-adv-x="541" 
d="M441 691h-63q-8 -21 -13 -29.5t-10 -11.5q-11 -8 -23 -8q-20 0 -63 23q-47 27 -87 27q-32 0 -61 -26q-14 -12 -25 -33.5t-25 -62.5h61q8 21 14.5 29.5t11.5 12.5q10 7 22 7q10 0 25 -5.5t38 -18.5q23 -12 45 -19t42 -7q17 0 32 7t29 19t25 33.5t25 62.5zM517 1v79h-80
v290q0 76 -51 114q-50 37 -141 37q-20 0 -45 -6t-47 -13t-36.5 -13l-14.5 -6l26 -61q6 2 19.5 7t30 10t34 8.5t31.5 3.5q27 0 47.5 -5.5t35.5 -15.5q13 -8 20 -22.5t7 -37.5v-85q-14 6 -27.5 11t-27.5 8q-20 5 -37 7.5t-33 2.5q-85 0 -140 -46q-54 -48 -54 -117
q0 -64 47 -111q48 -46 117 -46q43 0 93 22q17 7 32 15.5t30 19.5v-50h164zM353 135q-26 -27 -65 -47q-42 -21 -78 -21q-43 0 -66 25q-24 24 -24 55q0 39 30 67q14 13 36 20.5t51 7.5q32 0 65 -12q25 -8 51 -23v-72z" />
    <glyph glyph-name="adieresis" unicode="&#xe4;" horiz-adv-x="541" 
d="M391 582v97h-97v-98zM218 581v98h-97v-98h97zM517 1v79h-79v290q0 75 -52 114q-50 37 -141 37q-20 0 -44.5 -6t-46.5 -13t-36.5 -13l-14.5 -6l25 -61q6 2 19.5 7t30 10t34.5 8.5t32 3.5q26 0 47 -5.5t35 -15.5q14 -8 20.5 -22.5t6.5 -37.5v-85q-14 6 -27.5 11t-27.5 8
q-19 5 -36.5 7.5t-33.5 2.5q-86 0 -139 -46q-54 -47 -54 -117q0 -64 47 -111q46 -46 117 -46q43 0 93 22q32 14 61 35v-50h164zM353 135q-26 -27 -65 -47q-41 -21 -78 -21q-41 0 -66 25q-23 23 -23 55q0 40 30 67q14 13 35.5 20.5t51.5 7.5q32 0 64 -12q14 -5 26.5 -10.5
t24.5 -12.5v-72z" />
    <glyph glyph-name="aring" unicode="&#xe5;" horiz-adv-x="541" 
d="M364 630q0 45 -32 77t-77 32t-77 -32q-31 -33 -31 -77q0 -23 8.5 -41.5t23.5 -35.5q16 -15 35 -23.5t41 -8.5q45 0 77 32t32 77zM517 1v79h-80v290q0 76 -51 114q-50 37 -141 37q-20 0 -45 -6t-47 -13t-36.5 -13l-14.5 -6l26 -61q6 2 19.5 7t30 10t34 8.5t31.5 3.5
q27 0 47.5 -5.5t35.5 -15.5q13 -8 20 -22.5t7 -37.5v-85q-14 6 -27.5 11t-27.5 8q-20 5 -37 7.5t-33 2.5q-85 0 -140 -46q-54 -48 -54 -117q0 -64 47 -111q48 -46 117 -46q43 0 93 22q17 7 32 15.5t30 19.5v-50h164zM300 630q0 -20 -13 -32q-12 -14 -32 -14q-19 0 -32 13
q-13 15 -13 33q0 17 14 33q13 13 31 13q20 0 32 -14q14 -12 14 -32h-1zM353 135q-26 -27 -65 -47q-42 -21 -78 -21q-43 0 -66 25q-24 24 -24 55q0 39 30 67q14 13 36 20.5t51 7.5q32 0 65 -12q25 -8 51 -23v-72z" />
    <glyph glyph-name="ae" unicode="&#xe6;" horiz-adv-x="918" 
d="M847 227q-4 72 -21.5 122.5t-49.5 90.5q-66 81 -171 81q-32 0 -61 -8t-55 -22q-40 -22 -70 -59q-12 26 -30.5 43t-41.5 27.5t-49 14.5t-53 4q-39 0 -73.5 -9.5t-69.5 -33.5l45 -58q23 17 45.5 24t50.5 7q27 0 47 -5.5t35 -15.5q12 -8 19 -22t7 -38v-85q-14 6 -27 11
t-27 8q-19 5 -36 7.5t-33 2.5q-82 0 -137 -46q-54 -48 -54 -117q0 -64 50 -111q47 -46 122 -46q74 0 127 34q20 14 38 28t33 30q38 -48 85 -72q54 -27 116 -27q19 0 45.5 7t51 15.5t42 15.5l17.5 7l-45 66q-5 -3 -18 -9t-29.5 -12t-33 -10.5t-29.5 -4.5q-77 0 -128 54
q-42 46 -49 111h415zM753 305h-317q13 53 40 85q46 54 118 54q70 0 111 -43q38 -39 48 -97v1zM350 135q-12 -14 -28 -26t-35 -21q-41 -21 -77 -21q-41 0 -64 25q-23 23 -23 55q0 39 30 67q14 13 35 20.5t50 7.5q32 0 62 -12q25 -8 51 -23z" />
    <glyph glyph-name="ccedilla" unicode="&#xe7;" horiz-adv-x="541" 
d="M501 155l-72 31q-14 -35 -29.5 -56t-33.5 -35q-37 -28 -90 -28q-74 0 -120 51q-22 25 -34 58.5t-12 77.5q0 83 45 136q45 51 114 51q51 0 93 -33q19 -14 29.5 -40t12.5 -74h76v184h-77v-6q-27 25 -62 37t-72 12q-106 0 -175 -78q-70 -78 -70 -189q0 -57 17.5 -105
t52.5 -86q48 -52 118 -69l-14 -73q28 0 39 -2t16 -6q11 -8 11 -20q0 -19 -17 -27q-23 -13 -57 -13l-44 2v-66h31q75 0 121 26q49 27 49 85q0 39 -26 65q-15 17 -37 23q70 1 124 39q29 20 51.5 50t41.5 78z" />
    <glyph glyph-name="egrave" unicode="&#xe8;" 
d="M380 538l-121 188h-99l144 -189zM535 226q-4 77 -22 130t-53 90q-69 75 -179 75q-113 0 -185 -77q-73 -76 -73 -190t74 -191q74 -76 187 -76q20 0 47 6.5t52 14.5t42 14.5l17 6.5l-22 70q-6 -3 -22 -9t-35 -12t-38.5 -11t-32.5 -5q-80 0 -132 54q-44 47 -51 111zM443 305
h-330q12 50 42 85q49 54 122 54q71 0 115 -44q39 -38 51 -96v1z" />
    <glyph glyph-name="eacute" unicode="&#xe9;" 
d="M393 726h-99l-121 -189h76zM535 226q-4 77 -22 130t-53 90q-69 75 -179 75q-113 0 -185 -77q-73 -76 -73 -190t74 -191q74 -76 187 -76q20 0 47 6.5t52 14.5t42 14.5l17 6.5l-22 70q-6 -3 -22 -9t-35 -12t-38.5 -11t-32.5 -5q-80 0 -132 54q-44 47 -51 111zM443 305h-330
q12 50 42 85q49 54 122 54q71 0 115 -44q39 -38 51 -96v1z" />
    <glyph glyph-name="ecircumflex" unicode="&#xea;" 
d="M459 542l-146 178h-74l-145 -179h76l106 99l107 -99zM535 226q-4 77 -22 130t-53 90q-69 75 -179 75q-113 0 -185 -77q-73 -76 -73 -190t74 -191q74 -76 187 -76q20 0 47 6.5t52 14.5t42 14.5l17 6.5l-22 70q-6 -3 -22 -9t-35 -12t-38.5 -11t-32.5 -5q-80 0 -132 54
q-44 47 -51 111zM443 305h-330q12 50 42 85q49 54 122 54q71 0 115 -44q39 -38 51 -96v1z" />
    <glyph glyph-name="edieresis" unicode="&#xeb;" 
d="M412 582v97h-98v-98zM238 581v98h-97v-98h97zM535 226q-4 77 -22 130t-53 90q-69 75 -179 75q-113 0 -185 -77q-73 -76 -73 -190t74 -191q74 -76 187 -76q20 0 47 6.5t52 14.5t42 14.5l17 6.5l-22 70q-6 -3 -22 -9t-35 -12t-38.5 -11t-32.5 -5q-80 0 -132 54
q-44 47 -51 111zM443 305h-330q12 50 42 85q49 54 122 54q71 0 115 -44q39 -38 51 -96v1z" />
    <glyph glyph-name="igrave" unicode="&#xec;" horiz-adv-x="265" 
d="M229 538l-121 188h-99l144 -189zM258 1v79h-82v428h-168v-79h84v-350h-84v-78h250z" />
    <glyph glyph-name="iacute" unicode="&#xed;" horiz-adv-x="265" 
d="M242 726h-99l-121 -189h76zM258 1v79h-82v428h-168v-79h84v-350h-84v-78h250z" />
    <glyph glyph-name="icircumflex" unicode="&#xee;" horiz-adv-x="265" 
d="M308 542l-146 178h-74l-145 -179h76l106 99l107 -99zM258 1v79h-82v428h-168v-79h84v-350h-84v-78h250z" />
    <glyph glyph-name="idieresis" unicode="&#xef;" horiz-adv-x="265" 
d="M261 582v97h-98v-98zM87 581v98h-97v-98h97zM258 1v79h-82v428h-168v-79h84v-350h-84v-78h250z" />
    <glyph glyph-name="eth" unicode="&#xf0;" horiz-adv-x="597" 
d="M535 303q0 69 -20.5 132t-59.5 119q-11 17 -26 33t-33 34l130 61l-68 48l-124 -59q-20 14 -47 28.5t-65 29.5l-92 -46q43 -19 70 -31.5t44 -22.5l-129 -61l68 -48l131 62q27 -24 40 -37q28 -31 45 -58q-56 34 -117 34q-109 0 -181 -79q-72 -78 -72 -191q0 -112 73 -188
q72 -77 183 -77q114 0 183 90q67 88 67 227zM447 264q0 -88 -48 -142q-46 -56 -118 -56q-70 0 -118 53q-48 54 -48 132q0 42 12.5 76t35.5 61q44 53 119 53q71 0 119 -51q47 -52 47 -126h-1z" />
    <glyph glyph-name="ntilde" unicode="&#xf1;" horiz-adv-x="563" 
d="M451 691h-63q-8 -21 -13 -29.5t-10 -11.5q-11 -8 -23 -8q-20 0 -63 23q-47 27 -87 27q-32 0 -61 -26q-14 -12 -25 -33.5t-25 -62.5h61q8 21 14.5 29.5t11.5 12.5q10 7 22 7q10 0 25 -5.5t38 -18.5q23 -12 45 -19t42 -7q17 0 32 7t29 19t25 33.5t25 62.5zM545 1v79h-76
v300q0 62 -39 103q-39 38 -103 38q-51 0 -102 -23q-35 -16 -63 -37v47h-171v-79h87v-366v-62h162v79h-78v288q34 30 75 50q48 23 83 23q17 0 28.5 -4.5t19.5 -12.5t12.5 -20t4.5 -30v-311v-62h160z" />
    <glyph glyph-name="ograve" unicode="&#xf2;" 
d="M380 538l-121 188h-99l144 -189zM530 254q0 111 -73 189q-72 78 -180 78q-109 0 -181 -78q-72 -77 -72 -189q0 -111 73 -189q72 -78 180 -78q107 0 181 78q72 76 72 189zM443 254q0 -82 -47 -135q-47 -52 -119 -52t-120 53q-23 26 -35 59t-12 75t12 75t36 60
q47 52 119 52t120 -53q23 -26 35 -59t12 -75h-1z" />
    <glyph glyph-name="oacute" unicode="&#xf3;" 
d="M393 726h-99l-121 -189h76zM530 254q0 111 -73 189q-72 78 -180 78q-109 0 -181 -78q-72 -77 -72 -189q0 -111 73 -189q72 -78 180 -78q107 0 181 78q72 76 72 189zM443 254q0 -82 -47 -135q-47 -52 -119 -52t-120 53q-23 26 -35 59t-12 75t12 75t36 60q47 52 119 52
t120 -53q23 -26 35 -59t12 -75h-1z" />
    <glyph glyph-name="ocircumflex" unicode="&#xf4;" 
d="M459 542l-146 178h-74l-145 -179h76l106 99l107 -99zM530 254q0 111 -73 189q-72 78 -180 78q-109 0 -181 -78q-72 -77 -72 -189q0 -111 73 -189q72 -78 180 -78q107 0 181 78q72 76 72 189zM443 254q0 -82 -47 -135q-47 -52 -119 -52t-120 53q-23 26 -35 59t-12 75
t12 75t36 60q47 52 119 52t120 -53q23 -26 35 -59t12 -75h-1z" />
    <glyph glyph-name="otilde" unicode="&#xf5;" 
d="M462 691h-63q-8 -21 -13 -29.5t-10 -11.5q-11 -8 -23 -8q-20 0 -63 23q-47 27 -87 27q-32 0 -61 -26q-14 -12 -25 -33.5t-25 -62.5h61q8 21 14.5 29.5t11.5 12.5q10 7 22 7q10 0 25 -5.5t38 -18.5q23 -12 45 -19t42 -7q17 0 32 7t29 19t25 33.5t25 62.5zM530 254
q0 111 -73 189q-72 78 -180 78q-109 0 -181 -78q-72 -77 -72 -189q0 -111 73 -189q72 -78 180 -78q107 0 181 78q72 76 72 189zM443 254q0 -82 -47 -135q-47 -52 -119 -52t-120 53q-23 26 -35 59t-12 75t12 75t36 60q47 52 119 52t120 -53q23 -26 35 -59t12 -75h-1z" />
    <glyph glyph-name="odieresis" unicode="&#xf6;" 
d="M412 582v97h-97v-98zM239 581v98h-97v-98h97zM530 254q0 112 -72 189q-74 78 -181 78q-108 0 -181 -78q-71 -75 -71 -189q0 -113 72 -189q73 -78 181 -78q107 0 181 78q71 77 71 189zM444 254q0 -42 -12 -75t-36 -60q-47 -52 -119 -52q-71 0 -119 53q-23 26 -35 59
t-12 75t12 75t36 60q47 52 119 52q71 0 119 -53q23 -26 35 -59t12 -75z" />
    <glyph glyph-name="divide" unicode="&#xf7;" horiz-adv-x="709" 
d="M384 494v97h-90v-98zM612 299v78h-558v-78h558zM384 58v98h-90v-98h90z" />
    <glyph glyph-name="oslash" unicode="&#xf8;" 
d="M542 509l-51 44l-68 -79q-61 47 -146 47q-109 0 -181 -78q-72 -77 -72 -189q0 -100 58 -173l-69 -81l51 -43l66 77q62 -47 147 -47q107 0 181 78q72 76 72 189q0 100 -58 173zM370 412l-232 -267q-28 45 -28 109q0 42 12 75t36 60q47 52 119 52q55 0 93 -29zM444 254
q0 -42 -12 -75t-36 -60q-47 -52 -119 -52q-54 0 -93 28l232 268q28 -45 28 -109z" />
    <glyph glyph-name="ugrave" unicode="&#xf9;" horiz-adv-x="575" 
d="M375 538l-121 188h-99l144 -189zM551 1v79h-83v428h-85v-62v-296q-30 -30 -73 -52q-45 -24 -84 -24q-17 0 -27.5 4t-18.5 12q-16 16 -16 48v370h-168v-79h84v-300q0 -62 37 -99q39 -36 100 -36q57 0 108 24q16 8 30.5 15.5t28.5 17.5v-50h167z" />
    <glyph glyph-name="uacute" unicode="&#xfa;" horiz-adv-x="575" 
d="M388 726h-99l-121 -189h76zM551 1v79h-83v428h-85v-62v-296q-30 -30 -73 -52q-45 -24 -84 -24q-17 0 -27.5 4t-18.5 12q-16 16 -16 48v370h-168v-79h84v-300q0 -62 37 -99q39 -36 100 -36q57 0 108 24q16 8 30.5 15.5t28.5 17.5v-50h167z" />
    <glyph glyph-name="ucircumflex" unicode="&#xfb;" horiz-adv-x="575" 
d="M454 542l-146 178h-74l-145 -179h76l106 99l107 -99zM551 1v79h-83v428h-85v-62v-296q-30 -30 -73 -52q-45 -24 -84 -24q-17 0 -27.5 4t-18.5 12q-16 16 -16 48v370h-168v-79h84v-300q0 -62 37 -99q39 -36 100 -36q57 0 108 24q16 8 30.5 15.5t28.5 17.5v-50h167z" />
    <glyph glyph-name="udieresis" unicode="&#xfc;" horiz-adv-x="575" 
d="M407 582v97h-98v-98zM233 581v98h-97v-98h97zM551 1v79h-83v428h-85v-62v-296q-30 -30 -73 -52q-45 -24 -84 -24q-17 0 -27.5 4t-18.5 12q-16 16 -16 48v370h-168v-79h84v-300q0 -62 37 -99q39 -36 100 -36q57 0 108 24q16 8 30.5 15.5t28.5 17.5v-50h167z" />
    <glyph glyph-name="yacute" unicode="&#xfd;" horiz-adv-x="563" 
d="M382 726h-99l-121 -189h76zM547 429v79h-231v-79h68l-110 -290l-128 313l-21 56h-140v-79h84l163 -398l-85 -242h80l242 641z" />
    <glyph glyph-name="thorn" unicode="&#xfe;" horiz-adv-x="630" 
d="M568 257q0 112 -71 188q-70 76 -176 76q-27 0 -53 -7t-52 -19q-33 -16 -64 -50v269h-171v-79h87v-768h-87v-78h171v62l-17 -16q5 5 8.5 30t5.5 57t3 64t1 52v22q13 -17 27.5 -28.5t31.5 -19.5q25 -12 51 -18.5t55 -6.5q111 0 180 77q70 76 70 193zM486 254
q0 -85 -46 -135q-47 -52 -121 -52q-71 0 -120 52q-49 54 -49 137q0 44 12.5 77t35.5 59q49 51 118 51q75 0 123 -53q23 -26 35.5 -59.5t12.5 -76.5h-1z" />
    <glyph glyph-name="ydieresis" unicode="&#xff;" horiz-adv-x="563" 
d="M401 582v97h-98v-98zM227 581v98h-97v-98h97zM547 429v79h-231v-79h68l-110 -290l-128 313l-21 56h-140v-79h84l163 -398l-85 -242h80l242 641z" />
    <glyph glyph-name="minus" unicode="&#xe000;" horiz-adv-x="708" 
d="M612 300v77h-558v-78z" />
    <glyph glyph-name="notequal" unicode="&#xe001;" horiz-adv-x="708" 
d="M612 185v77h-269l60 153h209v77h-179l47 122h-79l-47 -123h-300v-77h270l-60 -153h-210v-77h180l-47 -122h79l47 123h299z" />
    <glyph glyph-name="infinity" unicode="&#xe002;" horiz-adv-x="756" 
d="M706 282q0 68 -51 113q-49 44 -108 44q-46 0 -88 -21q-39 -20 -102 -78q-62 57 -103 78t-87 21q-60 0 -109 -45q-50 -44 -50 -112t51 -113q49 -44 108 -44q36 0 81 20q22 9 49 29t60 50q68 -62 109 -79q45 -20 81 -20q59 0 109 45q50 44 50 112zM621 282q0 -35 -19 -53
q-10 -9 -23 -14.5t-32 -5.5q-37 0 -73 25q-14 10 -28 22t-28 26q26 27 57 49q34 24 72 24q18 0 31 -6.5t24 -17.5q20 -23 20 -49h-1zM296 282q-26 -27 -57 -49q-35 -24 -72 -24q-36 0 -56 20q-19 19 -19 53q0 24 21 50q20 23 54 23q37 0 73 -25q14 -10 28 -22t28 -26z" />
    <glyph glyph-name="lessequal" unicode="&#xe003;" horiz-adv-x="708" 
d="M612 110v86l-437 182l437 182v86l-558 -237v-62zM612 1v69h-558v-69h558z" />
    <glyph glyph-name="greaterequal" unicode="&#xe004;" horiz-adv-x="708" 
d="M613 347v62l-558 237v-86l436 -182l-436 -182v-86zM613 1v69h-558v-69h558z" />
    <glyph glyph-name="partialdiff" unicode="&#xe005;" horiz-adv-x="524" 
d="M462 393q0 158 -78 257t-188 99q-40 0 -75 -11q-16 -5 -30 -10.5t-26 -10.5l39 -50q13 7 26 12.5t27 10.5q24 10 61 10q80 0 124 -71q43 -70 43 -184q0 -25 -3 -53q-1 -14 -3 -28.5t-5 -29.5q-22 19 -40.5 32t-35.5 21q-32 15 -74 15q-82 0 -140 -67q-58 -65 -58 -159
q0 -96 61 -147q62 -50 128 -50q123 0 185 133t62 281zM366 299q-18 -150 -58 -219q-41 -71 -106 -71q-48 0 -69 41q-21 40 -21 98q0 99 46 157t100 58q40 0 66 -20q27 -20 42 -44z" />
    <glyph glyph-name="summation" unicode="&#xe006;" horiz-adv-x="756" 
d="M695 116h-23q-29 -71 -54 -92q-26 -21 -81 -21h-371l294 339l-273 358h263q88 0 114 -30q12 -14 22 -35t17 -49h20l-6 159h-497l-104 7l347 -454l-349 -398l58 3h503q20 0 39 -4q10 -2 19.5 -3.5t18.5 -3.5q4 29 8 56t9 53q5 25 11.5 54t14.5 61z" />
    <glyph glyph-name="product" unicode="&#xe007;" horiz-adv-x="873" 
d="M803 -101v23q-58 0 -78 20q-19 19 -19 61v626q0 52 24 76q25 23 70 23v23h-773v-23q45 0 71 -24q24 -23 24 -75v-626q0 -43 -19 -62q-18 -19 -78 -19v-23h307v23q-59 1 -78 21q-19 18 -19 60v693h358v-693q0 -43 -19 -62t-77 -19v-23h306z" />
    <glyph glyph-name="pi" unicode="&#xe008;" horiz-adv-x="582" 
d="M530 151h-22q0 -36 -18 -55q-17 -20 -41 -20q-21 0 -43 21t-22 69q0 38 3 112q3 73 9 123h126v86h-373q-56 0 -88 -44t-51 -105h17q20 36 41 50q23 13 46 13h47l-29 -229q-3 -23 -16 -43q-6 -11 -14.5 -21.5t-19.5 -21.5t-18 -24q-7 -11 -7 -27q0 -22 16 -38t38 -16
q29 0 44 21t21 48l46 351h113q-10 -89 -15 -146q-2 -28 -3.5 -53.5t-1.5 -49.5q0 -82 28 -125t68 -43q47 0 82 45q36 46 37 122z" />
    <glyph glyph-name="integral" unicode="&#xe009;" horiz-adv-x="291" 
d="M308 878q0 36 -30 56q-12 8 -25.5 12.5t-27.5 4.5q-45 0 -69.5 -34t-33.5 -90t-14 -137t-5 -189q0 -127 1 -205.5t3 -109.5q2 -30 2 -54v-40q0 -29 -2 -49.5t-5 -31.5q-2 -5 -1 -9t-1 -4q-3 0 -5 3.5t-5 7.5q-18 23 -44 23q-24 0 -42 -18q-8 -9 -13.5 -19.5t-5.5 -23.5
q0 -35 28 -57q11 -8 23 -14t26 -6q49 0 78.5 36t42.5 99q26 125 26 388q0 70 -3.5 136t-8.5 127t-7.5 100t-2.5 56q0 3 2 7q4 0 11 -8q15 -18 40 -18q30 0 50 21q8 8 13 18.5t5 21.5z" />
    <glyph glyph-name="Omega" unicode="&#xe00a;" horiz-adv-x="815" 
d="M753 2v195h-45q-7 -28 -11.5 -39.5t-8.5 -16.5q-1 -1 -8 -3.5t-25 -2.5h-135q98 29 153 104q60 83 60 178q0 143 -106 226q-103 80 -242 80t-243 -81q-105 -81 -105 -225q0 -110 63 -186q57 -69 149 -96h-134q-17 0 -24.5 2.5t-9.5 4.5q-3 4 -7.5 15t-11.5 40h-45v-196
h330l-19 182q-35 10 -59 27.5t-43 46.5q-19 28 -29 68.5t-10 94.5q0 63 14.5 107t40.5 73q53 58 143 58q89 0 144 -60q26 -29 40 -73t14 -105q0 -107 -40 -162q-21 -29 -45 -47t-56 -29l-19 -181z" />
    <glyph glyph-name="radical" unicode="&#xe00b;" horiz-adv-x="582" 
d="M534 944l-68 10l-121 -763l-181 371l-176 -86l30 -63l96 47l259 -535z" />
    <glyph glyph-name="approxequal" unicode="&#xe00c;" horiz-adv-x="708" 
d="M577 497l-70 23q-14 -19 -24.5 -28.5t-22.5 -15.5q-24 -13 -47 -13q-8 0 -32 6t-67 20q-42 13 -72 20t-49 7q-43 0 -83 -20q-19 -11 -39 -29.5t-46 -53.5l72 -29q17 24 29 35.5t22 17.5q17 11 42 11q20 0 105 -28q43 -14 73.5 -21t47.5 -7q21 0 42.5 6t42.5 17t39 29.5
t37 52.5zM577 267l-70 23q-14 -19 -24.5 -28.5t-22.5 -15.5q-24 -13 -47 -13q-8 0 -32 6t-67 20q-42 13 -72 20t-49 7q-43 0 -83 -20q-19 -11 -39 -29.5t-46 -53.5l72 -29q17 24 29 35.5t22 17.5q17 11 42 11q20 0 105 -28q43 -14 73.5 -21t47.5 -7q21 0 42.5 6t42.5 17
t39 29.5t37 52.5z" />
    <glyph glyph-name="Delta" unicode="&#xe00d;" horiz-adv-x="649" 
d="M633 2l-306 745l-347 -746zM459 84h-361l191 410z" />
    <glyph glyph-name="nonbreakingspace" unicode="&#xe00e;" horiz-adv-x="563" 
 />
    <glyph glyph-name="lozenge" unicode="&#xe00f;" horiz-adv-x="524" 
d="M485 395l-203 385h-80l-203 -385l203 -394h80zM387 395l-145 -287l-145 287l145 278z" />
    <glyph glyph-name="ch337" unicode="&#xe010;" horiz-adv-x="310" 
d="M175 289v97h-90v-98z" />
    <glyph glyph-name="Udoubleacute" unicode="&#xe011;" horiz-adv-x="685" 
d="M545 840h-103l-124 -174h79zM430 840h-102l-124 -174h79zM659 572v74h-177v-57v-396q0 -61 -38 -91q-40 -32 -122 -32q-40 0 -69.5 8.5t-50.5 24.5q-39 31 -39 92v377h86v74h-263v-74h87v-371q0 -50 16 -89t51 -68q65 -52 183 -52t183 53q66 57 66 156v371h87z" />
    <glyph glyph-name="thacek" unicode="&#xe012;" horiz-adv-x="382" 
d="M355 590v124h-90v-127h25q0 -18 -2 -30t-4 -19q-2 -5 -6 -6.5t-22 -1.5v-69q33 2 51 11.5t29 27.5q19 31 19 90zM254 4v78l-73 -11q-9 0 -13.5 2t-6.5 4t-4 8.5t-2 20.5v324h100v78h-100v107l-85 -2v-106h-84v-78h85v-333q0 -23 5.5 -43.5t19.5 -34.5q14 -15 33.5 -21.5
t43.5 -6.5z" />
    <glyph glyph-name="Thacek" unicode="&#xe013;" horiz-adv-x="608" 
d="M463 835h-80l-107 -88l-106 88h-79l148 -164h74zM574 491v155h-574v-227h80v153h162v-497h-93v-74h183v571h162v-81h80z" />
    <glyph glyph-name="rhacek" unicode="&#xe014;" horiz-adv-x="420" 
d="M409 721h-76l-107 -99l-106 99h-76l145 -179h74zM400 437v83l-35 1q-35 2 -76 -6.5t-70 -23.5q-11 -6 -20.5 -14.5t-18.5 -18.5v50h-175v-79h91v-366v-62h182v79h-98v195q0 45 11.5 75t32.5 49q22 19 56 29t84 10z" />
    <glyph glyph-name="Rhacek" unicode="&#xe015;" horiz-adv-x="608" 
d="M463 835h-80l-107 -88l-106 88h-79l148 -164h74zM605 1v74h-94l-121 241q34 8 61 21.5t45 33.5q42 43 42 111q0 72 -58 119q-57 45 -143 45h-351v-74h100v-572h90v306h123l153 -305h153zM448 478q0 -46 -35 -72q-36 -25 -106 -25h-131v191h149q58 0 91 -27q32 -26 32 -67
z" />
    <glyph glyph-name="odoubleacute" unicode="&#xe016;" 
d="M494 726h-99l-121 -189h76zM379 726h-98l-121 -189h76zM530 254q0 111 -73 189q-72 78 -180 78q-109 0 -181 -78q-72 -77 -72 -189q0 -111 73 -189q72 -78 180 -78q107 0 181 78q72 76 72 189zM443 254q0 -82 -47 -135q-47 -52 -119 -52t-120 53q-23 26 -35 59t-12 75
t12 75t36 60q47 52 119 52t120 -53q23 -26 35 -59t12 -75h-1z" />
    <glyph glyph-name="Odoubleacute" unicode="&#xe017;" horiz-adv-x="829" 
d="M612 840h-103l-124 -174h79zM497 840h-102l-124 -174h79zM751 324q0 143 -102 238q-103 94 -257 94t-257 -94q-102 -95 -102 -238q0 -144 102 -238q103 -94 257 -94t257 94q102 94 102 238zM661 324q0 -109 -76 -182q-74 -72 -193 -72q-117 0 -193 73q-76 72 -76 181
q0 110 76 182q75 72 193 72t194 -73q75 -71 75 -181z" />
    <glyph glyph-name="nhacek" unicode="&#xe018;" horiz-adv-x="563" 
d="M448 721h-76l-107 -99l-106 99h-76l145 -179h74zM545 1v79h-76v300q0 62 -39 103q-39 38 -103 38q-51 0 -102 -23q-35 -16 -63 -37v47h-171v-79h87v-366v-62h162v79h-78v288q34 30 75 50q48 23 83 23q17 0 28.5 -4.5t19.5 -12.5t12.5 -20t4.5 -30v-311v-62h160z" />
    <glyph glyph-name="Nhacek" unicode="&#xe019;" horiz-adv-x="751" 
d="M541 835h-80l-107 -88l-106 88h-79l148 -164h74zM715 572v74h-169v-57v-450q-42 59 -83 115.5t-83 112.5q-49 66 -98.5 134.5t-102.5 144.5h-186v-74h91v-514v-57h177v74h-96v447l383 -529h79v579h88z" />
    <glyph glyph-name="lmiddledot" unicode="&#xe01a;" horiz-adv-x="339" 
d="M301 332v97h-98v-98zM248 1v79h-86v634h-171v-79h87v-572v-62h170z" />
    <glyph glyph-name="Lmiddledot" unicode="&#xe01b;" horiz-adv-x="541" 
d="M376 298v92h-98v-92h98zM515 1v232h-88v-158h-246v513l-16 -16q8 9 12 27.5t4.5 31.5t0.5 15h-183v-74h92v-497h-92v-74h516z" />
    <glyph glyph-name="lhacek" unicode="&#xe01c;" horiz-adv-x="339" 
d="M295 590v124h-90v-127h25q0 -18 -2 -30t-4 -19q-2 -5 -6 -6.5t-22 -1.5v-69q33 2 51 11.5t29 27.5q19 31 19 90zM247 1v79h-85v634h-171v-79h87v-572v-62h169z" />
    <glyph glyph-name="Lhacek" unicode="&#xe01d;" horiz-adv-x="541" 
d="M440 533v113h-90v-118h25q-2 -31 -6 -40q-1 -3 -5 -5t-23 -2v-67q33 2 51 10.5t29 25.5q19 29 19 83zM515 1v232h-88v-158h-246v513l-16 -16q8 9 12 27.5t4.5 31.5t0.5 15h-183v-74h92v-497h-92v-74h516z" />
    <glyph glyph-name="ehacek" unicode="&#xe01e;" 
d="M459 721h-76l-107 -99l-106 99h-76l145 -179h74zM535 226q-4 77 -22 130t-53 90q-69 75 -179 75q-113 0 -185 -77q-73 -76 -73 -190t74 -191q74 -76 187 -76q20 0 47 6.5t52 14.5t42 14.5l17 6.5l-22 70q-6 -3 -22 -9t-35 -12t-38.5 -11t-32.5 -5q-80 0 -132 54
q-44 47 -51 111zM443 305h-330q12 50 42 85q49 54 122 54q71 0 115 -44q39 -38 51 -96v1z" />
    <glyph glyph-name="Ehacek" unicode="&#xe01f;" horiz-adv-x="641" 
d="M489 835h-80l-107 -88l-106 88h-79l148 -164h74zM576 1v74h-63h-338v218h282v75h-282v204h321v-108h79v182h-577v-74h87v-514v-57h491z" />
    <glyph glyph-name="dhacek" unicode="&#xe020;" horiz-adv-x="715" 
d="M650 590v124h-90v-127h25q0 -18 -2 -30t-4 -19q-2 -5 -6 -6.5t-22 -1.5v-69q33 2 51 11.5t29 27.5q19 31 19 90zM607 1v79h-86v634h-85v-62v-208q-28 34 -62 51q-54 26 -107 26q-107 0 -178 -77q-70 -74 -70 -190q0 -110 72 -185t179 -75q29 0 55 6.5t51 18.5
q33 16 61 46v-64h170zM437 257q0 -82 -47 -135q-47 -52 -120 -52q-71 0 -120 53q-49 55 -49 131q0 80 49 137q46 54 118 54q70 0 120 -54q50 -55 50 -134h-1z" />
    <glyph glyph-name="Dhacek" unicode="&#xe021;" horiz-adv-x="751" 
d="M508 835h-80l-107 -88l-106 88h-79l148 -164h74zM678 323q0 143 -94 234q-48 46 -119.5 67.5t-165.5 21.5h-308v-74h94v-514v-57h213q103 0 177 23.5t119 74.5q84 96 84 224zM588 323q0 -124 -70 -185q-35 -31 -87.5 -47t-124.5 -16h-131v497h129q137 0 212 -66
q72 -63 72 -183z" />
    <glyph glyph-name="Dbar" unicode="&#xe022;" horiz-adv-x="751" 
d="M678 323q0 143 -94 234q-48 46 -119.5 67.5t-165.5 21.5h-308v-73l94 2v-213h-93v-75h93v-229v-57h213q103 0 177 23.5t119 74.5q84 96 84 224zM588 323q0 -124 -70 -185q-35 -31 -87.5 -47t-124.5 -16h-131v212h209v75h-209v210h129q137 0 212 -66q72 -63 72 -183z" />
    <glyph glyph-name="zdot" unicode="&#xe023;" horiz-adv-x="508" 
d="M289 582v97h-98v-98zM453 441v67h-401v-79h58h232l-314 -360v-68h424v207h-76v-129h-238z" />
    <glyph glyph-name="Zdot" unicode="&#xe024;" 
d="M326 706v91h-98v-91h98zM538 1v191h-80v-117h-329l399 509v62h-496v-74h62h314l-398 -508v-63h528z" />
    <glyph glyph-name="zacute" unicode="&#xe025;" horiz-adv-x="508" 
d="M356 726h-99l-121 -189h76zM453 441v67h-401v-79h58h232l-314 -360v-68h424v207h-76v-129h-238z" />
    <glyph glyph-name="Zacute" unicode="&#xe026;" 
d="M397 840h-103l-124 -174h79zM538 1v191h-80v-117h-329l399 509v62h-496v-74h62h314l-398 -508v-63h528z" />
    <glyph glyph-name="uogonek" unicode="&#xe027;" horiz-adv-x="575" 
d="M590 -147v74l-37.5 -12.5t-17.5 -5.5q-5 -1 -12 -1h-14q-19 0 -33 10q-5 4 -8.5 10.5t-3.5 18.5q0 14 8.5 29t19.5 26h59v78h-83v428h-85v-62v-296q-30 -30 -73 -52q-45 -24 -84 -24q-17 0 -27.5 4t-18.5 12q-16 16 -16 48v370h-168v-79h84v-300q0 -62 37 -99
q39 -36 100 -36q57 0 108 24q16 8 30.5 15.5t28.5 17.5v-50h22q-11 -14 -17 -29t-6 -34q0 -51 40 -82q37 -29 87 -29q9 0 19.5 0.5t19.5 5.5q8 2 17 6.5t24 13.5z" />
    <glyph glyph-name="Uogonek" unicode="&#xe028;" horiz-adv-x="685" 
d="M659 572v74h-177v-57v-396q0 -61 -38 -91q-40 -32 -122 -32q-40 0 -69.5 8.5t-50.5 24.5q-39 31 -39 92v377h86v74h-263v-74h87v-371q0 -100 67 -157q48 -39 124 -48q-16 -24 -16 -50q0 -47 40 -76q38 -26 87 -26q9 0 19.5 0.5t18.5 4.5q8 2 17.5 6t24.5 12v71
q-27 -8 -37.5 -11l-17.5 -5q-5 -1 -12 -1h-14q-20 0 -34 10q-5 3 -7.5 8t-2.5 15q0 11 10 27q3 6 8 11q99 6 158 53q34 28 50 67t16 89v371h87z" />
    <glyph glyph-name="uring" unicode="&#xe029;" horiz-adv-x="575" 
d="M380 630q0 45 -32 77t-77 32t-77 -32q-31 -33 -31 -77q0 -23 8.5 -41.5t23.5 -35.5q16 -15 35 -23.5t41 -8.5q45 0 77 32t32 77zM551 1v79h-83v428h-85v-62v-296q-30 -30 -73 -52q-45 -24 -84 -24q-17 0 -27.5 4t-18.5 12q-16 16 -16 48v370h-168v-79h84v-300
q0 -62 37 -99q39 -36 100 -36q57 0 108 24q16 8 30.5 15.5t28.5 17.5v-50h167zM316 630q0 -20 -13 -32q-12 -14 -32 -14q-19 0 -32 13q-13 15 -13 33q0 17 14 33q13 13 31 13q20 0 32 -14q14 -12 14 -32h-1z" />
    <glyph glyph-name="Uring" unicode="&#xe02a;" horiz-adv-x="685" 
d="M432 751q0 42 -33 72q-31 28 -76 28t-77 -29q-31 -29 -31 -71q0 -40 32 -70q30 -29 76 -29q45 0 76 28q33 30 33 71zM659 572v74h-177v-57v-396q0 -61 -38 -91q-40 -32 -122 -32q-40 0 -69.5 8.5t-50.5 24.5q-39 31 -39 92v377h86v74h-263v-74h87v-371q0 -50 16 -89
t51 -68q65 -52 183 -52t183 53q66 57 66 156v371h87zM368 751q0 -16 -12 -26q-14 -12 -33 -12t-32 11q-12 12 -12 27q0 16 13 28q11 11 31 11q19 0 33 -12q12 -11 12 -27z" />
    <glyph glyph-name="umacron" unicode="&#xe02b;" horiz-adv-x="575" 
d="M449 602v62h-355v-63zM551 1v79h-83v428h-85v-62v-296q-30 -30 -73 -52q-45 -24 -84 -24q-17 0 -27.5 4t-18.5 12q-16 16 -16 48v370h-168v-79h84v-300q0 -62 37 -99q39 -36 100 -36q57 0 108 24q16 8 30.5 15.5t28.5 17.5v-50h167z" />
    <glyph glyph-name="Umacron" unicode="&#xe02c;" horiz-adv-x="685" 
d="M501 724v60h-355v-60h355zM659 572v74h-177v-57v-396q0 -61 -38 -91q-40 -32 -122 -32q-40 0 -69.5 8.5t-50.5 24.5q-39 31 -39 92v377h86v74h-263v-74h87v-371q0 -50 16 -89t51 -68q65 -52 183 -52t183 53q66 57 66 156v371h87z" />
    <glyph glyph-name="tcedilla" unicode="&#xe02d;" horiz-adv-x="276" 
d="M266 -100q0 39 -26 65q-17 19 -44 25l1 5l58 9v78l-74 -11q-9 0 -13.5 2t-6.5 4t-4 8.5t-2 20.5v324h100v78h-100v107l-85 -2v-106h-84v-78h85v-333q0 -23 5.5 -43t19.5 -35q7 -8 16 -13t20 -9l-15 -75q28 0 39 -2t16 -6q11 -8 11 -20q0 -19 -17 -27q-23 -13 -57 -13
l-44 2v-66h31q75 0 121 26q49 27 49 85z" />
    <glyph glyph-name="Tcedilla" unicode="&#xe02e;" horiz-adv-x="608" 
d="M574 491v155h-574v-227h80v153h162v-497h-93v-74h102l-12 -54q29 0 40 -2t17 -6q9 -6 9 -15q0 -15 -16 -23q-10 -5 -24 -8.5t-33 -2.5l-44 2v-64h31q38 0 68 5.5t53 17.5q49 26 49 79q0 37 -25 61q-15 14 -32 18v563h162v-81h80z" />
    <glyph glyph-name="sacute" unicode="&#xe02f;" horiz-adv-x="475" 
d="M341 726h-99l-121 -189h76zM426 145q0 63 -38 101q-38 35 -147 55q-71 13 -95 29q-8 6 -13.5 16t-5.5 27q0 29 23 50q11 10 26.5 16t37.5 6q48 0 81 -30q15 -14 23.5 -34.5t9.5 -55.5h77v169h-78v-13q-25 22 -53 31t-61 9q-66 0 -117 -40q-49 -42 -49 -110q0 -69 46 -103
q41 -31 130 -46q40 -7 64.5 -15.5t36.5 -16.5q11 -8 17 -19.5t6 -30.5q0 -34 -32 -57q-32 -24 -80 -24q-62 0 -98 33q-17 16 -26.5 40.5t-10.5 66.5h-79v-198h80v31q17 -17 41 -28q42 -18 88 -18q88 0 141 43q55 43 55 116z" />
    <glyph glyph-name="Sacute" unicode="&#xe030;" horiz-adv-x="575" 
d="M392 840h-103l-124 -174h79zM515 178q0 81 -56 128q-27 23 -76 42t-118 34q-37 8 -66 18t-49 23q-36 22 -36 65q0 36 34 63q36 27 92 27q37 0 65.5 -4.5t51.5 -20.5q11 -8 18 -18.5t11.5 -21.5t6.5 -21t2 -16v-29h88l-0.5 11.5t-2.5 27t-5.5 32.5t-9.5 28q-8 14 -15 23.5
t-19 21.5q-20 20 -39.5 30t-43.5 19q-26 11 -52.5 13.5t-52.5 2.5q-89 0 -151 -47q-64 -47 -64 -119q0 -78 55 -123q54 -42 162 -66q54 -11 89 -24t55 -26q36 -24 36 -67q0 -50 -39 -81q-21 -16 -47 -24.5t-58 -8.5q-73 0 -125 43q-50 41 -50 93v39h-80v-244h80v54
q25 -24 59 -39q55 -24 115 -24q98 0 165 52q70 53 70 134z" />
    <glyph glyph-name="rcedilla" unicode="&#xe031;" horiz-adv-x="420" 
d="M400 438v82l-35 1q-35 2 -76 -6.5t-70 -23.5q-11 -6 -20.5 -14.5t-18.5 -18.5v50h-175v-79h91v-366v-62h11l-13 -67q28 0 39 -2t16 -6q11 -8 11 -20q0 -19 -17 -27q-23 -13 -57 -13l-44 2v-66h31q75 0 121 26q49 27 49 85q0 39 -26 65q-16 18 -40 24h101v78h-98v195
q0 45 11.5 75t32.5 49q22 19 56 29t84 10h36z" />
    <glyph glyph-name="Rcedilla" unicode="&#xe032;" horiz-adv-x="608" 
d="M605 1v74h-94l-121 241q34 8 61 21.5t45 33.5q42 43 42 111q0 72 -58 119q-57 45 -143 45h-351v-74h100v-572h8l-13 -61q29 0 40 -2.5t17 -5.5q9 -6 9 -16q0 -14 -16 -22q-10 -5 -24 -8.5t-33 -2.5l-44 1v-63h31q38 0 68 5.5t53 17.5q49 26 49 79q0 17 -6 33t-20 28
q-12 12 -29 18v305h123l153 -305h153zM448 478q0 -46 -35 -72q-36 -25 -106 -25h-131v191h149q58 0 91 -27q32 -26 32 -67z" />
    <glyph glyph-name="racute" unicode="&#xe033;" horiz-adv-x="420" 
d="M343 726h-99l-121 -189h76zM400 437v83l-35 1q-35 2 -76 -6.5t-70 -23.5q-11 -6 -20.5 -14.5t-18.5 -18.5v50h-175v-79h91v-366v-62h182v79h-98v195q0 45 11.5 75t32.5 49q22 19 56 29t84 10z" />
    <glyph glyph-name="Racute" unicode="&#xe034;" horiz-adv-x="608" 
d="M397 840h-103l-124 -174h79zM605 1v74h-94l-121 241q34 8 61 21.5t45 33.5q42 43 42 111q0 72 -58 119q-57 45 -143 45h-351v-74h100v-572h90v306h123l153 -305h153zM448 478q0 -46 -35 -72q-36 -25 -106 -25h-131v191h149q58 0 91 -27q32 -26 32 -67z" />
    <glyph glyph-name="omacron" unicode="&#xe035;" 
d="M454 602v62h-355v-63zM530 254q0 111 -73 189q-72 78 -180 78q-109 0 -181 -78q-72 -77 -72 -189q0 -111 73 -189q72 -78 180 -78q107 0 181 78q72 76 72 189zM443 254q0 -82 -47 -135q-47 -52 -119 -52t-120 53q-23 26 -35 59t-12 75t12 75t36 60q47 52 119 52t120 -53
q23 -26 35 -59t12 -75h-1z" />
    <glyph glyph-name="Omacron" unicode="&#xe036;" horiz-adv-x="829" 
d="M568 724v60h-355v-60h355zM751 324q0 143 -102 238q-103 94 -257 94t-257 -94q-102 -95 -102 -238q0 -144 102 -238q103 -94 257 -94t257 94q102 94 102 238zM661 324q0 -109 -76 -182q-74 -72 -193 -72q-117 0 -193 73q-76 72 -76 181q0 110 76 182q75 72 193 72
t194 -73q75 -71 75 -181z" />
    <glyph glyph-name="ncedilla" unicode="&#xe037;" horiz-adv-x="563" 
d="M545 2v78h-76v300q0 62 -39 103q-39 38 -103 38q-51 0 -102 -23q-35 -16 -63 -37v47h-171v-79h87v-366v-62h25l-13 -67q28 0 39 -2t16 -6q11 -8 11 -20q0 -19 -17 -27q-23 -13 -57 -13l-44 2v-66h31q75 0 121 26q49 27 49 85q0 39 -26 65q-16 18 -40 24h67v78h-78v288
q34 30 75 50q48 23 83 23q17 0 28.5 -4.5t19.5 -12.5t12.5 -20t4.5 -30v-311v-62z" />
    <glyph glyph-name="Ncedilla" unicode="&#xe038;" horiz-adv-x="751" 
d="M715 572v74h-169v-57v-450q-42 59 -83 115.5t-83 112.5q-49 66 -98.5 134.5t-102.5 144.5h-186v-74h91v-514v-57h22l-14 -62q29 0 40 -2.5t17 -5.5q9 -6 9 -16q0 -14 -15 -22q-11 -5 -25 -8.5t-33 -2.5l-44 1v-63h31q75 0 121 23q49 24 49 79q0 17 -6 33t-20 28t-30 18
h75v74h-96v447l383 -529h79v579h88z" />
    <glyph glyph-name="nacute" unicode="&#xe039;" horiz-adv-x="563" 
d="M382 726h-99l-121 -189h76zM545 1v79h-76v300q0 62 -39 103q-39 38 -103 38q-51 0 -102 -23q-35 -16 -63 -37v47h-171v-79h87v-366v-62h162v79h-78v288q34 30 75 50q48 23 83 23q17 0 28.5 -4.5t19.5 -12.5t12.5 -20t4.5 -30v-311v-62h160z" />
    <glyph glyph-name="Nacute" unicode="&#xe03a;" horiz-adv-x="751" 
d="M475 840h-103l-124 -174h79zM715 572v74h-169v-57v-450q-42 59 -83 115.5t-83 112.5q-49 66 -98.5 134.5t-102.5 144.5h-186v-74h91v-514v-57h177v74h-96v447l383 -529h79v579h88z" />
    <glyph glyph-name="lcedilla" unicode="&#xe03b;" horiz-adv-x="255" 
d="M248 2v78h-86v634h-171v-79h87v-572v-62h17l-14 -71q28 0 39 -2t16 -6q11 -8 11 -20q0 -18 -17 -28q-11 -5 -25 -8.5t-32 -3.5l-44 2v-66h31q38 0 68 6t53 20q49 27 49 85q0 39 -26 65q-17 19 -44 25v3h88z" />
    <glyph glyph-name="Lcedilla" unicode="&#xe03c;" horiz-adv-x="541" 
d="M515 1v232h-88v-158h-246v513l-16 -16q8 9 12 27.5t4.5 31.5t0.5 15h-183v-74h92v-497h-92v-74h223l-14 -64q29 0 40 -2t17 -6q9 -5 9 -15q0 -15 -15 -23q-11 -5 -25.5 -8.5t-32.5 -2.5l-44 2v-64h31q73 0 121 23q49 24 49 79q0 37 -25 61q-8 8 -17.5 12.5t-19.5 7.5h219
z" />
    <glyph glyph-name="lacute" unicode="&#xe03d;" horiz-adv-x="255" 
d="M288 917h-99l-121 -189h76zM248 1v79h-86v634h-171v-79h87v-572v-62h170z" />
    <glyph glyph-name="Lacute" unicode="&#xe03e;" horiz-adv-x="541" 
d="M332 840h-103l-124 -174h79zM515 1v232h-88v-158h-246v513l-16 -16q8 9 12 27.5t4.5 31.5t0.5 15h-183v-74h92v-497h-92v-74h516z" />
    <glyph glyph-name="kcedilla" unicode="&#xe03f;" horiz-adv-x="553" 
d="M551 2v78h-83l-225 188l237 162h63v78h-86q-1 -1 -19 -13.5t-50.5 -35t-69.5 -48t-77 -52.5t-73 -49v404h-172v-79h88v-589l1 -45h20l-14 -71q28 0 39 -2t17 -7q10 -7 10 -19q0 -18 -17 -28q-10 -5 -24 -8.5t-33 -3.5l-44 2v-66h31q77 0 121 26q49 27 49 85q0 40 -25 66
q-20 18 -45 24v3h86v78h-88v146l258 -225z" />
    <glyph glyph-name="Kcedilla" unicode="&#xe040;" horiz-adv-x="619" 
d="M617 1v74h-83l-271 268l256 229h84v74h-117l-49 -45l-296 -261l295 -294l44 -45h137zM270 1v74h-94v264v233h93v74h-273v-74h90v-514v-57h17l-13 -61q28 0 39.5 -2t17.5 -6q9 -6 9 -16q0 -14 -16 -22q-10 -5 -24.5 -8.5t-32.5 -2.5l-44 1v-63h31q37 0 67.5 5.5t53.5 17.5
q49 25 49 79q0 37 -26 61q-7 5 -14 9.5t-15 7.5h85z" />
    <glyph glyph-name="iogonek" unicode="&#xe041;" horiz-adv-x="265" 
d="M176 668q0 12 -4.5 22t-12.5 18t-18 12.5t-22 4.5t-22 -4.5t-18 -12.5q-17 -17 -17 -41q0 -12 4.5 -22t12.5 -18t18 -12.5t22 -4.5t22 4.5t18 12.5q17 17 17 41zM260 -147v74l-37.5 -12.5t-17.5 -5.5q-5 -1 -12 -1h-14q-19 0 -33 10q-5 4 -8.5 10.5t-3.5 18.5
q0 14 8.5 29t19.5 26h95v78h-82v428h-168v-79h84v-383v-26q-5 -6 -10.5 -12.5t-10.5 -14.5q-17 -25 -17 -55q0 -51 40 -82q37 -29 87 -29q9 0 19.5 0.5t19.5 5.5q8 2 17 6.5t24 13.5z" />
    <glyph glyph-name="Iogonek" unicode="&#xe042;" horiz-adv-x="298" 
d="M184 732v97h-90v-98zM271 1v79h-87v572v62h-89v-62v-573h-85v-78h76q-11 -14 -17 -29t-6 -34q0 -51 40 -82q37 -29 87 -29q9 0 19.5 0.5t19.5 5.5q8 2 17 6.5t24 13.5v74l-37.5 -12.5t-17.5 -5.5q-5 -1 -12 -1h-14q-19 0 -33 10q-5 4 -8.5 10.5t-3.5 18.5q0 14 8.5 29
t19.5 26z" />
    <glyph glyph-name="imacron" unicode="&#xe043;" horiz-adv-x="265" 
d="M303 602v62h-355v-63zM258 1v79h-82v428h-168v-79h84v-350h-84v-78h250z" />
    <glyph glyph-name="Imacron" unicode="&#xe044;" horiz-adv-x="298" 
d="M318 805v62h-355v-63zM271 1v79h-87v572v62h-89v-62v-573h-85v-78h261z" />
    <glyph glyph-name="gcedilla" unicode="&#xe045;" horiz-adv-x="630" 
d="M393 726h-99l-121 -189h76zM618 429v79h-173v-70q-33 40 -68 58q-25 12 -50.5 18.5t-52.5 6.5q-105 0 -179 -80q-73 -79 -73 -191q0 -108 72 -183q73 -73 179 -73q56 0 112 28q35 18 61 47v-67q0 -69 -45 -106q-48 -39 -122 -39q-11 0 -27.5 2.5t-32.5 6t-30 6.5t-20 5
l-20 -77l14 -3.5t33.5 -8t41 -8t36.5 -3.5q112 0 184 63q73 63 73 167v423zM445 254q0 -79 -49 -131t-120 -52q-38 0 -67.5 13t-53.5 38q-47 50 -47 132q0 80 49 135q48 54 119 54q69 0 120 -55q50 -56 50 -134h-1z" />
    <glyph glyph-name="Gcedilla" unicode="&#xe046;" horiz-adv-x="840" 
d="M755 310h-372v-74h277q-18 -75 -81 -117q-74 -49 -175 -49q-125 0 -204 72q-77 71 -77 182t75 183q74 71 193 71q80 0 153 -41q35 -20 58.5 -49.5t38.5 -75.5h74v189h-79v-35q-36 34 -90 58q-73 32 -156 32q-152 0 -255 -94q-102 -95 -102 -238q0 -146 105 -239
q90 -81 226 -92l-13 -64q29 0 40 -2t17 -6q9 -6 9 -15q0 -15 -15 -23q-11 -5 -25.5 -8.5t-32.5 -2.5l-44 2v-64h31q73 0 121 23q49 24 49 79q0 37 -26 61q-15 14 -37 20q130 9 217 80q50 42 74.5 99t25.5 138z" />
    <glyph glyph-name="eogonek" unicode="&#xe047;" 
d="M535 227q-4 76 -22 129t-53 90q-69 75 -179 75q-113 0 -185 -77q-73 -76 -73 -190t74 -191q26 -26 57 -43.5t67 -25.5q-18 -26 -18 -56q0 -51 40 -82q37 -29 87 -29q9 0 19.5 0.5t19.5 5.5q8 2 17 6.5t24 13.5v74l-37.5 -12.5t-17.5 -5.5q-5 -1 -12 -1h-14q-19 0 -33 10
q-5 4 -8.5 10.5t-3.5 18.5q0 14 10 32l6 9q20 2 44.5 8.5t46.5 14t36.5 13l14.5 5.5l-22 70q-6 -3 -22 -9t-35 -12t-38.5 -11t-32.5 -5q-80 0 -132 54q-44 47 -51 111h426zM443 305h-330q12 50 42 85q49 54 122 54q71 0 115 -44q39 -38 51 -96v1z" />
    <glyph glyph-name="Eogonek" unicode="&#xe048;" horiz-adv-x="641" 
d="M576 1v74h-63h-338v218h282v75h-282v204h321v-108h79v182h-577v-74h87v-514v-57h278l-3 -4q-17 -23 -17 -51q0 -47 40 -76q38 -26 87 -26q9 0 19.5 0.5t18.5 4.5q8 2 17.5 6t24.5 12v71q-27 -8 -37.5 -11l-17.5 -5q-5 -1 -12 -1h-14q-20 0 -34 10q-5 3 -7.5 8t-2.5 15
q0 11 7.5 24t18.5 23h125z" />
    <glyph glyph-name="edot" unicode="&#xe049;" 
d="M326 582v97h-98v-98zM535 226q-4 77 -22 130t-53 90q-69 75 -179 75q-113 0 -185 -77q-73 -76 -73 -190t74 -191q74 -76 187 -76q20 0 47 6.5t52 14.5t42 14.5l17 6.5l-22 70q-6 -3 -22 -9t-35 -12t-38.5 -11t-32.5 -5q-80 0 -132 54q-44 47 -51 111zM443 305h-330
q12 50 42 85q49 54 122 54q71 0 115 -44q39 -38 51 -96v1z" />
    <glyph glyph-name="Edot" unicode="&#xe04a;" horiz-adv-x="641" 
d="M352 706v91h-98v-91h98zM576 1v74h-63h-338v218h282v75h-282v204h321v-108h79v182h-577v-74h87v-514v-57h491z" />
    <glyph glyph-name="emacron" unicode="&#xe04b;" 
d="M454 602v62h-355v-63zM535 226q-4 77 -22 130t-53 90q-69 75 -179 75q-113 0 -185 -77q-73 -76 -73 -190t74 -191q74 -76 187 -76q20 0 47 6.5t52 14.5t42 14.5l17 6.5l-22 70q-6 -3 -22 -9t-35 -12t-38.5 -11t-32.5 -5q-80 0 -132 54q-44 47 -51 111zM443 305h-330
q12 50 42 85q49 54 122 54q71 0 115 -44q39 -38 51 -96v1z" />
    <glyph glyph-name="Emacron" unicode="&#xe04c;" horiz-adv-x="641" 
d="M480 724v60h-355v-60h355zM576 1v74h-63h-338v218h282v75h-282v204h321v-108h79v182h-577v-74h87v-514v-57h491z" />
    <glyph glyph-name="aogonek" unicode="&#xe04d;" horiz-adv-x="541" 
d="M560 -147v74l-37.5 -12.5t-17.5 -5.5q-5 -1 -12 -1h-14q-19 0 -33 10q-5 4 -8.5 10.5t-3.5 18.5q0 14 8.5 29t19.5 26h55v78h-80v290q0 76 -51 114q-50 37 -141 37q-20 0 -45 -6t-47 -13t-36.5 -13l-14.5 -6l26 -61q6 2 19.5 7t30 10t34 8.5t31.5 3.5q27 0 47.5 -5.5
t35.5 -15.5q13 -8 20 -22.5t7 -37.5v-85q-14 6 -27.5 11t-27.5 8q-20 5 -37 7.5t-33 2.5q-85 0 -140 -46q-54 -48 -54 -117q0 -64 47 -111q48 -46 117 -46q43 0 93 22q17 7 32 15.5t30 19.5v-50h23q-11 -14 -17 -29t-6 -34q0 -51 40 -82q37 -29 87 -29q9 0 19.5 0.5
t19.5 5.5q8 2 17 6.5t24 13.5zM352 135q-24 -27 -64 -47q-42 -21 -78 -21q-43 0 -66 25q-24 24 -24 55q0 39 30 67q14 13 36 20.5t51 7.5q32 0 65 -12q25 -8 51 -23z" />
    <glyph glyph-name="Aogonek" unicode="&#xe04e;" horiz-adv-x="696" 
d="M710 -133v71q-27 -8 -37.5 -11l-17.5 -5q-5 -1 -12 -1h-14q-20 0 -34 10q-5 3 -7.5 8t-2.5 15q0 11 7.5 24t18.5 23h86v74h-89l-194 497h77v74h-221l-19 -51l-200 -520h-91v-74h176v57l67 175h250l62 -158h-77v-74h85l-3 -4q-17 -23 -17 -51q0 -47 40 -76q38 -26 87 -26
q9 0 19.5 0.5t18.5 4.5q8 2 17.5 6t24.5 12zM425 308h-193l97 254z" />
    <glyph glyph-name="abreve" unicode="&#xe04f;" horiz-adv-x="541" 
d="M423 704h-76q-11 -24 -21 -36.5t-21 -20.5q-23 -15 -49 -15q-14 0 -26 4t-24 12q-11 7 -21 19.5t-22 36.5h-76q17 -46 33.5 -72t39.5 -44q44 -36 96 -36q51 0 96 36q23 17 39.5 43.5t31.5 72.5zM517 1v79h-80v290q0 76 -51 114q-50 37 -141 37q-20 0 -45 -6t-47 -13
t-36.5 -13l-14.5 -6l26 -61q6 2 19.5 7t30 10t34 8.5t31.5 3.5q27 0 47.5 -5.5t35.5 -15.5q13 -8 20 -22.5t7 -37.5v-85q-14 6 -27.5 11t-27.5 8q-20 5 -37 7.5t-33 2.5q-85 0 -140 -46q-54 -48 -54 -117q0 -64 47 -111q48 -46 117 -46q43 0 93 22q17 7 32 15.5t30 19.5v-50
h164zM353 135q-26 -27 -65 -47q-42 -21 -78 -21q-43 0 -66 25q-24 24 -24 55q0 39 30 67q14 13 36 20.5t51 7.5q32 0 65 -12q25 -8 51 -23v-72z" />
    <glyph glyph-name="Abreve" unicode="&#xe050;" horiz-adv-x="696" 
d="M497 820h-76q-11 -22 -21.5 -33t-21.5 -18q-20 -13 -49 -13q-27 0 -50 14q-11 6 -21 17.5t-22 32.5h-77q17 -45 34 -68.5t40 -39.5q44 -32 96 -32q26 0 49.5 8t46.5 23q23 17 39.5 41t32.5 68zM697 1v74h-89l-194 497h77v74h-221l-19 -51l-200 -520h-91v-74h176v57
l67 175h250l62 -158h-77v-74h259zM425 308h-193l97 254z" />
    <glyph glyph-name="amacron" unicode="&#xe051;" horiz-adv-x="541" 
d="M433 602v62h-355v-63zM517 1v79h-80v290q0 76 -51 114q-50 37 -141 37q-20 0 -45 -6t-47 -13t-36.5 -13l-14.5 -6l26 -61q6 2 19.5 7t30 10t34 8.5t31.5 3.5q27 0 47.5 -5.5t35.5 -15.5q13 -8 20 -22.5t7 -37.5v-85q-14 6 -27.5 11t-27.5 8q-20 5 -37 7.5t-33 2.5
q-85 0 -140 -46q-54 -48 -54 -117q0 -64 47 -111q48 -46 117 -46q43 0 93 22q17 7 32 15.5t30 19.5v-50h164zM353 135q-26 -27 -65 -47q-42 -21 -78 -21q-43 0 -66 25q-24 24 -24 55q0 39 30 67q14 13 36 20.5t51 7.5q32 0 65 -12q25 -8 51 -23v-72z" />
    <glyph glyph-name="Amacron" unicode="&#xe052;" horiz-adv-x="696" 
d="M506 724v60h-355v-60h355zM697 1v74h-89l-194 497h77v74h-221l-19 -51l-200 -520h-91v-74h176v57l67 175h250l62 -158h-77v-74h259zM425 308h-193l97 254z" />
    <glyph glyph-name="sfthyphen" unicode="&#xe053;" horiz-adv-x="708" 
d="M588 160l-65 65q9 14 17 27.5t13 28.5q8 18 11 38t3 40q0 42 -15 78q-13 30 -30 56l66 65l-55 55l-65 -65q-14 9 -27.5 17t-28.5 13q-18 8 -38 11t-40 3q-42 0 -78 -15q-27 -12 -56 -29l-64 66l-55 -56l65 -65q-10 -14 -18 -27.5t-13 -28.5q-8 -18 -11 -38t-3 -40
q0 -42 15 -78q11 -28 30 -56l-65 -65l54 -56l65 66q14 -9 27.5 -17t28.5 -13q18 -8 38 -11t40 -3q42 0 78 15q30 13 56 30l65 -66zM486 359q0 -63 -45 -108t-107 -45t-108 46q-45 45 -45 107t46 108q45 45 107 45t108 -46q45 -45 45 -107h-1z" />
    <glyph glyph-name="dmacron" unicode="&#xe054;" horiz-adv-x="630" 
d="M608 2v78h-87v453h59v75h-59v106h-84v-62l16 15q-8 -8 -12 -23t-4.5 -25t-0.5 -12h-143v-75h144v-88q-14 17 -29.5 29.5t-33.5 21.5q-54 26 -107 26q-107 0 -178 -77q-70 -74 -70 -190q0 -110 72 -185t179 -75q29 0 55 6.5t51 18.5q33 16 61 46v-64zM437 257
q0 -82 -47 -135q-47 -52 -120 -52q-71 0 -120 53q-49 55 -49 131q0 80 49 137q46 54 118 54q70 0 120 -54q50 -55 50 -134h-1z" />
    <glyph glyph-name="ccaron" unicode="&#xe055;" horiz-adv-x="541" 
d="M449 721h-76l-107 -99l-106 99h-76l145 -179h74zM501 155l-72 31q-14 -35 -29.5 -56t-33.5 -35q-37 -28 -90 -28q-74 0 -120 51q-22 25 -34 58.5t-12 77.5q0 83 45 136q45 51 114 51q51 0 93 -33q19 -14 29.5 -40t12.5 -74h76v184h-77v-6q-27 25 -62 37t-72 12
q-106 0 -175 -78q-70 -78 -70 -189q0 -115 70 -191q69 -76 181 -76q75 0 133 40q29 20 51.5 50t41.5 78z" />
    <glyph glyph-name="Ccaron" unicode="&#xe056;" horiz-adv-x="796" 
d="M588 835h-80l-107 -88l-106 88h-79l148 -164h74zM741 225l-77 40q-25 -63 -51.5 -98.5t-57.5 -55.5q-64 -41 -153 -41q-119 0 -192 72q-75 72 -75 182q0 112 74 183q73 71 189 71q81 0 151 -41q34 -20 54 -47.5t30 -72.5h78v175h-80v-21q-42 39 -93 58q-35 13 -69.5 20
t-68.5 7q-156 0 -256 -93q-99 -93 -99 -239q0 -148 99 -241q50 -46 114.5 -68.5t142.5 -22.5q111 0 198 51q45 26 79 69.5t63 112.5z" />
    <glyph glyph-name="cacute" unicode="&#xe057;" horiz-adv-x="541" 
d="M383 726h-99l-121 -189h76zM501 155l-72 31q-14 -35 -29.5 -56t-33.5 -35q-37 -28 -90 -28q-74 0 -120 51q-22 25 -34 58.5t-12 77.5q0 83 45 136q45 51 114 51q51 0 93 -33q19 -14 29.5 -40t12.5 -74h76v184h-77v-6q-27 25 -62 37t-72 12q-106 0 -175 -78
q-70 -78 -70 -189q0 -115 70 -191q69 -76 181 -76q75 0 133 40q29 20 51.5 50t41.5 78z" />
    <glyph glyph-name="Cacute" unicode="&#xe058;" horiz-adv-x="796" 
d="M522 840h-103l-124 -174h79zM741 225l-77 40q-25 -63 -51.5 -98.5t-57.5 -55.5q-64 -41 -153 -41q-119 0 -192 72q-75 72 -75 182q0 112 74 183q73 71 189 71q81 0 151 -41q34 -20 54 -47.5t30 -72.5h78v175h-80v-21q-42 39 -93 58q-35 13 -69.5 20t-68.5 7
q-156 0 -256 -93q-99 -93 -99 -239q0 -148 99 -241q50 -46 114.5 -68.5t142.5 -22.5q111 0 198 51q45 26 79 69.5t63 112.5z" />
    <glyph glyph-name="scedilla" unicode="&#xe059;" horiz-adv-x="475" 
d="M426 145q0 63 -38 101q-38 35 -147 55q-71 13 -95 29q-8 6 -13.5 16t-5.5 27q0 29 23 50q11 10 26.5 16t37.5 6q48 0 81 -30q15 -14 23.5 -34.5t9.5 -55.5h77v169h-78v-13q-25 22 -53 31t-61 9q-66 0 -117 -40q-49 -42 -49 -110q0 -69 46 -103q41 -31 130 -46
q40 -7 64.5 -15.5t36.5 -16.5q11 -8 17 -19.5t6 -30.5q0 -34 -32 -57q-32 -24 -80 -24q-62 0 -98 33q-17 16 -26.5 40.5t-10.5 66.5h-79v-198h80v31q20 -19 44 -29t50 -14l-13 -68q28 0 39 -2t16 -6q11 -8 11 -20q0 -19 -17 -27q-23 -13 -57 -13l-44 2v-66h31q75 0 121 26
q49 27 49 85q0 39 -26 65q-15 17 -39 23q63 7 105 41q55 44 55 116z" />
    <glyph glyph-name="Scedilla" unicode="&#xe05a;" horiz-adv-x="575" 
d="M515 178q0 81 -56 128q-27 23 -76 42t-118 34q-37 8 -66 18t-49 23q-36 22 -36 65q0 36 34 63q36 27 92 27q37 0 65.5 -4.5t51.5 -20.5q11 -8 18 -18.5t11.5 -21.5t6.5 -21t2 -16v-29h88l-0.5 11.5t-2.5 27t-5.5 32.5t-9.5 28q-8 14 -15 23.5t-19 21.5q-20 20 -39.5 30
t-43.5 19q-26 11 -52.5 13.5t-52.5 2.5q-89 0 -151 -47q-64 -47 -64 -119q0 -78 55 -123q54 -42 162 -66q54 -11 89 -24t55 -26q36 -24 36 -67q0 -50 -39 -81q-21 -16 -47 -24.5t-58 -8.5q-73 0 -125 43q-50 41 -50 93v39h-80v-244h80v54q25 -24 59 -39q38 -17 75 -21
l-14 -66q29 0 40 -2t17 -6q9 -6 9 -15q0 -15 -15 -23q-11 -5 -25.5 -8.5t-32.5 -2.5l-44 2v-64h31q73 0 121 23q49 24 49 79q0 37 -26 61q-17 16 -39 20q77 8 134 51q70 55 70 134z" />
    <glyph glyph-name="Idotaccent" unicode="&#xe05b;" horiz-adv-x="298" 
d="M184 732v97h-90v-98zM271 1v79h-87v572v62h-89v-62v-573h-85v-78h261z" />
    <glyph glyph-name="gbreve" unicode="&#xe05c;" horiz-adv-x="630" 
d="M444 704h-76q-11 -24 -21 -36.5t-21 -20.5q-23 -15 -49 -15q-14 0 -26 4t-24 12q-11 7 -21 19.5t-22 36.5h-76q17 -46 33.5 -72t39.5 -44q44 -36 96 -36q51 0 96 36q23 17 39.5 43.5t31.5 72.5zM618 429v79h-173v-70q-33 40 -68 58q-25 12 -50.5 18.5t-52.5 6.5
q-105 0 -179 -80q-73 -79 -73 -191q0 -108 72 -183q73 -73 179 -73q56 0 112 28q35 18 61 47v-67q0 -69 -45 -106q-48 -39 -122 -39q-11 0 -27.5 2.5t-32.5 6t-30 6.5t-20 5l-20 -77l14 -3.5t33.5 -8t41 -8t36.5 -3.5q112 0 184 63q73 63 73 167v423zM445 254
q0 -79 -49 -131t-120 -52q-38 0 -67.5 13t-53.5 38q-47 50 -47 132q0 80 49 135q48 54 119 54q69 0 120 -55q50 -56 50 -134h-1z" />
    <glyph glyph-name="Gbreve" unicode="&#xe05d;" horiz-adv-x="840" 
d="M560 820h-76q-11 -22 -21.5 -33t-21.5 -18q-20 -13 -49 -13q-27 0 -50 14q-11 6 -21 17.5t-22 32.5h-77q17 -45 34 -68.5t40 -39.5q44 -32 96 -32q26 0 49.5 8t46.5 23q23 17 39.5 41t32.5 68zM755 310h-372v-74h277q-18 -75 -81 -117q-74 -49 -175 -49q-125 0 -204 72
q-77 71 -77 182t75 183q74 71 193 71q80 0 153 -41q35 -20 58.5 -49.5t38.5 -75.5h74v189h-79v-35q-36 34 -90 58q-73 32 -156 32q-152 0 -255 -94q-102 -95 -102 -238q0 -147 105 -240q104 -92 265 -92q151 0 252 81q50 42 74.5 99t25.5 138z" />
    <glyph glyph-name="franc" unicode="&#xe05e;" horiz-adv-x="563" 
d="M549 463v183h-463v-57v-382h-62v-75h62v-57h-88v-74h178v57v74h62v75h-62v88l250 1v74h-250v202h294v-109h79z" />
    </font>
</defs>
</svg>
